<svg width="169" height="64" viewBox="0 0 169 64" fill="none" xmlns="http://www.w3.org/2000/svg">
<g clip-path="url(#clip0_1102_140)">
<path d="M29.2661 14.0483L29.326 15.823C29.507 15.8168 29.6885 15.8127 29.871 15.8127C30.0537 15.8127 30.2352 15.8168 30.4162 15.823L30.476 14.0483C30.0825 14.1962 29.6595 14.1962 29.2661 14.0483H29.2661ZM43.5544 23.4666L51.2479 18.6693L50.3015 17.2462L42.9482 22.5559C43.1603 22.852 43.3623 23.1559 43.5544 23.4666ZM16.1877 40.531L8.49411 45.3284L9.44084 46.7525L16.7942 41.4424C16.582 41.1459 16.3799 40.842 16.1877 40.5311V40.531ZM38.3583 45.7548L43.13 53.4888L44.5465 52.5374L39.2645 45.1452C38.9698 45.3584 38.6674 45.5616 38.3583 45.7548ZM21.3839 18.2429L16.6122 10.5089L15.1956 11.4603L20.4776 18.8525C20.7725 18.6392 21.0747 18.4361 21.3839 18.2429ZM33.546 16.2367L35.0435 9.81353C34.5712 10.2736 34.0059 10.5813 33.3963 10.7513C33.3698 10.8004 33.3418 10.8477 33.3126 10.8935L32.4759 16.0248C32.8367 16.0836 33.1936 16.1541 33.546 16.2368V16.2367ZM26.1965 47.7611L25.3069 51.5771C25.457 51.5255 25.6093 51.4799 25.764 51.4401C25.7807 51.4358 25.7951 51.4324 25.8118 51.4286C25.979 51.3905 26.1475 51.3603 26.3172 51.3366C26.3446 51.3328 26.3682 51.3301 26.3958 51.3276C26.5047 51.3174 26.6138 51.3102 26.7229 51.3059L27.2664 47.9731C26.9057 47.9139 26.5488 47.8438 26.1965 47.7611ZM45.55 35.6933L54.3623 37.7697L54.6947 36.0897L45.7609 34.6174C45.702 34.9802 45.6322 35.3391 45.5499 35.6933H45.55ZM14.192 28.3048L5.38019 26.2288L5.04757 27.9082L13.9812 29.3804C14.0399 29.0178 14.1099 28.6589 14.1921 28.3048H14.192ZM42.948 41.4422L50.3015 46.7525L51.2479 45.3283L43.5544 40.531C43.3622 40.8417 43.1601 41.1457 42.948 41.4421V41.4422ZM16.7939 22.5557L9.44077 17.2462L8.49404 18.6693L16.1876 23.4666C16.3798 23.1558 16.5818 22.8519 16.7939 22.5557ZM20.4776 45.1452L15.1956 52.5374L16.6122 53.4888L21.3839 45.7548C21.0747 45.5616 20.7723 45.3584 20.4776 45.1452ZM39.2645 18.8524L44.5465 11.4602L43.13 10.5088L38.3583 18.2428C38.6674 18.4361 38.9698 18.6392 39.2645 18.8524ZM45.7609 29.3804L54.6948 27.9081L54.3621 26.2287L45.5501 28.3048C45.6324 28.6588 45.7023 29.0177 45.761 29.3804H45.7609ZM13.9812 34.6173L5.04757 36.0896L5.38019 37.7697L14.1921 35.6933C14.1098 35.3391 14.0399 34.9802 13.9811 34.6173H13.9812ZM32.4759 47.9729L33.0193 51.3058C33.1285 51.3101 33.2375 51.3173 33.3464 51.3275C33.3739 51.33 33.3974 51.3327 33.4249 51.3365C33.5946 51.3602 33.7632 51.3904 33.9304 51.4285C33.9471 51.4323 33.9614 51.4356 33.9782 51.4399C34.1329 51.4797 34.2851 51.5254 34.4353 51.577L33.5457 47.7609C33.1936 47.8435 32.8367 47.9137 32.4759 47.9729ZM27.2664 16.0246L26.4297 10.8938C26.4003 10.8479 26.3723 10.8004 26.3457 10.7511C25.7363 10.5812 25.1711 10.2736 24.6989 9.81373L26.1963 16.2366C26.5487 16.1538 26.9057 16.0836 27.2664 16.0246V16.0246ZM44.9494 26.3136L53.4238 23.1183L52.7714 21.536L44.5321 25.3004C44.6823 25.6322 44.8211 25.9702 44.9493 26.3136H44.9494ZM14.7928 37.6841L6.31822 40.8796L6.97036 42.4618L15.2099 38.6973C15.0599 38.3656 14.921 38.0275 14.7928 37.6841H14.7928ZM35.5265 47.157L38.3506 54.7266L38.3787 54.7376C38.5958 54.8116 38.8269 54.8636 39.0488 54.9196C39.3064 54.9846 39.5342 55.0966 39.7272 55.251L40.2786 55.0214L36.5339 46.7377C36.204 46.8887 35.8677 47.0283 35.5265 47.157ZM24.2156 16.8405L21.0371 8.32129L19.4633 8.97654L23.208 17.26C23.538 17.109 23.8742 16.9693 24.2156 16.8405V16.8405ZM36.5339 17.2598L40.2786 8.97647L38.705 8.32163L35.5265 16.8405C35.8679 16.9693 36.2041 17.1087 36.5339 17.2597L36.5339 17.2598ZM23.208 46.7377L19.4633 55.0214L20.0148 55.251C20.2077 55.0965 20.4356 54.9846 20.6932 54.9196C20.9152 54.8636 21.1462 54.8116 21.3632 54.7376L21.3915 54.7265L24.2156 47.157C23.8742 47.0283 23.5379 46.8887 23.2079 46.7377H23.208ZM44.5321 38.6972L52.7718 42.4618L53.4238 40.8796L44.9494 37.6841C44.8211 38.0275 44.6824 38.3655 44.5322 38.6972H44.5321ZM15.2098 25.3005L6.97022 21.536L6.31809 23.1183L14.7925 26.3136C14.9207 25.9703 15.0595 25.6322 15.2097 25.3005H15.2098ZM40.8632 43.8242L47.0459 50.4756L48.2504 49.2644L41.6341 43.0492C41.3859 43.3161 41.1287 43.5746 40.8632 43.8242ZM18.8787 20.1734L12.6961 13.5222L11.4916 14.7331L18.1078 20.9484C18.3561 20.6814 18.6132 20.4229 18.8787 20.1734ZM18.1078 43.0492L11.4916 49.2644L12.6961 50.4756L18.8788 43.8243C18.6132 43.5746 18.3561 43.3162 18.1078 43.0492ZM41.6341 20.9484L48.2504 14.7331L47.0459 13.5222L40.8633 20.1735C41.1287 20.423 41.3859 20.6814 41.6341 20.9484ZM45.9615 32.547L55.0114 32.8553V31.1425L45.9615 31.4507C45.9676 31.6327 45.9717 31.8152 45.9717 31.9988C45.9717 32.1823 45.9676 32.3649 45.9615 32.5469V32.547ZM13.7805 31.4508L4.7305 31.1426V32.8554L13.7805 32.5471C13.7743 32.365 13.7703 32.1824 13.7703 31.999C13.7703 31.8153 13.7743 31.6328 13.7805 31.4508V31.4508Z" fill="#B09778"/>
<path d="M17.2819 10.105L21.8121 17.9831C22.1261 17.8002 22.4471 17.6282 22.7739 17.4665L18.7848 9.29856L17.2819 10.105H17.2819ZM37.9467 17.993L42.4866 10.1198L40.985 9.31228L36.9858 17.4753C37.3124 17.6374 37.633 17.8098 37.9467 17.9929V17.993ZM21.7953 46.0033L17.2553 53.8765L18.7575 54.6848L22.7567 46.5211C22.4299 46.3591 22.1091 46.1866 21.7953 46.0033ZM43.8022 40.1167L51.6335 44.6806L52.4376 43.1706L44.3174 39.1503C44.1562 39.4789 43.9845 39.8013 43.8022 40.1167ZM15.9398 23.8796L8.10845 19.3157L7.3044 20.8257L15.4247 24.8459C15.586 24.5174 15.7575 24.195 15.9398 23.8796ZM25.7305 16.3534L23.4032 7.56055L21.7725 8.05639L24.6862 16.6699C25.029 16.5528 25.3776 16.4476 25.7305 16.3533V16.3534ZM34.0119 47.6428L35.1301 51.8675L35.1327 51.8689L35.1414 51.8734L35.1455 51.8754L35.1529 51.8792L35.1582 51.882L35.1642 51.885L35.1709 51.8886L35.1756 51.891L35.1836 51.8952L35.1869 51.8969L35.1962 51.9019L35.1982 51.9029L35.2089 51.9086L35.2096 51.9089L35.2209 51.9149L35.2216 51.9153L35.2322 51.9209L35.2342 51.922L35.2434 51.927L35.2468 51.9288L35.2547 51.9331L35.2594 51.9356L35.2659 51.9392L35.272 51.9425L35.2772 51.9453L35.2845 51.9493L35.2885 51.9515L35.2971 51.9562L35.2996 51.9576L35.3097 51.9631L35.3108 51.9638L35.322 51.97L35.3222 51.9701L35.3332 51.9762L35.3347 51.9771L35.3443 51.9824L35.3471 51.984L35.3554 51.9887L35.3595 51.9911L35.3666 51.995L35.372 51.9981L35.3777 52.0013L35.3844 52.0052L35.3888 52.0076L35.3969 52.0123L35.3998 52.014L35.4091 52.0194L35.4109 52.0204L35.4216 52.0266L35.422 52.0268L35.433 52.0332L35.4339 52.0337L35.4441 52.0397L35.4463 52.041L35.4551 52.0461L35.4587 52.0482L35.4661 52.0526L35.4709 52.0554L35.4771 52.0591L35.4832 52.0628L35.4881 52.0657L35.4955 52.0701L35.4991 52.0722L35.5078 52.0775L35.5101 52.0788L35.5201 52.0849L35.5211 52.0854L35.532 52.092L35.5323 52.0922L35.5429 52.0987L35.5446 52.0997L35.5538 52.1053L35.5567 52.1072L35.5647 52.112L35.5689 52.1146L35.5756 52.1188L35.5811 52.1222L35.5865 52.1255L35.5933 52.1298L35.5974 52.1323L35.6055 52.1374L35.6082 52.1391L35.6175 52.145L35.619 52.1459L35.6296 52.1526L35.6299 52.1527L35.6406 52.1595L35.6417 52.1602L35.6515 52.1664L35.6538 52.1679L35.6622 52.1733L35.6659 52.1757L35.673 52.1802L35.678 52.1834L35.6838 52.1871L35.69 52.1912L35.6946 52.1941L35.7021 52.1989L35.7053 52.201L35.7141 52.2068L35.716 52.2081L35.726 52.2146L35.7268 52.2151L35.7375 52.2221L35.738 52.2225L35.7482 52.2292L35.75 52.2304L35.7589 52.2363L35.7619 52.2383L35.7695 52.2434L35.7738 52.2462L35.7802 52.2505L35.7858 52.2543L35.7909 52.2577L35.7977 52.2624L35.8015 52.2649L35.8096 52.2704L35.8121 52.272L35.8214 52.2785L35.8226 52.2793L35.8333 52.2865C35.8451 52.2946 35.8551 52.3015 35.8667 52.3099L35.8892 52.3262L35.8931 52.329L35.9117 52.3425L35.9196 52.3483L35.9341 52.359L35.9458 52.3676L35.9564 52.3755L35.9719 52.3872L35.9786 52.3921L35.9979 52.4067L36.0007 52.4088L36.0227 52.4257L36.0238 52.4265L36.0446 52.4424L36.0495 52.4463L36.0666 52.4594L36.0752 52.4662L36.0883 52.4765L36.1007 52.4863L36.11 52.4937L36.1261 52.5065L36.1316 52.5109L36.1515 52.5268L36.1531 52.5281L36.1746 52.5455L36.1766 52.5471L36.1959 52.5629L36.2016 52.5677L36.2171 52.5804L36.2266 52.5882L36.2383 52.598L36.2514 52.609L36.2594 52.6157L36.2762 52.6299L36.2805 52.6335L36.3009 52.6508L36.3015 52.6514L36.3223 52.6693L36.3253 52.6719L36.3431 52.6873L36.3497 52.693L36.3638 52.7054L36.374 52.7143L36.3845 52.7234L36.3982 52.7357L36.405 52.7417L36.4224 52.7571L36.4255 52.76L36.4459 52.7784L36.4463 52.7787L36.4662 52.7969L36.4701 52.8005L36.4865 52.8155L36.4939 52.8223L36.5066 52.8341L36.5176 52.8442L36.5267 52.8528L36.5411 52.8663L36.5467 52.8716L36.5645 52.8885L36.5667 52.8905L36.5865 52.9095L36.5878 52.9106L36.6063 52.9285L36.6111 52.9331L36.6259 52.9476L36.6341 52.9555L36.6456 52.9668L36.6572 52.9782L36.6651 52.986L36.6846 53.0054L36.7029 53.0236L36.704 53.0248L36.7234 53.0443L36.7256 53.0464L36.7426 53.0638L36.7482 53.0695L36.7618 53.0835L36.7707 53.0926L36.7809 53.1032L36.7931 53.1158L36.8 53.123L36.8154 53.1391L36.8189 53.1428L36.8376 53.1625L36.8379 53.1628L36.8567 53.1828L36.8598 53.186L36.8754 53.2029L36.8817 53.2097L36.8941 53.223L36.9036 53.2334L36.9127 53.2433L36.9254 53.2572L36.9312 53.2637L36.9471 53.2812L36.9497 53.284L36.9681 53.3045L36.9688 53.3052L36.9864 53.325L36.9903 53.3293L37.0047 53.3456L37.0117 53.3536L37.0229 53.3663L37.0331 53.3779L37.0411 53.387L37.0544 53.4023L37.0591 53.4079L37.0756 53.4269L37.0772 53.4287L37.0951 53.4497L37.0966 53.4515L37.1131 53.4708L37.1177 53.4763L37.1309 53.4919L37.1386 53.501L37.1486 53.5131L35.0558 47.3263C34.7128 47.4435 34.3645 47.5486 34.0116 47.6428L34.0119 47.6428ZM45.4333 27.8357L54.1803 25.4961L53.6867 23.8566L45.1184 26.7858C45.2351 27.1305 45.3397 27.481 45.4333 27.8357H45.4333ZM14.3089 36.1611L5.56232 38.5008L6.05568 40.1399L14.6237 37.2107C14.5071 36.866 14.4026 36.5158 14.3088 36.1611H14.3089ZM45.8313 34.1392L54.8052 35.3429L54.973 33.6385L45.937 33.048C45.9134 33.4151 45.8787 33.779 45.8313 34.1392ZM13.9107 29.8576L4.93755 28.6541L4.7688 30.3578L13.8049 30.9483C13.8286 30.5815 13.8634 30.2176 13.9107 29.8576V29.8576ZM27.7414 48.0432L27.3435 51.041L27.5723 50.5045C27.7762 50.0157 28.0262 49.5172 28.1998 49.0202L28.2118 48.987L28.212 48.9863L28.2243 48.9542L28.2248 48.9528L28.2373 48.9218L28.2381 48.9198L28.244 48.9057L28.2509 48.8898L28.2574 48.875L28.2579 48.874L28.2649 48.8582L28.2664 48.8549L28.2722 48.8425L28.2796 48.827L28.2814 48.8231L28.2824 48.8212L28.2937 48.7983L28.301 48.7838L28.3025 48.7809L28.3104 48.7657L28.313 48.7606L28.3184 48.7506L28.3265 48.7356L28.3296 48.7299L28.3348 48.7207L28.3432 48.706L28.3468 48.6998L28.347 48.6994L28.3611 48.6755L28.3692 48.6623L28.378 48.648L28.3826 48.6407L28.3871 48.6337L28.3962 48.6196L28.4012 48.6119L28.4055 48.6056L28.4149 48.5916L28.4241 48.5781L28.4243 48.5778L28.4339 48.5641L28.44 48.5555L28.4437 48.5505L28.4536 48.5369L28.4537 48.5367L28.4636 48.5236L28.4737 48.5103L28.4809 48.5009L28.4838 48.4971L28.4942 48.4841L28.5151 48.4583L28.5235 48.4481L28.5257 48.4455L28.5365 48.433L28.5474 48.4205L28.5584 48.4081L28.568 48.3972L28.5694 48.3958L28.5806 48.3836L28.5816 48.3825L28.6033 48.3596L28.6143 48.3482L28.6147 48.3478L28.6264 48.3362L28.6381 48.3246L28.6382 48.3244L28.6499 48.3131L28.6619 48.3018L28.6711 48.2931L28.6738 48.2906L28.6859 48.2795L28.6976 48.269L28.6981 48.2685L28.7105 48.2576L28.7121 48.2562L28.7229 48.2469L28.7354 48.2363L28.7375 48.2344L28.748 48.2258L28.7607 48.2155C28.7734 48.2051 28.7863 48.1951 28.7994 48.1852L28.8124 48.1753L28.8256 48.1656L28.8266 48.1497C28.4616 48.1258 28.0995 48.0909 27.7412 48.0433L27.7414 48.0432ZM32.0006 15.9532L32.5792 11.5937L32.5774 11.5947L32.5663 11.6375L32.5567 11.6727L32.5546 11.68L32.5522 11.6885L32.5434 11.719L32.5406 11.7283L32.5299 11.7636L32.5292 11.7659L32.5186 11.7991L32.5133 11.8152L32.5063 11.8363L32.4988 11.8583L32.4967 11.8645L32.4879 11.8896L32.4833 11.9024L32.4728 11.9309L32.4693 11.9401L32.4572 11.9721L32.455 11.9777L32.4411 12.013L32.4402 12.015L32.425 12.0523L32.4244 12.0536L32.4093 12.0893L32.4072 12.0942L32.3931 12.1261L32.3894 12.1345L32.3765 12.1628L32.3711 12.1746L32.3594 12.1993L32.3575 12.2033L32.3463 12.2266L32.3419 12.2357L32.3328 12.2542L32.3239 12.2719L32.3201 12.2793L32.3082 12.3026L32.3055 12.3079L32.2924 12.3329L32.2867 12.3437L32.2797 12.3566L32.268 12.3782L32.2674 12.3793L32.2499 12.4108L32.2477 12.4147L32.2279 12.4493L32.2275 12.45L32.2069 12.485L32.2054 12.4876L32.1996 12.4971L32.1822 12.5257L32.1644 12.5543L32.1631 12.5564L32.1478 12.5806L32.1397 12.5932C32.1191 12.6253 32.0978 12.6571 32.0761 12.6886L32.0712 12.6957L32.0533 12.7213L32.0509 12.7247L32.0332 12.7495L32.0269 12.7583L32.0066 12.786L32.0025 12.7915L32.0019 12.7923L31.9777 12.8245L31.9525 12.8575L31.9519 12.8582L31.9268 12.8901L31.9239 12.8939L31.9008 12.9226L31.9007 12.9227C31.8835 12.944 31.866 12.9651 31.8483 12.986L31.847 12.9875L31.8252 13.0132L31.8162 13.0236C31.7718 13.0748 31.7259 13.1252 31.6785 13.1746L31.6499 13.2042L31.6489 13.2052L31.619 13.2355L31.6172 13.2374L31.5887 13.2656L31.5839 13.2703L31.5579 13.2955C31.5382 13.3145 31.5182 13.3334 31.498 13.3522L31.4931 13.3568L31.4647 13.3828L31.4627 13.3847L31.4346 13.41L31.427 13.4167C31.3852 13.4539 31.3425 13.4904 31.2989 13.5264L31.2649 13.5541L31.2648 13.5543L31.2305 13.5817C31.2085 13.5992 31.1861 13.6167 31.1635 13.634L31.1598 13.6368C31.1374 13.654 31.1146 13.671 31.0916 13.688L31.0874 13.691L31.0533 13.7159L30.9156 15.8467C31.2807 15.8703 31.6427 15.9053 32.001 15.9529L32.0006 15.9532ZM42.6614 22.1675L49.8546 16.6388L48.7743 15.3148L41.9699 21.32C42.2098 21.5944 42.4403 21.8772 42.6614 22.1675ZM17.0806 41.829L9.88768 47.3577L10.9679 48.6824L17.7723 42.6767C17.5325 42.4022 17.3018 42.1195 17.0806 41.829ZM39.6499 44.8564L45.1495 52.0877L46.4673 51.0024L40.4929 44.1613C40.2199 44.4023 39.9386 44.634 39.6499 44.8564ZM20.0921 19.14L14.5927 11.9088L13.2753 12.9948L19.2489 19.8352C19.5219 19.5941 19.8032 19.3623 20.0921 19.14ZM40.5075 19.8483L46.4899 13.0149L45.1733 11.9278L39.6653 19.152C39.9539 19.3747 40.2349 19.6068 40.5075 19.8483ZM19.2345 44.1482L13.252 50.982L14.5684 52.0691L20.0765 44.8446C19.7879 44.6218 19.5071 44.3898 19.2345 44.1482ZM41.9568 42.6913L48.7545 48.7055L49.8357 47.3823L42.6493 41.8447C42.4279 42.1348 42.1969 42.4173 41.9568 42.6913ZM17.7849 21.3054L10.9875 15.2915L9.90595 16.6145L17.0924 22.152C17.3139 21.8618 17.5448 21.5794 17.7849 21.3054ZM28.8458 15.8458L28.7117 13.7327L28.7097 13.7312L28.6773 13.7079L28.6699 13.7025L28.6432 13.6828L28.6306 13.6735L28.6094 13.6576L28.5917 13.6443L28.576 13.6322L28.5532 13.6146L28.5428 13.6065L28.5151 13.5848L28.5099 13.5806L28.4774 13.5546L28.4774 13.5546L28.4451 13.5282L28.4402 13.5242L28.4132 13.5017L28.4118 13.5005L28.3836 13.4765L28.3804 13.4739L28.3552 13.4521L28.3505 13.4481L28.3312 13.4312L28.3195 13.4209L28.3089 13.4114L28.289 13.3935L28.2607 13.3678L28.2588 13.366L28.2288 13.3382C28.2103 13.3209 28.1921 13.3036 28.1742 13.2861L28.17 13.2821L28.1582 13.2706L28.1411 13.2537L28.125 13.2377L28.1192 13.2318L28.0956 13.2079L28.0922 13.2045L28.0842 13.1963L28.0598 13.1711L28.0563 13.1673C28.0102 13.1191 27.9656 13.0698 27.9223 13.0198L27.9218 13.0192L27.8967 12.99L27.8954 12.9884C27.8787 12.9687 27.8622 12.9487 27.8459 12.9287L27.8211 12.8981L27.8181 12.8942L27.7968 12.8671C27.7646 12.8259 27.7333 12.7841 27.7032 12.7419L27.6827 12.7131L27.6807 12.7102L27.6804 12.7098C27.6583 12.6782 27.6367 12.6462 27.6157 12.6141L27.6152 12.6135L27.5986 12.5877L27.5919 12.5772C27.5651 12.5352 27.5392 12.4926 27.5143 12.4495H27.5142L27.4952 12.4162C27.4766 12.3833 27.4585 12.3501 27.4411 12.3167L27.4398 12.3142C27.3456 12.1337 27.2682 11.9461 27.2087 11.7524L27.7607 15.9507C28.1188 15.9036 28.4808 15.869 28.8458 15.8459L28.8458 15.8458ZM27.8955 12.9884C27.8787 12.9687 27.8623 12.9487 27.8459 12.9287L27.8955 12.9884ZM32.4142 51.0214L32.0308 48.1056C31.6726 48.1527 31.3105 48.1873 30.9454 48.2104L30.948 48.2123L30.959 48.2202L30.9726 48.2301L30.9841 48.2387L30.9859 48.24L30.9993 48.2503L31.0017 48.2521L31.0125 48.2605L31.0257 48.271L31.0348 48.2783L31.0387 48.2815L31.0516 48.2922L31.0538 48.294L31.0645 48.303L31.0772 48.3139L31.0793 48.3157L31.0898 48.325L31.1024 48.3362L31.1044 48.3379L31.1148 48.3474L31.1272 48.3589L31.129 48.3606L31.1394 48.3705L31.1515 48.3823L31.1601 48.3906L31.1635 48.3941L31.1754 48.406L31.1837 48.4145L31.1872 48.4181L31.1989 48.4303L31.2005 48.4319L31.2105 48.4427L31.222 48.4551L31.2234 48.4567L31.2333 48.4677L31.2446 48.4804L31.246 48.4819L31.2557 48.4932L31.2667 48.5061L31.268 48.5075L31.2698 48.5098L31.2861 48.5294L31.2884 48.5322L31.2896 48.5336L31.299 48.5455L31.3095 48.5589L31.3106 48.5602L31.3199 48.5724L31.3302 48.586L31.3384 48.5972L31.3403 48.5998L31.3505 48.6136L31.3514 48.6148L31.3518 48.6155L31.3702 48.6416L31.371 48.6428L31.3729 48.6456L31.3894 48.6701L31.3902 48.6712L31.4072 48.6975L31.4082 48.699L31.4089 48.7L31.4174 48.7136L31.4264 48.7284L31.427 48.7293L31.4353 48.7433L31.444 48.7582L31.4446 48.7591L31.4462 48.7619L31.4606 48.7873L31.4612 48.7884L31.4617 48.7892L31.4631 48.7919L31.4779 48.819V48.819L31.4783 48.8198L31.479 48.8212L31.494 48.8501L31.4943 48.8508L31.5096 48.8816L31.5099 48.8823L31.5171 48.8975L31.5246 48.9135L31.5248 48.914L31.5369 48.9409L31.5391 48.9459L31.5393 48.9463L31.5416 48.9518L31.553 48.9787L31.5531 48.979L31.564 49.0057L31.5664 49.0118L31.5665 49.012L31.5687 49.018L31.5792 49.0454V49.0455L31.5914 49.0793C31.7652 49.5764 32.0151 50.0749 32.219 50.5637L32.414 51.0209L32.4142 51.0214ZM45.9877 31.0276L55.0243 30.4481L54.8584 28.7435L45.8834 29.9363C45.9302 30.2964 45.9647 30.6604 45.9877 31.0276ZM13.8531 33.0884L4.81661 33.668L4.98244 35.3724L13.9574 34.1796C13.9106 33.8196 13.8762 33.4556 13.8531 33.0884ZM45.1613 37.2888L53.7264 40.2283L54.2216 38.5896L45.4774 36.2393C45.3834 36.5939 45.2782 36.944 45.1612 37.2887L45.1613 37.2888ZM14.6794 26.8271L6.11449 23.8876L5.61909 25.5261L14.3634 27.8765C14.4572 27.5218 14.5625 27.1718 14.6795 26.8271L14.6794 26.8271ZM24.7169 47.3795L22.5933 53.6325L22.6111 53.6109L22.6116 53.6101L22.63 53.5879L22.6318 53.5859L22.6485 53.5658L22.6526 53.5609L22.6671 53.5436L22.6735 53.5361L22.6857 53.5217L22.6945 53.5113L22.7044 53.4997L22.7156 53.4866L22.7232 53.4778L22.7368 53.4621L22.742 53.456L22.758 53.4377L22.7609 53.4343L22.7793 53.4133L22.7798 53.4127L22.7989 53.3912L22.8007 53.3891L22.818 53.3698L22.8223 53.3649L22.8372 53.3483L22.8439 53.3409L22.8565 53.327L22.8657 53.3169L22.8758 53.3058L22.8875 53.2931L22.8953 53.2846L22.9094 53.2694L22.9148 53.2636L22.9315 53.2457L22.9343 53.2426L22.9535 53.2222L22.9539 53.2217L22.9737 53.201L22.9757 53.1989L22.998 53.1755L23.0133 53.1596L23.0204 53.1524L23.0333 53.1391L23.0428 53.1292L23.0533 53.1185L23.0655 53.1062L23.0734 53.0982L23.0882 53.0834L23.0936 53.0778L23.111 53.0605L23.1139 53.0576L23.1339 53.0379L23.1342 53.0375L23.1547 53.0174L23.1569 53.0153L23.1752 52.9975L23.18 52.9928L23.1958 52.9776L23.2032 52.9704L23.2164 52.9578L23.2265 52.9483L23.2373 52.9381L23.25 52.9261L23.2581 52.9184L23.2735 52.904L23.279 52.8989L23.2972 52.8821L23.3147 52.8659L23.3209 52.8603L23.3212 52.8601L23.3424 52.8407L23.3448 52.8386L23.3636 52.8215L23.3687 52.8169L23.385 52.8024L23.3928 52.7955L23.417 52.7741L23.428 52.7645L23.4413 52.7528L23.4496 52.7456L23.4656 52.7317L23.4713 52.7268L23.4902 52.7106L23.4931 52.7082L23.5147 52.6897L23.5149 52.6895L23.5369 52.671L23.5395 52.6689L23.5589 52.6527L23.5643 52.6481L23.5811 52.6343L23.5893 52.6276L23.6034 52.616L23.6144 52.607L23.6257 52.5979L23.6396 52.5867L23.6481 52.5798L23.6649 52.5664L23.6707 52.5618L23.6903 52.5463L23.6933 52.544L23.7158 52.5262L23.7159 52.5261L23.7388 52.5084L23.7415 52.5063L23.7446 52.5039L23.7672 52.4865L23.7845 52.4732L23.7931 52.4668L23.8076 52.4558L23.8191 52.4472L23.8308 52.4385L23.8452 52.4276L23.854 52.4211L23.8715 52.4083L23.8774 52.4039L23.8979 52.389L23.9008 52.3869L23.9244 52.3699C23.936 52.3615 23.9458 52.3546 23.9576 52.3466L23.9678 52.3396L23.9695 52.3385L23.9779 52.3327L23.9813 52.3304L23.9881 52.3258L23.9932 52.3224L23.9984 52.3189L24.0052 52.3142L24.0086 52.312L24.0171 52.3063L24.0188 52.3052L24.029 52.2983H24.0291L24.0393 52.2915L24.041 52.2904L24.0496 52.2847L24.053 52.2825L24.0598 52.278L24.0649 52.2746L24.0702 52.2712L24.077 52.2667L24.0805 52.2644L24.089 52.2589L24.0907 52.2577L24.101 52.251H24.1011L24.1115 52.2443L24.1131 52.2433L24.1217 52.2377L24.1252 52.2356L24.1321 52.2311L24.1372 52.2279L24.1425 52.2245L24.1493 52.2201L24.1529 52.2179L24.1614 52.2125L24.1632 52.2113L24.1666 52.2092L24.184 52.1983L24.1857 52.1972L24.1944 52.1918L24.1978 52.1896L24.2049 52.1853L24.2101 52.1821L24.2154 52.1788L24.2222 52.1746L24.2258 52.1724L24.2344 52.167L24.2363 52.166L24.2467 52.1596L24.2467 52.1595L24.2573 52.1531L24.2589 52.1522L24.2677 52.1468L24.2711 52.1447L24.2782 52.1404L24.2834 52.1374L24.2888 52.1341L24.2957 52.1301L24.2994 52.1279L24.308 52.1227L24.3099 52.1216L24.3203 52.1154L24.3204 52.1153L24.331 52.1091L24.3326 52.1081L24.3415 52.1029L24.3449 52.1009L24.3522 52.0967L24.3573 52.0937L24.3628 52.0905L24.3697 52.0865L24.3734 52.0844L24.3821 52.0793L24.384 52.0782L24.3945 52.0722L24.3947 52.0721L24.4054 52.066L24.4069 52.0651L24.416 52.0599L24.4194 52.058L24.4267 52.0539L24.4318 52.051L24.4374 52.0479L24.4443 52.044L24.4481 52.0418L24.4568 52.037L24.4587 52.0358L24.4693 52.03L24.4695 52.0299L24.4803 52.0239L24.4818 52.0231L24.4909 52.018L24.4943 52.0162L24.5017 52.0121L24.5069 52.0093L24.5125 52.0062L24.5195 52.0024L24.5233 52.0003L24.532 51.9956L24.5341 51.9945L24.5446 51.9888L24.5449 51.9887L24.5459 51.9881L24.5573 51.982L24.5665 51.9771L24.5699 51.9753L24.5774 51.9713L24.5825 51.9686L24.5992 51.9598L24.6079 51.9552L24.61 51.9541L24.6206 51.9486L24.6209 51.9484L24.6318 51.9427L25.7608 47.6977C25.408 47.6032 25.0598 47.4974 24.717 47.3798L24.7169 47.3795ZM35.1237 16.7361L38.0478 8.12589L36.418 7.62772L34.0799 16.4183C34.4326 16.5128 34.7808 16.6186 35.1236 16.7362L35.1237 16.7361ZM44.3754 24.9233L52.5005 20.9129L51.6982 19.4019L43.8614 23.9561C44.0434 24.2717 44.2144 24.5945 44.3754 24.9232L44.3754 24.9233ZM15.4654 39.1925L7.34019 43.203L8.14247 44.714L15.9793 40.1597C15.7974 39.844 15.6264 39.5213 15.4654 39.1925L15.4654 39.1925ZM37.0173 46.5896L41.0066 54.7578L42.5095 53.9514L37.9792 46.0729C37.6652 46.2557 37.3443 46.4277 37.0174 46.5895L37.0173 46.5896Z" fill="#B09778"/>
<path fill-rule="evenodd" clip-rule="evenodd" d="M42.4401 31.998C42.4401 38.9765 36.8127 44.6337 29.8711 44.6337C22.9294 44.6337 17.302 38.9765 17.302 31.998C17.302 25.0195 22.9294 19.3623 29.8711 19.3623C36.8127 19.3623 42.4401 25.0195 42.4401 31.998ZM34.4132 23.6589C26.1595 24.2011 23.5964 28.6257 28.5749 36.1311C14.776 28.5565 20.7363 17.7424 34.4132 23.6589ZM27.0103 27.9265C35.2358 27.2389 38.5086 31.236 34.8692 39.3996C47.1893 29.8595 39.4902 20.0449 27.0103 27.9265ZM20.8164 31.4868C25.0953 38.6448 30.2641 38.9453 34.7497 31.09C34.2517 46.8877 21.7583 46.4262 20.8164 31.4868Z" fill="#17335D"/>
<path d="M82.6001 10.7331C82.5511 10.7852 82.513 10.8235 82.4885 10.8508C82.4668 10.8781 82.4423 10.9001 82.4206 10.9138C82.3743 10.9603 82.2736 11.0642 82.1239 11.2229C81.9715 11.3843 81.8027 11.5594 81.6204 11.7509C81.2231 12.164 80.9346 12.4704 80.7549 12.6702L78.3383 15.2829L82.8614 21.6822H79.7753L79.6283 21.4687L78.7928 20.0543L76.5884 16.2787H76.4633L76.5259 19.8107C76.553 20.6917 76.5966 21.3155 76.6565 21.6821H73.9949C74.0139 21.5316 74.0302 21.4276 74.0439 21.3702C74.0629 21.1213 74.082 20.7217 74.0956 20.1719C74.1364 19.1349 74.1582 18.4729 74.1582 18.1883V14.804C74.1582 13.4387 74.1092 12.1584 74.0113 10.9627L73.9949 10.7329H76.6565L76.6401 10.9627L76.5748 11.8L76.5258 12.7521L76.4768 15.6904H76.5748L78.5668 13.343C78.6729 13.2364 79.0485 12.7712 79.6962 11.9477C80.0772 11.4771 80.3711 11.0723 80.5752 10.733H82.6L82.6001 10.7331ZM88.9941 10.4678C89.0294 10.5498 89.0458 10.61 89.0458 10.6483L89.4676 11.7345L90.137 13.5538L91.789 17.6933L92.8802 20.3362L93.3238 21.4005L93.4545 21.6822H90.6758L89.6308 18.4484C89.5574 18.4374 89.4974 18.432 89.4512 18.432C89.4757 18.432 89.2825 18.4292 88.8743 18.4238C88.466 18.4183 88.0414 18.4156 87.606 18.4156H87.3801C87.0916 18.4156 86.8059 18.4183 86.5229 18.4238C86.2371 18.4292 86.0929 18.432 86.0875 18.432C86.0248 18.432 85.9487 18.4374 85.8616 18.4484L84.6995 21.6822H83.2654L86.1392 14.8863C86.4903 14.0245 86.8931 12.9739 87.3475 11.7345C87.5462 11.1737 87.6877 10.7523 87.7694 10.4678H88.994L88.9941 10.4678ZM87.8211 13.4417L86.3026 17.3814C86.3869 17.3924 86.4631 17.3979 86.5312 17.3979C86.6699 17.4088 87.0401 17.4143 87.6388 17.4143C88.3383 17.4143 88.7573 17.4088 88.8988 17.3979C88.975 17.3979 89.0621 17.3924 89.1574 17.3814L87.8211 13.4417ZM95.4914 10.6866C95.954 10.7413 96.297 10.766 96.5228 10.766C96.7869 10.766 97.1951 10.7469 97.7475 10.703C98.2101 10.6675 98.6238 10.6511 98.9912 10.6511C100.096 10.6511 100.956 10.7934 101.571 11.0806C102.023 11.294 102.377 11.6196 102.635 12.06C102.894 12.4978 103.022 12.9929 103.022 13.5401C103.022 14.2542 102.812 14.8288 102.396 15.2692C101.977 15.7097 101.321 16.0462 100.425 16.2814L103.463 20.8121L103.923 21.4687L104.069 21.6822H101.141C100.943 21.3019 100.649 20.7821 100.262 20.1227L98.0251 16.3636V19.3019L98.0578 20.3826C98.0742 20.8697 98.0904 21.1979 98.1068 21.3703C98.1149 21.3895 98.1231 21.4388 98.134 21.5236C98.1449 21.6084 98.1531 21.6604 98.1585 21.6822H95.4914C95.5132 21.4853 95.5241 21.3758 95.5241 21.3539C95.5649 20.8013 95.5867 20.4128 95.5921 20.1884C95.6357 19.0667 95.6547 18.2296 95.6547 17.6796V14.6893C95.6547 14.1777 95.6302 13.3132 95.5758 12.0984C95.5486 11.4254 95.5214 10.9547 95.4914 10.6866ZM98.0742 11.6524V11.9014L98.0251 13.1298V15.9724C98.6184 15.9422 99.0974 15.8438 99.4675 15.6796C99.8349 15.5155 100.104 15.272 100.279 14.9491C100.453 14.6263 100.54 14.2159 100.54 13.7207C100.54 12.3309 99.8484 11.6359 98.4687 11.6359C98.3353 11.6359 98.2047 11.6415 98.0741 11.6524H98.0742ZM110.51 10.4678C110.545 10.5498 110.561 10.61 110.561 10.6483L110.983 11.7345L111.653 13.5538L113.305 17.6933L114.396 20.3362L114.839 21.4005L114.97 21.6822H112.191L111.146 18.4484C111.073 18.4374 111.013 18.432 110.967 18.432C110.991 18.432 110.798 18.4292 110.39 18.4238C109.982 18.4183 109.557 18.4156 109.122 18.4156H108.896C108.607 18.4156 108.322 18.4183 108.039 18.4238C107.753 18.4292 107.609 18.432 107.603 18.432C107.54 18.432 107.464 18.4374 107.377 18.4484L106.215 21.6822H104.781L107.655 14.8863C108.006 14.0245 108.409 12.9739 108.863 11.7345C109.062 11.1737 109.203 10.7523 109.285 10.4678H110.51L110.51 10.4678ZM109.337 13.4417L107.818 17.3814C107.903 17.3924 107.979 17.3979 108.047 17.3979C108.186 17.4088 108.556 17.4143 109.154 17.4143C109.854 17.4143 110.273 17.4088 110.414 17.3979C110.491 17.3979 110.578 17.3924 110.673 17.3814L109.337 13.4417ZM117.01 10.684L117.304 10.7004L118.153 10.7332L119.051 10.7797C119.486 10.7797 119.851 10.7633 120.148 10.7332C120.602 10.7004 120.904 10.684 121.059 10.684C121.74 10.684 122.336 10.7852 122.845 10.9876C123.354 11.1929 123.743 11.4855 124.018 11.8686C124.29 12.2517 124.426 12.6976 124.426 13.2092C124.426 13.7099 124.29 14.1558 124.018 14.5444C123.743 14.9329 123.359 15.2365 122.866 15.4526C122.371 15.6688 121.794 15.7809 121.138 15.7891V15.8876C121.71 15.9041 122.099 15.9259 122.3 15.9533C122.504 15.9806 122.782 16.0573 123.133 16.1831C123.607 16.3554 123.982 16.6564 124.262 17.0887C124.543 17.5182 124.684 18.0216 124.684 18.5961C124.684 19.2226 124.537 19.7698 124.241 20.2404C123.944 20.711 123.522 21.0748 122.972 21.3293C122.425 21.5864 121.794 21.715 121.076 21.715H120.912L118.414 21.6329L117.336 21.6822L117.01 21.6986C117.029 21.5235 117.045 21.4059 117.059 21.3375C117.059 21.3402 117.07 21.0174 117.094 20.369L117.173 18.2186V14.0627C117.173 13.4827 117.146 12.7057 117.094 11.7345C117.064 11.2366 117.037 10.8864 117.01 10.684ZM119.603 11.636C119.603 11.6716 119.601 11.7045 119.595 11.74C119.592 11.7755 119.59 11.7947 119.59 11.8002C119.59 11.8166 119.587 11.8904 119.582 12.0245C119.576 12.1586 119.573 12.2871 119.573 12.4103L119.541 13.179V15.51C119.617 15.521 119.699 15.5265 119.783 15.5265C121.288 15.5265 122.039 14.8151 122.039 13.3952C122.039 12.2106 121.413 11.6196 120.161 11.6196C120.044 11.6196 119.911 11.6251 119.767 11.636H119.603ZM119.541 16.4129V19.105C119.541 19.1132 119.543 19.2171 119.549 19.4169C119.554 19.6193 119.557 19.8136 119.557 20.0078C119.568 20.2158 119.573 20.4073 119.573 20.5851C119.573 20.5933 119.576 20.6153 119.582 20.6536C119.587 20.6891 119.59 20.7219 119.59 20.7494C119.818 20.8013 120.028 20.8287 120.21 20.8287C120.613 20.8287 120.961 20.7412 121.252 20.5633C121.544 20.3855 121.767 20.1255 121.919 19.7836C122.074 19.4415 122.151 19.0339 122.151 18.5633C122.151 17.1188 121.41 16.3965 119.933 16.3965C119.802 16.3965 119.671 16.402 119.541 16.413L119.541 16.4129ZM131.925 10.4678C131.96 10.5498 131.976 10.61 131.976 10.6483L132.398 11.7345L133.068 13.5538L134.719 17.6933L135.811 20.3362L136.254 21.4005L136.385 21.6822H133.606L132.561 18.4484C132.488 18.4374 132.428 18.432 132.382 18.432C132.406 18.432 132.213 18.4292 131.805 18.4238C131.396 18.4183 130.972 18.4156 130.536 18.4156H130.311C130.022 18.4156 129.736 18.4183 129.453 18.4238C129.168 18.4292 129.023 18.432 129.018 18.432C128.955 18.432 128.879 18.4374 128.792 18.4484L127.63 21.6822H126.196L129.07 14.8863C129.421 14.0245 129.824 12.9739 130.278 11.7345C130.477 11.1737 130.618 10.7523 130.7 10.4678H131.924L131.925 10.4678ZM130.752 13.4417L129.233 17.3814C129.317 17.3924 129.394 17.3979 129.462 17.3979C129.6 17.4088 129.971 17.4143 130.569 17.4143C131.269 17.4143 131.688 17.4088 131.829 17.3979C131.906 17.3979 131.993 17.3924 132.088 17.3814L130.752 13.4417ZM146.067 10.6866V12.1449L145.854 12.112C144.875 12.0026 144.085 11.9479 143.487 11.9479C143.345 11.9479 143.198 11.9534 143.046 11.9644V12.1778C143.013 12.7386 142.997 13.5376 142.997 14.5717V17.6414C142.997 17.5675 143.008 18.2077 143.029 19.5675C143.054 20.4293 143.097 21.1352 143.16 21.6824H140.449C140.498 21.2938 140.539 20.6591 140.564 19.7782L140.613 17.6798V14.7524L140.58 13.3735L140.564 12.2135V11.9645C140.477 11.9535 140.4 11.9481 140.332 11.9481H140.139C139.546 11.9481 138.757 12.0027 137.772 12.1122L137.543 12.145V10.6868L137.823 10.7032L138.866 10.7497C139.589 10.7936 140.585 10.8154 141.854 10.8154C142.54 10.8154 143.416 10.8044 144.483 10.7826C145.234 10.7497 145.762 10.7196 146.067 10.6868V10.6866ZM152.918 10.4678C152.953 10.5498 152.969 10.61 152.969 10.6483L153.391 11.7345L154.061 13.5538L155.713 17.6933L156.804 20.3362L157.247 21.4005L157.378 21.6822H154.599L153.554 18.4484C153.481 18.4374 153.421 18.432 153.375 18.432C153.399 18.432 153.206 18.4292 152.798 18.4238C152.39 18.4183 151.965 18.4156 151.53 18.4156H151.304C151.015 18.4156 150.729 18.4183 150.446 18.4238C150.161 18.4292 150.016 18.432 150.011 18.432C149.948 18.432 149.872 18.4374 149.785 18.4484L148.623 21.6822H147.189L150.063 14.8863C150.414 14.0245 150.817 12.9739 151.271 11.7345C151.47 11.1737 151.611 10.7523 151.693 10.4678H152.918L152.918 10.4678ZM151.745 13.4417L150.226 17.3814C150.31 17.3924 150.387 17.3979 150.455 17.3979C150.593 17.4088 150.964 17.4143 151.562 17.4143C152.262 17.4143 152.681 17.4088 152.822 17.3979C152.899 17.3979 152.986 17.3924 153.081 17.3814L151.745 13.4417ZM169 10.7331C168.978 10.9082 168.967 11.0094 168.967 11.0286C168.946 11.2721 168.924 11.7317 168.905 12.4075C168.872 13.179 168.856 13.7618 168.856 14.164V18.5469C168.856 18.681 168.872 19.1515 168.905 19.9586C168.918 20.5633 168.94 21.0557 168.967 21.4388C168.967 21.4552 168.97 21.4935 168.975 21.5454C168.981 21.6001 168.984 21.6439 168.984 21.6822H167.549C167.476 21.5947 167.421 21.5236 167.386 21.4688C167.22 21.2773 167.062 21.0939 166.91 20.9162C166.755 20.7411 166.583 20.5468 166.387 20.3362C165.699 19.5427 165.318 19.1104 165.244 19.042L160.642 14.0162L160.626 19.5974C160.626 19.7998 160.642 20.1391 160.675 20.6152C160.689 20.9517 160.716 21.3073 160.757 21.6822H159.339C159.35 21.6056 159.355 21.5098 159.355 21.4004C159.38 21.1869 159.401 20.7629 159.418 20.1227C159.45 19.0557 159.467 18.2842 159.467 17.8054V15.1188C159.467 13.956 159.456 13.1188 159.434 12.6045C159.41 11.8795 159.363 11.2557 159.303 10.7331H161.086L167.696 18.0709V15.0504L167.664 13.0806C167.647 12.1668 167.626 11.4746 167.596 10.9986C167.596 10.9302 167.585 10.8426 167.563 10.7331H169H169ZM83.7241 27.1622C83.7214 27.1895 83.7159 27.2388 83.7104 27.31C83.7023 27.3838 83.6968 27.4331 83.6914 27.4577C83.6914 27.5343 83.675 27.8188 83.6452 28.3113L83.5961 29.4795L83.5771 30.656L83.5961 32.7927C83.5961 34.2974 83.4437 35.3863 83.1389 36.0594C82.4422 37.5587 80.9998 38.3083 78.8091 38.3083C77.4592 38.3083 76.4006 38.0566 75.6277 37.5559C75.1051 37.2166 74.7296 36.7378 74.501 36.125C74.3649 35.7884 74.2697 35.4164 74.2125 35.0087C74.1553 34.6011 74.1254 34.0704 74.1254 33.4192L74.1418 31.6272V31.2825C74.1418 30.7572 74.1282 30.1006 74.101 29.3154C74.0765 28.5301 74.0439 27.9091 74.0112 27.4577L73.9785 27.1622H76.7081C76.7054 27.1896 76.7 27.2361 76.6945 27.3072C76.6863 27.3756 76.6809 27.4222 76.6755 27.444C76.6428 27.9146 76.6211 28.4344 76.6074 29.0007L76.5285 31.0199C76.5285 31.0828 76.5258 31.2469 76.5203 31.5178C76.5149 31.7887 76.5122 32.0266 76.5122 32.2345C76.5122 33.2496 76.5285 34.0868 76.5585 34.7434C76.6129 35.6298 76.8605 36.2864 77.3069 36.716C77.7504 37.1428 78.4172 37.3561 79.3017 37.3561C79.8977 37.3561 80.4175 37.233 80.8612 36.9896C81.3075 36.7461 81.6286 36.4014 81.8327 35.9582C81.9769 35.6134 82.0803 35.2249 82.1429 34.7953C82.2409 34.1251 82.29 33.2715 82.29 32.2345C82.29 30.3222 82.2301 28.7244 82.1103 27.444L82.0777 27.1622H83.7241L83.7241 27.1622ZM94.6792 27.1157V28.5739L94.4669 28.5411C93.4872 28.4316 92.698 28.3769 92.0993 28.3769C91.9578 28.3769 91.8107 28.3824 91.6584 28.3934V28.6068C91.6258 29.1677 91.6094 29.9666 91.6094 31.0008V34.0704C91.6094 33.9966 91.6203 34.6367 91.6421 35.9965C91.6666 36.8583 91.71 37.5642 91.7726 38.1114H89.0621C89.1111 37.7229 89.1519 37.0882 89.1764 36.2072L89.2254 34.1088V31.1814L89.1928 29.8025L89.1764 28.6425V28.3935C89.0893 28.3825 89.0131 28.3771 88.9451 28.3771H88.7518C88.1586 28.3771 87.3694 28.4318 86.3842 28.5412L86.1556 28.574V27.1158L86.4359 27.1323L87.4782 27.1788C88.2022 27.2226 89.1982 27.2444 90.4664 27.2444C91.1522 27.2444 92.0285 27.2334 93.0953 27.2116C93.8465 27.1788 94.3744 27.1486 94.6792 27.1158V27.1157ZM99.9982 27.1622C99.8892 28.3414 99.8349 29.6436 99.8349 31.069V34.1387C99.8349 34.4478 99.8567 35.3753 99.903 36.9293C99.9301 37.471 99.9601 37.865 99.9982 38.1112H97.2387L97.255 37.8157C97.353 36.6256 97.402 35.3507 97.402 33.991V30.9842C97.402 30.4233 97.3856 29.7092 97.353 28.8365C97.3285 28.0787 97.2876 27.5205 97.2387 27.1621H99.9982L99.9982 27.1622ZM106.123 27.1622C106.101 27.3811 106.09 27.4851 106.09 27.4741C106.068 27.8051 106.052 28.2429 106.038 28.7846L106.006 31.4138V34.4314C106.006 35.5176 106.011 36.2563 106.022 36.6475L106.038 36.9621H106.349C106.692 36.9621 107.165 36.9457 107.772 36.9128C108.553 36.8582 109.176 36.7952 109.647 36.7159V38.1276H109.369L107.998 38.0948C106.705 38.062 105.932 38.0455 105.679 38.0455C105.464 38.0455 104.844 38.0674 103.818 38.1112L103.442 38.1276C103.488 37.7309 103.529 37.1318 103.559 36.3246C103.589 35.5175 103.605 34.7844 103.605 34.125V31.5094C103.605 30.2482 103.562 28.8885 103.475 27.4275L103.442 27.162H106.123L106.123 27.1622ZM114.822 27.1622C114.713 28.3414 114.658 29.6436 114.658 31.069V34.1387C114.658 34.4478 114.68 35.3753 114.727 36.9293C114.754 37.471 114.784 37.865 114.822 38.1112H112.062L112.079 37.8157C112.177 36.6256 112.226 35.3507 112.226 33.991V30.9842C112.226 30.4233 112.209 29.7092 112.177 28.8365C112.152 28.0787 112.111 27.5205 112.062 27.1621H114.822L114.822 27.1622ZM125.907 27.1157V28.5739L125.695 28.5411C124.715 28.4316 123.926 28.3769 123.328 28.3769C123.186 28.3769 123.039 28.3824 122.887 28.3934V28.6068C122.854 29.1677 122.838 29.9666 122.838 31.0008V34.0704C122.838 33.9966 122.848 34.6367 122.87 35.9965C122.895 36.8583 122.938 37.5642 123.001 38.1114H120.29C120.339 37.7229 120.38 37.0882 120.405 36.2072L120.454 34.1088V31.1814L120.421 29.8025L120.405 28.6425V28.3935C120.318 28.3825 120.241 28.3771 120.173 28.3771H119.98C119.387 28.3771 118.598 28.4318 117.612 28.5412L117.384 28.574V27.1158L117.664 27.1323L118.706 27.1788C119.43 27.2226 120.426 27.2444 121.695 27.2444C122.38 27.2444 123.257 27.2334 124.324 27.2116C125.075 27.1788 125.603 27.1486 125.907 27.1158V27.1157ZM136.566 27.1622C136.275 27.5534 135.899 28.1553 135.439 28.9706L134.557 30.5274L133.023 33.3344L133.039 35.7775C133.039 35.7611 133.05 36.1441 133.072 36.9294C133.093 37.4847 133.123 37.8787 133.153 38.1112H130.475C130.475 38.0648 130.478 38.0155 130.483 37.958C130.489 37.9033 130.492 37.865 130.492 37.8458C130.513 37.7091 130.535 37.3808 130.554 36.8636C130.59 36.404 130.606 36.0812 130.606 35.8951V33.5614L127.03 27.1622H130.002C130.092 27.3838 130.288 27.8051 130.59 28.4234C131.09 29.4659 131.531 30.3331 131.91 31.0225L132.353 31.8406L132.484 32.0869L133.366 30.3796C133.591 29.9556 133.861 29.3948 134.171 28.6971C134.481 27.9995 134.691 27.4878 134.8 27.1622H136.566L136.566 27.1622ZM79.7426 44.1029L79.2037 45.8893H79.0106C78.8472 45.4078 78.5751 45.0303 78.1941 44.7567C77.813 44.4831 77.3695 44.3463 76.8687 44.3463C76.4033 44.3463 76.025 44.4749 75.7366 44.732C75.4454 44.9865 75.3011 45.3258 75.3011 45.7443C75.3011 46.0672 75.3936 46.3462 75.576 46.5787C75.7501 46.8085 75.9461 46.9946 76.1639 47.1396C76.3843 47.2846 76.8632 47.539 77.6007 47.9084C78.0416 48.1245 78.4553 48.3653 78.8445 48.6307C79.7806 49.2873 80.2488 50.1573 80.2488 51.2435C80.2488 52.1435 79.9603 52.9096 79.3833 53.5388C78.6486 54.3268 77.5736 54.7207 76.1666 54.7207C75.0861 54.7207 74.15 54.4745 73.3553 53.9848L73.8779 51.7851H74.1092C74.3895 53.0737 75.1706 53.7194 76.4442 53.7194C76.9803 53.7194 77.4103 53.5771 77.7369 53.2953C78.0608 53.0136 78.224 52.6415 78.224 52.1763C78.224 51.7467 78.088 51.3857 77.8158 51.0957C77.5437 50.8056 77.0184 50.4663 76.2455 50.0779C75.7965 49.8508 75.3665 49.61 74.9583 49.3556C73.9133 48.7182 73.3907 47.8317 73.3907 46.6936C73.3907 46.0589 73.5459 45.4816 73.8588 44.9672C74.1717 44.4502 74.6072 44.048 75.1624 43.7525C75.7203 43.4598 76.3435 43.312 77.0321 43.312C77.9709 43.312 78.8772 43.5746 79.7426 44.1027V44.1029ZM88.7382 43.345C89.6417 43.345 90.4581 43.4736 91.193 43.7281C91.925 43.9825 92.5428 44.3518 93.0463 44.8306C93.547 45.3095 93.9334 45.8949 94.2001 46.5843C94.4669 47.2738 94.6003 48.0535 94.6003 48.9263C94.6003 49.8373 94.4614 50.6526 94.1811 51.3722C93.9008 52.0917 93.4926 52.7018 92.9564 53.1998C92.4203 53.6977 91.7618 54.078 90.978 54.3434C90.1969 54.6061 89.3179 54.7374 88.3463 54.7374C87.4238 54.7374 86.5992 54.6143 85.8725 54.368C85.1459 54.1218 84.5281 53.7579 84.0137 53.2791C83.5021 52.7976 83.113 52.2149 82.8489 51.5309C82.585 50.847 82.4517 50.0727 82.4517 49.2054C82.4517 48.3135 82.5958 47.5037 82.8844 46.7732C83.1729 46.0455 83.5892 45.4272 84.1362 44.9155C84.6805 44.4067 85.3445 44.0155 86.1229 43.7474C86.9012 43.4793 87.7722 43.3451 88.7382 43.3451L88.7382 43.345ZM88.5423 44.2807C88.0061 44.2807 87.5244 44.3902 87.0971 44.6063C86.6672 44.8252 86.2998 45.137 85.995 45.5447C85.6902 45.9524 85.4562 46.4448 85.2929 47.0221C85.1296 47.5994 85.0479 48.2396 85.0479 48.9427C85.0479 49.7088 85.1242 50.3928 85.2765 51.0001C85.4262 51.6047 85.6521 52.1191 85.9487 52.5432C86.2481 52.97 86.61 53.2901 87.0373 53.5089C87.4672 53.7251 87.9517 53.8345 88.4933 53.8345C89.2199 53.8345 89.8459 53.6457 90.3738 53.2655C90.9018 52.8852 91.3073 52.3408 91.5849 51.6267C91.8652 50.9126 92.004 50.0672 92.004 49.0905C92.004 48.3354 91.9251 47.6624 91.7672 47.0687C91.6094 46.4722 91.3807 45.9688 91.0814 45.5558C90.7848 45.1399 90.4228 44.8253 89.9928 44.6064C89.5655 44.3903 89.0811 44.2808 88.5423 44.2808V44.2807ZM100.053 43.5913C100.031 43.8102 100.02 43.9142 100.02 43.9032C99.9981 44.2342 99.9817 44.672 99.9681 45.2137L99.9355 47.8429V50.8605C99.9355 51.9467 99.9409 52.6854 99.9519 53.0766L99.9682 53.3912H100.278C100.621 53.3912 101.095 53.3748 101.702 53.3419C102.483 53.2873 103.106 53.2243 103.577 53.145V54.5567H103.299L101.928 54.5239C100.635 54.491 99.862 54.4746 99.6089 54.4746C99.3939 54.4746 98.7734 54.4965 97.7475 54.5403L97.3719 54.5567C97.4182 54.16 97.459 53.5609 97.4889 52.7537C97.5189 51.9466 97.5352 51.2135 97.5352 50.5541V47.9385C97.5352 46.6772 97.4916 45.3176 97.4046 43.8565L97.3719 43.5911H100.053L100.053 43.5913ZM115.705 43.5913C115.702 43.6186 115.697 43.6679 115.691 43.7391C115.683 43.8129 115.678 43.8621 115.672 43.8868C115.672 43.9634 115.656 44.2479 115.626 44.7404L115.577 45.9086L115.558 47.0851L115.577 49.2218C115.577 50.7265 115.424 51.8154 115.12 52.4885C114.423 53.9878 112.981 54.7374 110.79 54.7374C109.44 54.7374 108.381 54.4857 107.609 53.985C107.086 53.6457 106.71 53.1669 106.482 52.5541C106.346 52.2175 106.25 51.8455 106.193 51.4378C106.136 51.0302 106.106 50.4995 106.106 49.8483L106.123 48.0563V47.7116C106.123 47.1863 106.109 46.5297 106.082 45.7445C106.057 44.9592 106.025 44.3382 105.992 43.8868L105.959 43.5913H108.689C108.686 43.6187 108.681 43.6652 108.675 43.7363C108.667 43.8047 108.662 43.8513 108.656 43.8731C108.624 44.3437 108.602 44.8635 108.588 45.4298L108.509 47.449C108.509 47.5119 108.507 47.676 108.501 47.9469C108.496 48.2178 108.493 48.4557 108.493 48.6636C108.493 49.6787 108.509 50.5158 108.539 51.1725C108.594 52.0589 108.841 52.7155 109.288 53.145C109.731 53.5719 110.398 53.7852 111.283 53.7852C111.879 53.7852 112.398 53.6621 112.842 53.4187C113.288 53.1752 113.609 52.8305 113.814 52.3872C113.958 52.0425 114.061 51.654 114.124 51.2244C114.222 50.5541 114.271 49.7006 114.271 48.6636C114.271 46.7513 114.211 45.1535 114.091 43.8731L114.058 43.5913H115.705L115.705 43.5913ZM126.66 43.5448V45.003L126.448 44.9702C125.468 44.8607 124.679 44.806 124.08 44.806C123.939 44.806 123.792 44.8115 123.639 44.8225V45.0359C123.607 45.5967 123.59 46.3957 123.59 47.4298V50.4995C123.59 50.4257 123.601 51.0658 123.623 52.4256C123.647 53.2874 123.691 53.9933 123.753 54.5405H121.043C121.092 54.152 121.133 53.5173 121.157 52.6363L121.206 50.5379V47.6105L121.174 46.2316L121.157 45.0716V44.8226C121.07 44.8116 120.994 44.8062 120.926 44.8062H120.733C120.139 44.8062 119.35 44.8609 118.365 44.9703L118.136 45.0031V43.5449L118.417 43.5614L119.459 43.6078C120.183 43.6517 121.179 43.6735 122.447 43.6735C123.133 43.6735 124.009 43.6625 125.076 43.6407C125.827 43.6078 126.355 43.5777 126.66 43.5449V43.5448ZM131.979 43.5913C131.87 44.7705 131.816 46.0727 131.816 47.4981V50.5678C131.816 50.8769 131.837 51.8044 131.884 53.3584C131.911 53.9001 131.941 54.2941 131.979 54.5403H129.219L129.236 54.2448C129.334 53.0547 129.383 51.7798 129.383 50.4201V47.4133C129.383 46.8524 129.366 46.1383 129.334 45.2656C129.309 44.5078 129.268 43.9496 129.219 43.5912H131.979L131.979 43.5913ZM141.056 43.345C141.96 43.345 142.776 43.4736 143.511 43.7281C144.243 43.9825 144.861 44.3518 145.364 44.8306C145.865 45.3095 146.252 45.8949 146.518 46.5843C146.785 47.2738 146.918 48.0535 146.918 48.9263C146.918 49.8373 146.78 50.6526 146.499 51.3722C146.219 52.0917 145.811 52.7018 145.275 53.1998C144.738 53.6977 144.08 54.078 143.296 54.3434C142.515 54.6061 141.636 54.7374 140.664 54.7374C139.742 54.7374 138.917 54.6143 138.191 54.368C137.464 54.1218 136.846 53.7579 136.332 53.2791C135.82 52.7976 135.431 52.2149 135.167 51.5309C134.903 50.847 134.77 50.0727 134.77 49.2054C134.77 48.3135 134.914 47.5037 135.202 46.7732C135.491 46.0455 135.907 45.4272 136.454 44.9155C136.999 44.4067 137.663 44.0155 138.441 43.7474C139.219 43.4793 140.09 43.3451 141.056 43.3451L141.056 43.345ZM140.86 44.2807C140.324 44.2807 139.842 44.3902 139.415 44.6063C138.985 44.8252 138.618 45.137 138.313 45.5447C138.008 45.9524 137.774 46.4448 137.611 47.0221C137.448 47.5994 137.366 48.2396 137.366 48.9427C137.366 49.7088 137.442 50.3928 137.595 51.0001C137.744 51.6047 137.97 52.1191 138.267 52.5432C138.566 52.97 138.928 53.2901 139.355 53.5089C139.785 53.7251 140.27 53.8345 140.811 53.8345C141.538 53.8345 142.164 53.6457 142.692 53.2655C143.22 52.8852 143.625 52.3408 143.903 51.6267C144.183 50.9126 144.322 50.0672 144.322 49.0905C144.322 48.3354 144.243 47.6624 144.085 47.0687C143.927 46.4722 143.699 45.9688 143.399 45.5558C143.103 45.1399 142.741 44.8253 142.311 44.6064C141.884 44.3903 141.399 44.2808 140.86 44.2808V44.2807ZM159.272 43.5913C159.25 43.7664 159.24 43.8675 159.24 43.8867C159.218 44.1302 159.196 44.5898 159.177 45.2656C159.144 46.0372 159.128 46.6199 159.128 47.0221V51.4051C159.128 51.5391 159.144 52.0097 159.177 52.8167C159.191 53.4214 159.212 53.9138 159.24 54.2969C159.24 54.3133 159.242 54.3516 159.248 54.4035C159.253 54.4582 159.256 54.502 159.256 54.5403H157.822C157.748 54.4528 157.694 54.3817 157.658 54.3269C157.492 54.1354 157.335 53.9521 157.182 53.7743C157.027 53.5992 156.856 53.4049 156.66 53.1943C155.971 52.4008 155.59 51.9686 155.517 51.9001L150.915 46.8743L150.898 52.4555C150.898 52.6579 150.915 52.9972 150.947 53.4733C150.961 53.8098 150.988 54.1654 151.029 54.5403H149.611C149.622 54.4637 149.627 54.368 149.627 54.2585C149.652 54.045 149.674 53.621 149.69 52.9809C149.723 51.9138 149.739 51.1424 149.739 50.6635V47.9769C149.739 46.8141 149.728 45.9769 149.706 45.4626C149.682 44.7376 149.636 44.1138 149.576 43.5913H151.358L157.969 50.929V47.9086L157.936 45.9387C157.92 45.0249 157.898 44.3327 157.868 43.8567C157.868 43.7883 157.857 43.7008 157.835 43.5913H159.272H159.272ZM168.333 44.1029L167.794 45.8894H167.601C167.438 45.4079 167.166 45.0304 166.785 44.7568C166.404 44.4832 165.96 44.3464 165.459 44.3464C164.994 44.3464 164.616 44.475 164.327 44.7321C164.036 44.9865 163.892 45.3258 163.892 45.7444C163.892 46.0673 163.984 46.3463 164.167 46.5788C164.341 46.8086 164.537 46.9947 164.754 47.1397C164.975 47.2846 165.454 47.5391 166.191 47.9085C166.632 48.1246 167.046 48.3653 167.435 48.6308C168.371 49.2874 168.839 50.1574 168.839 51.2435C168.839 52.1436 168.551 52.9097 167.974 53.5389C167.239 54.3269 166.164 54.7208 164.757 54.7208C163.677 54.7208 162.741 54.4745 161.946 53.9848L162.468 51.7852H162.7C162.98 53.0738 163.761 53.7195 165.035 53.7195C165.571 53.7195 166.001 53.5771 166.327 53.2954C166.651 53.0136 166.815 52.6416 166.815 52.1764C166.815 51.7468 166.679 51.3857 166.406 51.0957C166.134 50.8056 165.609 50.4664 164.836 50.078C164.387 49.8509 163.957 49.6101 163.549 49.3557C162.504 48.7182 161.981 47.8318 161.981 46.6936C161.981 46.0589 162.136 45.4816 162.449 44.9673C162.762 44.4502 163.198 44.048 163.753 43.7526C164.311 43.4598 164.934 43.3121 165.623 43.3121C166.561 43.3121 167.468 43.5747 168.333 44.1027V44.1029Z" fill="#17335D"/>
<path fill-rule="evenodd" clip-rule="evenodd" d="M17.1908 60.3365C7.0418 55.464 0 45.0404 0 33.0146C0 18.6391 10.0612 6.55225 23.4661 3.50271L23.4713 3.48517C25.7784 3.44482 27.7846 3.27496 28.5633 0C28.9793 0.675665 30.2225 1.57102 28.3155 3.30876C28.7747 3.85061 29.4715 4.45364 29.8711 5.1291C30.2707 4.45357 30.9675 3.85061 31.4267 3.30876C29.5197 1.57102 30.763 0.675665 31.1789 0C31.9576 3.27496 33.9638 3.44482 36.2709 3.48517L36.2761 3.50271C49.681 6.55225 59.7423 18.6391 59.7423 33.0146C59.7423 45.0403 52.7005 55.464 42.5515 60.3365L42.5483 60.394C42.3076 60.4256 41.9145 60.4765 41.8489 60.4807C41.7924 60.3117 41.7535 60.1978 41.7311 60.1393L41.7205 60.1119C41.6396 59.9085 41.5361 59.7316 41.41 59.5533L41.2227 59.3409L41.0161 59.1653L40.7928 59.0249L40.5549 58.9187L40.3049 58.8456L40.0457 58.8054L39.7799 58.7979C39.6417 58.8064 39.5133 58.8224 39.3772 58.8472C39.2397 58.8806 39.1125 58.9194 38.9798 58.9683L38.7241 59.088C38.5967 59.1615 38.481 59.2373 38.363 59.3246C38.2228 59.4412 38.0978 59.5587 37.98 59.6978C37.9198 59.7768 37.8665 59.8554 37.8144 59.9403C37.7275 60.0987 37.6615 60.2519 37.6048 60.4234C37.5653 60.565 37.5373 60.6998 37.5184 60.8457C37.5101 60.9529 37.5074 61.0548 37.5106 61.1624C37.52 61.2668 37.5345 61.3633 37.5567 61.4657C37.585 61.5643 37.6172 61.6521 37.6597 61.7457L37.7619 61.9166C37.8277 62.0022 37.8927 62.0728 37.9716 62.1468L38.155 62.2811C38.2732 62.3486 38.3999 62.4186 38.5323 62.4541C38.8578 62.5188 39.1799 62.3796 39.3823 62.1244C39.5033 61.9516 39.5545 61.7605 39.5162 61.5517C39.4465 61.2746 39.233 61.0566 38.9451 61.0096C38.6434 60.9824 38.1872 61.1586 38.0168 61.4007L38.1437 60.7049C38.1899 60.5376 38.257 60.3932 38.3487 60.2458C38.4261 60.1329 38.506 60.0396 38.6059 59.9457C38.6755 59.8876 38.7431 59.839 38.8199 59.7908C38.9068 59.7445 38.9883 59.709 39.081 59.676C39.1845 59.6481 39.2789 59.6307 39.3853 59.6189C39.5026 59.6149 39.6089 59.6195 39.7254 59.6322C39.8538 59.655 39.9714 59.6845 40.0961 59.723L40.3699 59.8336L40.5131 59.9175L40.6428 60.0103L40.7626 60.1131L40.8722 60.225L40.9715 60.3448L41.0607 60.4717L41.2083 60.7433L41.3158 61.0337L41.3831 61.3369L41.4107 61.6478L41.3984 61.9615L41.3448 62.2727L41.2496 62.5763L41.111 62.8668L41.0249 63.005L40.9276 63.1373L40.819 63.2632L40.699 63.3811L40.5676 63.4906L40.425 63.5905L40.2715 63.6801L40.1073 63.7585L39.9325 63.8247C39.8134 63.8592 39.6976 63.8999 39.5789 63.9355C39.4636 63.9622 39.3543 63.9807 39.2368 63.9939C39.1137 64.001 38.9964 64.0017 38.8734 63.9967C38.7456 63.9855 38.6235 63.9689 38.4973 63.9459C38.3674 63.9163 38.2437 63.8824 38.117 63.8415C37.9879 63.7936 37.8658 63.7415 37.7416 63.6821C37.6164 63.615 37.4998 63.5448 37.3815 63.4661L37.1553 63.2898C37.0446 63.1887 36.9449 63.0878 36.8456 62.9757L36.6643 62.7328C36.3886 62.289 36.2446 61.8155 36.1805 61.3012C35.7721 61.5357 35.3265 61.673 34.8615 61.7422C34.6811 61.7659 34.5013 61.7788 34.3199 61.7892C34.0531 61.7958 33.7969 61.789 33.5313 61.7669C33.3382 61.7436 33.1517 61.7138 32.9611 61.6755L32.5932 61.5783C32.412 61.518 32.2395 61.4523 32.0641 61.3765L31.7283 61.2046L31.4077 61.0021L31.1042 60.7692L30.8189 60.5059L30.5534 60.2123L30.3089 59.8887C30.0137 59.4406 29.9358 59.2035 29.8709 59.1767C29.8061 59.2035 29.7281 59.4407 29.4329 59.8887L29.1885 60.2123L28.9229 60.5059L28.6376 60.7692L28.3341 61.0021L28.0136 61.2046L27.6777 61.3765C27.5023 61.4523 27.3298 61.518 27.1486 61.5783L26.7808 61.6755C26.5902 61.7138 26.4037 61.7436 26.2105 61.7669C25.9449 61.789 25.6887 61.7958 25.4219 61.7892C25.2405 61.7788 25.0608 61.7658 24.8804 61.7422C24.4153 61.673 23.9698 61.5357 23.5613 61.3012C23.4972 61.8155 23.3533 62.289 23.0775 62.7328L22.8962 62.9757C22.797 63.0878 22.6972 63.1888 22.5865 63.2898L22.3603 63.4661C22.2421 63.5448 22.1255 63.615 22.0002 63.6821C21.876 63.7415 21.754 63.7936 21.6249 63.8415C21.4982 63.8824 21.3744 63.9163 21.2445 63.9459C21.1184 63.9689 20.9962 63.9855 20.8684 63.9967C20.7455 64.0017 20.6282 64.001 20.505 63.9939C20.3876 63.9807 20.2782 63.9622 20.1629 63.9355C20.0444 63.8999 19.9285 63.8592 19.8093 63.8247L19.6345 63.7585L19.4703 63.6801L19.3168 63.5905L19.1742 63.4906L19.0428 63.3811L18.9228 63.2632L18.8142 63.1373L18.7169 63.005L18.6309 62.8668L18.4922 62.5763L18.397 62.2727L18.3434 61.9615L18.3311 61.6478L18.3587 61.3369L18.4261 61.0337L18.5335 60.7433L18.6811 60.4717L18.7703 60.3448L18.8697 60.225L18.9793 60.1131L19.099 60.0103L19.2287 59.9175L19.3719 59.8336L19.6457 59.723C19.7704 59.6845 19.888 59.655 20.0165 59.6322C20.133 59.6195 20.2393 59.6149 20.3565 59.6189C20.4629 59.6307 20.5574 59.6481 20.6608 59.676C20.7536 59.709 20.835 59.7445 20.922 59.7908C20.9986 59.8389 21.0664 59.8876 21.1359 59.9457C21.2358 60.0396 21.3157 60.1329 21.3931 60.2458C21.4848 60.3932 21.552 60.5376 21.5981 60.7049L21.7251 61.4007C21.5547 61.1586 21.0984 60.9824 20.7967 61.0096C20.5088 61.0566 20.2954 61.2747 20.2256 61.5517C20.1874 61.7605 20.2386 61.9516 20.3595 62.1244C20.562 62.3795 20.8841 62.5188 21.2096 62.4541C21.3419 62.4187 21.4687 62.3486 21.5868 62.2811L21.7701 62.1468C21.8492 62.0728 21.9141 62.0022 21.9798 61.9166L22.0821 61.7457C22.1246 61.6521 22.1568 61.5643 22.1851 61.4657C22.2073 61.3633 22.2218 61.2668 22.2312 61.1624C22.2345 61.0548 22.2318 60.9529 22.2234 60.8457C22.2046 60.6998 22.1766 60.565 22.1371 60.4234C22.0803 60.2519 22.0143 60.0987 21.9274 59.9403C21.8753 59.8554 21.8221 59.7768 21.7619 59.6978C21.644 59.5587 21.519 59.4412 21.3788 59.3246C21.2608 59.2373 21.1452 59.1615 21.0178 59.088L20.762 58.9683C20.6293 58.9195 20.5021 58.8807 20.3647 58.8472C20.2285 58.8224 20.1 58.8065 19.9619 58.7979L19.6962 58.8054L19.4369 58.8456L19.187 58.9187L18.9491 59.0249L18.7257 59.1653L18.5191 59.3409L18.3318 59.5533C18.2058 59.7315 18.1024 59.9085 18.0214 60.1119L18.0107 60.1393C17.9884 60.1978 17.9494 60.3117 17.8929 60.4807C17.8273 60.4765 17.4343 60.4256 17.1936 60.394L17.1904 60.3365H17.1908ZM29.8711 12.3715C29.0297 11.8292 28.6321 11.1282 28.9446 10.1828C27.7024 10.2843 27.7065 9.64841 27.9932 9.1013C25.1465 9.48143 24.5003 6.22776 26.5144 5.54179C26.009 8.66171 29.5284 7.45532 28.8158 5.71547C27.3438 2.92467 23.0796 4.87029 23.0693 4.87008C10.5514 8.04196 1.22841 19.4691 1.22841 33.0147C1.22841 44.3281 7.72654 54.1626 17.161 58.9456L17.3302 58.7347L17.5323 58.5228L17.7475 58.3331L17.9741 58.1654L18.2104 58.0194L18.455 57.8952L18.7064 57.7917L18.9629 57.7093L19.2231 57.6472L19.4857 57.6052L19.7494 57.5831L20.0126 57.5801L20.2743 57.596L20.533 57.6308L20.7876 57.6838L21.0367 57.7551L21.279 57.8443L21.5131 57.9512L21.7378 58.0758L21.9517 58.2178L22.153 58.3769L22.3403 58.5534L22.4714 58.7006C22.7425 58.0668 23.1333 57.8432 23.5764 57.8051C23.4546 58.308 23.4013 58.4616 23.567 58.9543C23.614 59.0575 23.664 59.1493 23.724 59.2454C23.7919 59.3404 23.8611 59.4255 23.9394 59.5119C24.0252 59.5966 24.1107 59.6727 24.2048 59.748C24.3047 59.8202 24.4036 59.8848 24.5097 59.9474C24.6198 60.0053 24.7282 60.056 24.843 60.1036C24.9594 60.1458 25.0729 60.1811 25.1926 60.2125C25.3111 60.2373 25.4255 60.2558 25.5458 60.2689C25.6629 60.2757 25.7737 60.2764 25.8904 60.2705C26.0973 60.2482 26.2937 60.2055 26.4958 60.1566L26.7275 60.0841L26.9485 59.9983L27.1588 59.9L27.3586 59.7899L27.5473 59.6689L27.7253 59.5378L27.8923 59.3974L28.048 59.2481L28.1921 59.0914L28.3248 58.9274L28.4458 58.7574L28.5546 58.5819L28.6515 58.402L28.7356 58.2185L28.8074 58.0322L28.8666 57.844L28.9128 57.6547L28.9459 57.4654L28.9659 57.2769L28.9728 57.0899L28.9666 56.9053L28.9469 56.7237L28.914 56.5463L28.8674 56.3735L28.8076 56.2059L28.7341 56.0442L28.6467 55.8889L28.5453 55.7404L28.4294 55.5993L28.2956 55.4629C28.1802 55.3583 28.0632 55.2632 27.9367 55.1725C27.789 55.0735 27.6432 54.9908 27.4808 54.9186C27.2995 54.846 27.1291 54.7993 26.9355 54.7748C26.8558 54.7684 26.7794 54.766 26.6995 54.7671C26.4679 54.7821 26.2727 54.8321 26.0593 54.9237L25.8954 55.0081L25.6751 55.1565L25.5518 55.2594L25.4462 55.3633L25.3575 55.4672L25.2259 55.6726L25.1473 55.8721L25.1139 56.0637L25.1197 56.2461C25.1363 56.3367 25.1575 56.411 25.1913 56.4966L25.275 56.6426C25.328 56.7102 25.3778 56.7627 25.4428 56.8185C25.5099 56.8654 25.5686 56.8981 25.644 56.9297C25.7211 56.9525 25.784 56.9633 25.8642 56.9677L26.0199 56.948L26.1014 56.9223C26.2198 56.8694 26.3527 56.8018 26.4326 56.6939C26.5538 56.5168 26.5944 56.2894 26.5783 56.0781L26.4735 55.3424L27.1677 55.8136L27.3035 55.9239L27.4253 56.0421L27.5327 56.1677L27.6254 56.2995L27.7033 56.4365L27.7667 56.5781L27.8156 56.7229L27.8501 56.8699L27.871 57.0178L27.8785 57.166L27.873 57.3137L27.8552 57.4599L27.8258 57.6038L27.7338 57.8833L27.6004 58.147L27.429 58.3909L27.2223 58.6102L26.9829 58.8004L26.7134 58.9558L26.5683 59.0188L26.4167 59.071L26.2593 59.1117L26.0965 59.1401L25.9289 59.1557L25.7594 59.1577L25.5224 59.1363C25.4033 59.1121 25.2963 59.0823 25.1816 59.0417L24.9689 58.9423C24.8653 58.8816 24.7714 58.8189 24.6754 58.7468C24.5831 58.6692 24.4992 58.5909 24.4153 58.5041C24.335 58.4126 24.2626 58.3213 24.1915 58.2223C24.1244 58.1192 24.0649 58.0174 24.0076 57.9086C23.9092 57.6983 23.8337 57.4921 23.7874 57.2637C23.7073 57.3272 23.6215 57.3888 23.5325 57.4389L23.5323 57.4412L23.2718 57.5789L23.2822 57.5663C23.1509 57.6235 23.0204 57.6631 22.8815 57.6976L22.6451 57.7332L22.4056 57.736L22.1667 57.7008L21.9339 57.6221L21.8225 57.5649L21.7158 57.4955L21.615 57.4136L21.5215 57.3197L21.4363 57.2139L21.3598 57.0968L21.1245 56.6463C21.4091 56.5744 21.6885 56.5086 21.9653 56.412C22.1675 56.3357 22.3564 56.2492 22.5449 56.143C22.7224 56.0366 22.8831 55.9216 23.0411 55.7874C23.2692 55.5825 23.4577 55.3629 23.6328 55.1109C23.6903 55.024 23.7447 54.9365 23.7984 54.8472C24.1207 54.43 24.4774 54.0663 24.9055 53.7586C25.0911 53.6317 25.2779 53.5218 25.4792 53.4225C25.7162 53.3131 25.9503 53.2295 26.203 53.1646C26.3221 53.1375 26.439 53.1168 26.5603 53.0999C26.6939 53.0874 26.823 53.0814 26.9571 53.0809C27.0913 53.0863 27.2204 53.0974 27.3534 53.1143C27.4857 53.1367 27.6129 53.1639 27.7429 53.1973C28.0908 53.3021 28.4265 53.4459 28.7222 53.6611C28.6941 53.5197 28.6764 53.381 28.6659 53.237C28.6571 53.0026 28.6726 52.783 28.7116 52.5514C28.7413 52.3955 28.778 52.2443 28.8227 52.0917L29.2034 51.1992C29.443 50.6236 29.7046 50.0869 29.8712 49.6103C30.0378 50.0869 30.2994 50.6236 30.539 51.1992L30.9196 52.0917C30.9644 52.2442 31.0011 52.3955 31.0308 52.5515C31.0698 52.783 31.0852 53.0026 31.0765 53.237C31.066 53.381 31.0483 53.5197 31.0202 53.6611C31.3159 53.4459 31.6516 53.3021 31.9995 53.1973C32.1295 53.1639 32.2567 53.1368 32.389 53.1143C32.5221 53.0973 32.6511 53.0863 32.7852 53.0809C32.9195 53.0814 33.0486 53.0874 33.1821 53.0999C33.3033 53.1168 33.4203 53.1375 33.5394 53.1646C33.7921 53.2295 34.0262 53.3131 34.2631 53.4225C34.4644 53.5217 34.6513 53.6317 34.8368 53.7586C35.265 54.0663 35.6216 54.43 35.944 54.8472C35.9975 54.9366 36.052 55.024 36.1095 55.1109C36.2847 55.3629 36.4732 55.5824 36.7013 55.7874C36.8592 55.9216 37.0199 56.0365 37.1975 56.143C37.3859 56.2492 37.5749 56.3358 37.7771 56.412C38.0539 56.5086 38.3332 56.5744 38.6179 56.6463L38.3825 57.0968L38.3061 57.2139L38.2209 57.3197L38.1274 57.4136L38.0266 57.4955L37.9198 57.5649L37.8084 57.6221L37.5757 57.7008L37.3368 57.736L37.0972 57.7332L36.8609 57.6976C36.722 57.6631 36.5915 57.6235 36.4601 57.5663L36.4706 57.5789L36.21 57.4412L36.2099 57.4389C36.1208 57.3888 36.0351 57.3272 35.9549 57.2637C35.9087 57.4921 35.8332 57.6983 35.7348 57.9086C35.6775 58.0174 35.618 58.1192 35.5509 58.2223C35.4798 58.3213 35.4075 58.4126 35.3271 58.5041C35.2432 58.5909 35.1593 58.6692 35.067 58.7468C34.971 58.8189 34.8771 58.8816 34.7734 58.9423L34.5608 59.0417C34.4461 59.0823 34.3392 59.1121 34.2199 59.1363L33.983 59.1577L33.8135 59.1557L33.6459 59.1401L33.4831 59.1117L33.3257 59.071L33.1741 59.0188L33.0289 58.9558L32.7595 58.8004L32.5201 58.6102L32.3134 58.3909L32.142 58.147L32.0085 57.8833L31.9165 57.6038L31.8872 57.4599L31.8694 57.3137L31.8639 57.166L31.8713 57.0178L31.8923 56.8699L31.9268 56.7229L31.9756 56.5781L32.0391 56.4365L32.117 56.2995L32.2097 56.1677L32.3171 56.0421L32.4388 55.9239L32.5747 55.8136L33.2689 55.3424L33.164 56.0781C33.148 56.2894 33.1886 56.5167 33.3099 56.6939C33.3897 56.8019 33.5227 56.8694 33.641 56.9223L33.7225 56.948L33.8783 56.9677C33.9584 56.9633 34.0213 56.9525 34.0985 56.9297C34.1739 56.8981 34.2326 56.8654 34.2997 56.8185C34.3647 56.7627 34.4144 56.7102 34.4674 56.6426L34.5512 56.4966C34.585 56.411 34.6062 56.3366 34.6228 56.2461L34.6285 56.0637L34.5951 55.8721L34.5166 55.6726L34.3849 55.4672L34.2962 55.3633L34.1907 55.2594L34.0673 55.1565L33.847 55.0081L33.6831 54.9237C33.4698 54.8321 33.2746 54.7821 33.0429 54.7671C32.9631 54.766 32.8867 54.7684 32.807 54.7748C32.6134 54.7993 32.4429 54.846 32.2616 54.9186C32.0992 54.9908 31.9533 55.0735 31.8057 55.1725C31.6792 55.2632 31.5622 55.3583 31.4468 55.4629L31.313 55.5993L31.1971 55.7404L31.0957 55.8889L31.0083 56.0442L30.9349 56.2059L30.875 56.3735L30.8285 56.5463L30.7956 56.7237L30.7759 56.9053L30.7696 57.0899L30.7765 57.2769L30.7965 57.4654L30.8297 57.6547L30.8759 57.844L30.935 58.0322L31.0068 58.2185L31.091 58.402L31.1878 58.5819L31.2966 58.7574L31.4177 58.9274L31.5503 59.0914L31.6945 59.2481L31.8502 59.3974L32.0171 59.5378L32.1951 59.6689L32.3839 59.7899L32.5836 59.9L32.794 59.9983L33.0149 60.0841L33.2466 60.1566C33.4487 60.2056 33.6453 60.2482 33.8521 60.2705C33.9687 60.2764 34.0796 60.2757 34.1966 60.2689C34.317 60.2558 34.4313 60.2373 34.5498 60.2125C34.6694 60.1811 34.783 60.1458 34.8995 60.1036C35.0143 60.056 35.1226 60.0053 35.2327 59.9474C35.3389 59.8848 35.4377 59.8202 35.5376 59.748C35.6317 59.6726 35.7173 59.5966 35.803 59.5119C35.8813 59.4255 35.9505 59.3404 36.0184 59.2454C36.0785 59.1493 36.1284 59.0575 36.1754 58.9543C36.3411 58.4616 36.2878 58.308 36.1661 57.8051C36.609 57.8433 36.9999 58.0668 37.271 58.7006L37.4022 58.5534L37.5895 58.3769L37.7908 58.2178L38.0047 58.0758L38.2293 57.9512L38.4635 57.8443L38.7057 57.7551L38.9548 57.6838L39.2094 57.6308L39.4682 57.596L39.7298 57.5801L39.993 57.5831L40.2567 57.6052L40.5193 57.6472L40.7796 57.7093L41.0361 57.7917L41.2875 57.8952L41.532 58.0194L41.7683 58.1654L41.9949 58.3331L42.2101 58.5228L42.4122 58.7347L42.5815 58.9456C52.0159 54.1626 58.5141 44.3281 58.5141 33.0147C58.5141 19.4691 49.191 8.04196 36.6731 4.87008C36.6628 4.87029 32.3987 2.9246 30.9267 5.71547C30.2141 7.45532 33.7335 8.66171 33.228 5.54179C35.2421 6.22776 34.596 9.48149 31.7492 9.1013C32.036 9.64841 32.04 10.2843 30.7978 10.1828C31.1104 11.1282 30.7127 11.8292 29.8714 12.3715H29.8711Z" fill="#17335D"/>
<path d="M67.6212 8.91797H66.5481V55.013H67.6212V8.91797Z" fill="#B09778"/>
</g>
<defs>
<clipPath id="clip0_1102_140">
<rect width="169" height="64" fill="white"/>
</clipPath>
</defs>
</svg>
