<svg viewBox="333.81823663847246 144.044789688 178.61876944837343 161.91496320000002" version="1.1" xmlns:xlink="http://www.w3.org/1999/xlink" xmlns="http://www.w3.org/2000/svg" style="max-height: 500px" width="178.61876944837343" height="161.91496320000002">
<g>
<text font-family="KamenicaC" font-size="84.851" transform="matrix(1 0 -0 1 0 595.2756)" xml:space="preserve" fill="#21384a"><tspan x="229.7724 248.52448 282.8043 308.0899 320.81758 356.96409 391.58329 404.31095" y="-181.2226">JALINDI </tspan></text>
<path fill="#21384a" d="M426.977 211.0904C426.977 214.74 427.0623 217.9925 427.2321 220.8498 427.3877 223.7057 427.6837 226.1676 428.1225 228.2454 428.5471 230.3104 428.9706 232.0784 429.4094 233.5493 429.834 235.0057 430.4846 236.2088 431.3469 237.1552 432.2234 238.089 432.9873 238.8249 433.652 239.3617 434.3165 239.8989 435.2783 240.2955 436.5513 240.5214 437.8243 240.7623 438.8995 240.9041 439.7618 240.9602 440.638 241.0163 441.883 241.0444 443.5234 241.0444 445.2914 241.0444 446.6778 241.0021 447.6677 240.918 448.6575 240.8326 449.8169 240.6067 451.146 240.2101 452.4752 239.8286 453.4943 239.2483 454.2151 238.4717 454.9371 237.7074 455.6999 236.6042 456.52 235.1614 457.3261 233.7188 457.9345 231.9508 458.3452 229.8155 458.7406 227.6943 459.0799 225.0641 459.3351 221.9238 459.6029 218.7848 459.7305 215.1507 459.7305 211.0062 459.7305 197.2596 457.8364 187.9685 454.0453 183.1737L444.7556 175.1352 465.2855 172.1772 464.4947 167.764 432.7985 171.7296 443.5234 180.8116C441.6712 180.8116 440.2568 180.8408 439.295 180.9111 438.3193 180.9825 437.1457 181.2081 435.7451 181.5897 434.3457 181.9862 433.2986 182.5654 432.5919 183.3293 431.8841 184.1074 431.1071 185.2109 430.2575 186.6535 429.3952 188.0807 428.773 189.8768 428.3915 192.0413 427.9949 194.1908 427.6695 196.8503 427.3877 200.0035 427.1185 203.1718 426.977 206.862 426.977 211.0904ZM433.5103 211.0062C433.5103 207.089 433.5817 203.7651 433.7235 201.0495 433.8496 198.3209 434.1186 196.0288 434.486 194.1486 434.8548 192.2672 435.2641 190.8105 435.7029 189.7645 436.1559 188.7032 436.8064 187.9112 437.6546 187.3602 438.5169 186.808 439.3511 186.4545 440.1573 186.2989 440.9773 186.1432 442.0947 186.0732 443.4953 186.0732 444.8245 186.0732 445.8997 186.1574 446.7059 186.313 447.5262 186.4826 448.3463 186.8513 449.1524 187.4302 449.9725 188.0107 450.595 188.8588 451.048 189.9482 451.4854 191.0375 451.8822 192.5082 452.2496 194.3745 452.6028 196.242 452.8579 198.5187 452.9854 201.219 453.1258 203.9066 453.1972 207.1732 453.1972 211.0062 453.1972 213.9338 453.1691 216.5219 453.0977 218.7567 453.0274 221.0054 452.886 222.9851 452.6742 224.7109 452.4752 226.4355 452.2496 227.8922 452.0098 229.0949 451.7827 230.2965 451.4292 231.3145 450.9765 232.1487 450.5236 232.9702 450.0862 233.6207 449.6474 234.0862 449.2225 234.553 448.6433 234.9215 447.9075 235.1894 447.1869 235.4445 446.4788 235.6143 445.8144 235.6843 445.1638 235.7558 444.3015 235.7838 443.2555 235.7838 442.1523 235.7838 441.2324 235.7277 440.4966 235.6002 439.7618 235.4726 439.0118 235.2328 438.2631 234.8501 437.4989 234.4827 436.8906 233.9459 436.4376 233.2239 435.9722 232.5033 435.5473 231.5554 435.1226 230.3666 434.713 229.1791 434.4018 227.6943 434.19 225.9125 433.9911 224.1306 433.8215 222.0233 433.694 219.5909 433.5678 217.1582 433.5103 214.3012 433.5103 211.0062" transform="matrix(1,0,0,-1,0,595.2756)" data-index="0"></path>
<text font-family="KamenicaC" font-size="84.851" transform="matrix(1 0 -0 1 0 595.2756)" xml:space="preserve" fill="#21384a"><tspan x="462.3182" y="-181.2226">U</tspan></text>
<text font-family="KamenicaC" font-size="84.851" transform="matrix(1 0 -0 1 0 595.2756)" xml:space="preserve" fill="#21384a"><tspan x="497.1231" y="-181.2226">R</tspan></text>
<text font-family="KamenicaC" font-size="84.851" transform="matrix(1 0 -0 1 0 595.2756)" xml:space="preserve" fill="#21384a"><tspan x="530.7684" y="-181.2226">I</tspan></text>
<text font-family="KamenicaC" font-size="84.851" transform="matrix(1 0 -0 1 0 595.2756)" xml:space="preserve" fill="#21384a"><tspan x="543.4829" y="-181.2226">L</tspan></text>
<text font-family="KamenicaC" font-size="84.851" transform="matrix(1 0 -0 1 0 595.2756)" xml:space="preserve" fill="#21384a"><tspan x="568.7555" y="-181.2226">I</tspan></text>
<text font-family="KamenicaC" font-size="84.851" transform="matrix(1 0 -0 1 0 595.2756)" xml:space="preserve" fill="#21384a"><tspan x="581.4703" y="-181.2226">S</tspan></text>
<path fill="#21384a" d="M240.3334 154.3377 243.4995 158.7331H244.6444L241.1011 153.8583ZM240.3334 153.6364 241.0943 154.1245 245.0395 149.2809H243.8192ZM236.4925 154.1245 237.2536 153.6364 233.7678 149.2809H232.5475ZM232.9424 158.7331H234.0873L237.2536 154.3377 236.486 153.8583ZM236.3817 154.4108H241.2054V153.5389H236.3817ZM238.3254 158.7331H239.2617V149.2809H238.3254Z" transform="matrix(1,0,0,-1,0,595.2756)" data-index="1"></path>
<path fill="#21384a" d="M252.2013 158.7331H253.3306L256.8163 149.2809H255.7757L252.7648 157.7503 249.7561 149.2809H248.7155ZM250.3219 152.4472H255.2941V151.5753H250.3219Z" transform="matrix(1,0,0,-1,0,595.2756)" data-index="2"></path>
<path fill="#21384a" d="M260.1663 158.7331H261.218L264.1757 151.5487 263.7074 150.4902ZM265.0544 151.6927C264.8191 151.0739 264.5705 150.5812 264.3066 150.2172 264.0424 149.8533 263.7451 149.5894 263.4168 149.4275 263.0863 149.2654 262.698 149.1834 262.2518 149.1834H261.4133V150.0554H262.2518C262.5735 150.0554 262.8556 150.124 263.0974 150.2617 263.3391 150.4015 263.5611 150.6254 263.7607 150.9384 263.9605 151.2513 264.1555 151.6728 264.3466 152.2054L266.654 158.7331H267.7056Z" transform="matrix(1,0,0,-1,0,595.2756)" data-index="3"></path>
<path fill="#21384a" d="M274.1533 158.7331H275.2826L278.7684 149.2809H277.7278L274.7169 157.7503 271.7082 149.2809H270.6676ZM272.274 152.4472H277.2462V151.5753H272.274Z" transform="matrix(1,0,0,-1,0,595.2756)" data-index="4"></path>
<path fill="#21384a" d="M289.243 158.7331H290.1793V149.2809H289.243ZM283.483 158.7331H284.4193V149.2809H283.483ZM284.1154 158.7331H289.7512V157.83H284.1154Z" transform="matrix(1,0,0,-1,0,595.2756)" data-index="5"></path>
<path fill="#21384a" d="M297.9493 154.3377 301.5062 158.7331H302.6489L298.7816 153.8583ZM297.9493 153.6364 298.7748 154.1245 303.046 149.2809H301.8234ZM295.8038 158.7331H296.7401V149.2809H295.8038ZM296.4472 154.4108H298.8856V153.5389H296.4472Z" transform="matrix(1,0,0,-1,0,595.2756)" data-index="6"></path>
<path fill="#21384a" d="M307.7606 158.7331H308.6969V149.2809H307.7606ZM308.4041 150.1529H313.8335V149.2809H308.4041ZM308.4041 154.4108H313.1169V153.5389H308.4041ZM308.4041 158.7331H313.8335V157.8611H308.4041Z" transform="matrix(1,0,0,-1,0,595.2756)" data-index="7"></path>
<path fill="#21384a" d="M319.6862 153.8184H322.7083C323.0765 153.8184 323.4027 153.9028 323.6845 154.0715 323.9663 154.2399 324.1837 154.4774 324.3368 154.7813 324.4898 155.0832 324.5675 155.4338 324.5675 155.8332 324.5675 156.2369 324.4898 156.5898 324.3368 156.8959 324.1837 157.2021 323.9663 157.4396 323.6845 157.6083 323.4027 157.7767 323.0765 157.8611 322.7083 157.8611H319.6862V158.7331H322.6637C323.2276 158.7331 323.7222 158.6132 324.1528 158.3714 324.5808 158.1318 324.9139 157.7923 325.1489 157.3551 325.3864 156.9158 325.5041 156.4101 325.5041 155.8332 325.5041 155.2606 325.3864 154.7569 325.1489 154.3221 324.9139 153.8872 324.5808 153.5477 324.1528 153.3081 323.7222 153.0686 323.2276 152.9464 322.6637 152.9464H319.6862ZM319.0028 158.7331H319.9391V149.2809H319.0028Z" transform="matrix(1,0,0,-1,0,595.2756)" data-index="8"></path>
<path fill="#21384a" d="M339.6909 158.7331H340.6272V149.2809H339.6909ZM331.41 150.1529H339.946V149.2809H331.41ZM330.6424 158.7331H331.5787V149.2809H330.6424ZM335.1665 158.7331H336.1031V149.2809H335.1665Z" transform="matrix(1,0,0,-1,0,595.2756)" data-index="9"></path>
<path fill="#21384a" d="M347.3853 149.2809H346.449V158.7331H347.3853Z" transform="matrix(1,0,0,-1,0,595.2756)" data-index="10"></path>
<path fill="#21384a" d="M352.6877 150.1529V150.1529C353.0472 150.1529 353.3468 150.2351 353.5863 150.4015 353.8284 150.5701 354.0081 150.8207 354.1255 151.1603 354.2454 151.4976 354.3055 151.9169 354.3055 152.4206V158.7331H355.2418V152.4339C355.2418 151.7306 355.1508 151.147 354.9711 150.681 354.7913 150.215 354.5229 149.8666 354.1654 149.6316 353.8083 149.3986 353.3579 149.2809 352.8164 149.2809H352.6877ZM359.3486 158.7331H360.2852V149.2809H359.3486ZM354.7403 158.7331H359.8569V157.8611H354.7403Z" transform="matrix(1,0,0,-1,0,595.2756)" data-index="11"></path>
<path fill="#21384a" d="M367.0432 149.2809H366.107V158.7331H367.0432Z" transform="matrix(1,0,0,-1,0,595.2756)" data-index="12"></path>
<path fill="#21384a" d="M372.8628 158.7331H373.7991V149.2809H372.8628ZM373.5062 158.7331H378.1613V157.8611H373.5062Z" transform="matrix(1,0,0,-1,0,595.2756)" data-index="13"></path>
<path fill="#21384a" d="M384.1384 149.2809H383.2021V158.7331H384.1384Z" transform="matrix(1,0,0,-1,0,595.2756)" data-index="14"></path>
<path fill="#21384a" d="M406.1554 158.7331H407.0917V149.2809H406.1554ZM397.8746 150.1529H406.4105V149.2809H397.8746ZM397.1069 158.7331H398.0432V149.2809H397.1069ZM401.631 158.7331H402.5676V149.2809H401.631Z" transform="matrix(1,0,0,-1,0,595.2756)" data-index="15"></path>
<path fill="#21384a" d="M412.7182 158.7331H413.6545V149.2809H412.7182ZM413.3616 150.1529H418.7911V149.2809H413.3616ZM413.3616 154.4108H418.0745V153.5389H413.3616ZM413.3616 158.7331H418.7911V157.8611H413.3616Z" transform="matrix(1,0,0,-1,0,595.2756)" data-index="16"></path>
<path fill="#21384a" d="M426.1059 154.3377 429.6628 158.7331H430.8055L426.9382 153.8583ZM426.1059 153.6364 426.9314 154.1245 431.2026 149.2809H429.98ZM423.9604 158.7331H424.8967V149.2809H423.9604ZM424.6038 154.4108H427.0422V153.5389H424.6038Z" transform="matrix(1,0,0,-1,0,595.2756)" data-index="17"></path>
<path fill="#21384a" d="M437.8742 158.3493H438.8108V149.2809H437.8742ZM435.0076 158.7331H441.6775V157.8611H435.0076Z" transform="matrix(1,0,0,-1,0,595.2756)" data-index="18"></path>
<path fill="#21384a" d="M446.2631 158.7331H447.1994V149.2809H446.2631ZM446.9066 150.1529H452.336V149.2809H446.9066ZM446.9066 154.4108H451.6194V153.5389H446.9066ZM446.9066 158.7331H452.336V157.8611H446.9066Z" transform="matrix(1,0,0,-1,0,595.2756)" data-index="19"></path>
<path fill="#21384a" d="M456.7266 158.7331H457.7783L460.7359 151.5487 460.2677 150.4902ZM461.6147 151.6927C461.3794 151.0739 461.1308 150.5812 460.8669 150.2172 460.6027 149.8533 460.3054 149.5894 459.9771 149.4275 459.6466 149.2654 459.2582 149.1834 458.8121 149.1834H457.9736V150.0554H458.8121C459.1338 150.0554 459.4158 150.124 459.6576 150.2617 459.8994 150.4015 460.1214 150.6254 460.3209 150.9384 460.5208 151.2513 460.7158 151.6728 460.9069 152.2054L463.2143 158.7331H464.2659Z" transform="matrix(1,0,0,-1,0,595.2756)" data-index="20"></path>
<path fill="#21384a" d="M467.7491 150.1529V150.1529C468.1086 150.1529 468.4082 150.2351 468.6477 150.4015 468.8898 150.5701 469.0695 150.8207 469.1869 151.1603 469.3068 151.4976 469.3669 151.9169 469.3669 152.4206V158.7331H470.3031V152.4339C470.3031 151.7306 470.2122 151.147 470.0324 150.681 469.8527 150.215 469.5843 149.8666 469.2268 149.6316 468.8697 149.3986 468.4192 149.2809 467.8778 149.2809H467.7491ZM474.41 158.7331H475.3466V149.2809H474.41ZM469.8017 158.7331H474.9182V157.8611H469.8017Z" transform="matrix(1,0,0,-1,0,595.2756)" data-index="21"></path>
<path fill="#21384a" d="M482.1046 149.2809H481.1683V158.7331H482.1046Z" transform="matrix(1,0,0,-1,0,595.2756)" data-index="22"></path>
<path fill="#21384a" d="M498.1683 149.1834C497.5138 149.1834 496.9392 149.3274 496.4423 149.6183 495.9451 149.9088 495.5613 150.3215 495.2883 150.8542 495.0156 151.3865 494.8778 152.0056 494.8778 152.7069V155.3006C494.8778 156.0016 495.0156 156.6207 495.2883 157.1533 495.5613 157.686 495.9451 158.0984 496.4423 158.3915 496.9392 158.6843 497.5138 158.8309 498.1683 158.8309 498.7097 158.8309 499.2092 158.7197 499.6638 158.4978 500.1188 158.2784 500.4981 157.9654 500.8045 157.5592 501.1106 157.1533 501.317 156.685 501.4256 156.1527H500.4893C500.385 156.5076 500.214 156.8205 499.9791 157.0935 499.7415 157.3685 499.4666 157.5794 499.1491 157.7324 498.8341 157.8832 498.5056 157.9586 498.1683 157.9586 497.7003 157.9586 497.2876 157.8478 496.9327 157.6281 496.5775 157.4062 496.3025 157.0955 496.1072 156.6941 495.9119 156.2947 495.8141 155.8287 495.8141 155.3006V152.7069C495.8141 152.1788 495.9119 151.7128 496.1072 151.3134 496.3025 150.9117 496.5775 150.601 496.9327 150.3836 497.2876 150.1639 497.7003 150.0554 498.1683 150.0554 498.5056 150.0554 498.8341 150.1262 499.1491 150.2683 499.4666 150.4125 499.7415 150.6212 499.9791 150.8941 500.214 151.1668 500.385 151.4886 500.4893 151.8613H501.4256C501.317 151.329 501.1084 150.8584 500.8 150.4548 500.4938 150.0486 500.112 149.7359 499.6573 149.514 499.2024 149.2943 498.7054 149.1834 498.1683 149.1834" transform="matrix(1,0,0,-1,0,595.2756)" data-index="23"></path>
<path fill="#21384a" d="M506.4642 158.7331H507.4004V149.2809H506.4642ZM507.1076 150.1529H512.5371V149.2809H507.1076ZM507.1076 154.4108H511.8205V153.5389H507.1076ZM507.1076 158.7331H512.5371V157.8611H507.1076Z" transform="matrix(1,0,0,-1,0,595.2756)" data-index="24"></path>
<path fill="#21384a" d="M518.3898 153.8184H521.4118C521.78 153.8184 522.1063 153.9028 522.3881 154.0715 522.6698 154.2399 522.8872 154.4774 523.0403 154.7813 523.1934 155.0832 523.2711 155.4338 523.2711 155.8332 523.2711 156.2369 523.1934 156.5898 523.0403 156.8959 522.8872 157.2021 522.6698 157.4396 522.3881 157.6083 522.1063 157.7767 521.78 157.8611 521.4118 157.8611H518.3898V158.7331H521.3673C521.9311 158.7331 522.4258 158.6132 522.8563 158.3714 523.2844 158.1318 523.6174 157.7923 523.8524 157.3551 524.09 156.9158 524.2076 156.4101 524.2076 155.8332 524.2076 155.2606 524.09 154.7569 523.8524 154.3221 523.6174 153.8872 523.2844 153.5477 522.8563 153.3081 522.4258 153.0686 521.9311 152.9464 521.3673 152.9464H518.3898ZM517.7064 158.7331H518.6426V149.2809H517.7064Z" transform="matrix(1,0,0,-1,0,595.2756)" data-index="25"></path>
<path fill="#21384a" d="M530.4776 149.2809H529.5413V158.7331H530.4776Z" transform="matrix(1,0,0,-1,0,595.2756)" data-index="26"></path>
<path fill="#21384a" d="M538.4426 154.3377 541.9996 158.7331H543.1422L539.2749 153.8583ZM538.4426 153.6364 539.2681 154.1245 543.5393 149.2809H542.3168ZM536.2971 158.7331H537.2334V149.2809H536.2971ZM536.9406 154.4108H539.3789V153.5389H536.9406Z" transform="matrix(1,0,0,-1,0,595.2756)" data-index="27"></path>
<path fill="#21384a" d="M550.211 158.3493H551.1475V149.2809H550.211ZM547.3443 158.7331H554.0142V157.8611H547.3443Z" transform="matrix(1,0,0,-1,0,595.2756)" data-index="28"></path>
<path fill="#21384a" d="M558.5998 158.7331H559.5361V149.2809H558.5998ZM559.2433 150.1529H564.6728V149.2809H559.2433ZM559.2433 154.4108H563.9562V153.5389H559.2433ZM559.2433 158.7331H564.6728V157.8611H559.2433Z" transform="matrix(1,0,0,-1,0,595.2756)" data-index="29"></path>
<path fill="#21384a" d="M572.9372 149.1834C572.2826 149.1834 571.7081 149.3274 571.2111 149.6183 570.714 149.9088 570.3301 150.3215 570.0572 150.8542 569.7845 151.3865 569.6467 152.0056 569.6467 152.7069V155.3006C569.6467 156.0016 569.7845 156.6207 570.0572 157.1533 570.3301 157.686 570.714 158.0984 571.2111 158.3915 571.7081 158.6843 572.2826 158.8309 572.9372 158.8309 573.4786 158.8309 573.978 158.7197 574.4327 158.4978 574.8877 158.2784 575.267 157.9654 575.5734 157.5592 575.8795 157.1533 576.0859 156.685 576.1945 156.1527H575.2582C575.1539 156.5076 574.9829 156.8205 574.7479 157.0935 574.5104 157.3685 574.2354 157.5794 573.918 157.7324 573.603 157.8832 573.2745 157.9586 572.9372 157.9586 572.4692 157.9586 572.0564 157.8478 571.7015 157.6281 571.3464 157.4062 571.0714 157.0955 570.8761 156.6941 570.6808 156.2947 570.583 155.8287 570.583 155.3006V152.7069C570.583 152.1788 570.6808 151.7128 570.8761 151.3134 571.0714 150.9117 571.3464 150.601 571.7015 150.3836 572.0564 150.1639 572.4692 150.0554 572.9372 150.0554 573.2745 150.0554 573.603 150.1262 573.918 150.2683 574.2354 150.4125 574.5104 150.6212 574.7479 150.8941 574.9829 151.1668 575.1539 151.4886 575.2582 151.8613H576.1945C576.0859 151.329 575.8773 150.8584 575.5689 150.4548 575.2627 150.0486 574.8809 149.7359 574.4262 149.514 573.9712 149.2943 573.4743 149.1834 572.9372 149.1834" transform="matrix(1,0,0,-1,0,595.2756)" data-index="30"></path>
<path fill="#21384a" d="M582.9304 158.3493H583.867V149.2809H582.9304ZM580.0637 158.7331H586.7337V157.8611H580.0637Z" transform="matrix(1,0,0,-1,0,595.2756)" data-index="31"></path>
<path fill="#21384a" d="M592.4509 149.2809H591.5146V158.7331H592.4509Z" transform="matrix(1,0,0,-1,0,595.2756)" data-index="32"></path>
<path fill="#21384a" d="M598.2704 158.7331H599.2067V149.2809H598.2704ZM598.9139 158.7331H603.5689V157.8611H598.9139Z" transform="matrix(1,0,0,-1,0,595.2756)" data-index="33"></path>
<path fill="#21384a" d="M609.546 149.2809H608.6098V158.7331H609.546Z" transform="matrix(1,0,0,-1,0,595.2756)" data-index="34"></path>
<path fill="#d2ac67" d="M411.1894 445.1162 419.0151 436.5624V382.8654C412.2544 376.1495 405.5335 369.3866 398.795 362.6478H373.4342L365.6931 370.3893 373.2545 377.9544H392.4578L403.2632 388.7597V436.7256L410.6676 445.6877ZM417.6655 436.0507 410.7226 443.6391 404.6128 436.2435V388.201L393.0165 376.6048H373.8132L367.6 370.3904 373.9929 363.9974H398.2363L417.6655 383.4252Z" transform="matrix(1,0,0,-1,0,595.2756)" data-index="35"></path>
<path fill-rule="evenodd" fill="#d2ac67" d="M410.938 444.3968 418.3401 436.3072V383.146L398.5155 363.3225H373.7137L367.8908 369.1454H394.4925L410.938 385.5912Z" transform="matrix(1,0,0,-1,0,595.2756)" data-index="36"></path>
<path fill="#d2ac67" d="M504.9842 369.6902 496.37 361.9312 442.6744 362.3482C436.0113 369.1604 429.3009 375.9338 422.6145 382.7245L422.8115 408.0844 430.6127 415.7654 438.1191 408.1453 437.97 388.9426 448.691 378.0539 496.6554 377.6814 505.5596 370.2076ZM495.8688 363.2848 503.5107 370.1684 496.1628 376.3358 448.1218 376.7085 436.6162 388.3944 436.7653 407.5971 430.5991 413.8586 424.1565 407.5152 423.9683 383.2727 443.245 363.6933Z" transform="matrix(1,0,0,-1,0,595.2756)" data-index="37"></path>
<path fill-rule="evenodd" fill="#d2ac67" d="M504.2667 369.9471 496.12 362.6082 442.9604 363.0209 423.2914 382.9986 423.4842 407.7998 429.3519 413.5774 429.1455 386.9765 445.4631 370.4037Z" transform="matrix(1,0,0,-1,0,595.2756)" data-index="38"></path>
<path fill="#d2ac67" d="M336.3902 351.6403 344.967 359.4407 398.6637 359.2826C405.3597 352.5024 412.1028 345.7616 418.8217 339.0032L418.7472 313.6428 410.9831 305.9243 403.4401 313.5078 403.4965 332.7111 392.7231 343.5483 344.7575 343.6894 335.8174 351.1202ZM345.4747 358.0894 337.866 351.1692 345.2437 345.0376 393.2858 344.8962 404.8478 333.2659 404.7911 314.0626 410.9873 307.8312 417.3993 314.2054 417.4705 338.4485 398.0999 357.9347Z" transform="matrix(1,0,0,-1,0,595.2756)" data-index="39"></path>
<path fill-rule="evenodd" fill="#d2ac67" d="M337.1091 351.3869 345.2202 358.7652 398.3811 358.6088 418.1462 338.7257 418.0731 313.924 412.2332 308.1183 412.3114 334.7198 395.9141 351.2137Z" transform="matrix(1,0,0,-1,0,595.2756)" data-index="40"></path>
<path fill="#d2ac67" d="M401.1877 361.8519 420.5316 381.1955 440.3523 361.3748 420.5316 341.5541 400.7106 361.3748ZM420.5316 379.2875 402.6189 361.3748 420.5316 343.4621 438.4443 361.3748Z" transform="matrix(1,0,0,-1,0,595.2756)" data-index="41"></path>
<path fill-rule="evenodd" fill="#d2ac67" d="M421.1478 361.9913 420.5316 362.4608 419.9151 361.9913 419.4456 361.3748 419.9151 360.7583 420.5316 360.2889 421.1478 360.7583 421.6175 361.3748ZM419.4663 362.4401C419.5106 363.3508 419.563 364.43 419.3002 364.7154L417.8534 366.2881 419.5721 368.2154C419.688 369.1809 419.8666 370.3158 418.1397 370.83 415.5574 371.4735 415.5299 367.6309 418.432 369.2477 418.7716 367.3474 415.787 367.0004 414.9139 368.744 414.3444 369.881 414.8195 371.8942 416.554 372.227 417.8894 372.4832 418.5689 371.9931 419.3402 371.7618 418.6925 372.9132 419.0034 374.9817 420.5316 375.6484 422.0595 374.9817 422.3704 372.9132 421.723 371.7618 422.494 371.9931 423.1738 372.4832 424.5092 372.227 426.2437 371.8942 426.7188 369.881 426.1493 368.744 425.2759 367.0004 422.2916 367.3474 422.6312 369.2477 425.5333 367.6309 425.5058 371.4735 422.9235 370.83 421.1966 370.3158 421.3749 369.1809 421.4911 368.2154L423.2098 366.2881 421.763 364.7154C421.5002 364.43 421.5526 363.3508 421.5969 362.4401 422.5076 362.3958 423.5868 362.3434 423.8722 362.6062L425.4449 364.053 427.3719 362.3343C428.3376 362.2184 429.4726 362.0398 429.9866 363.7667 430.6303 366.349 426.7877 366.3765 428.4045 363.4744 426.5042 363.1348 426.1572 366.1194 427.9005 366.9925 429.0378 367.562 431.051 367.0869 431.3837 365.3524 431.64 364.017 431.1499 363.3375 430.9183 362.5662 432.07 363.2139 434.1385 362.903 434.8049 361.3748 434.1385 359.8466 432.07 359.536 430.9183 360.1834 431.1499 359.4124 431.64 358.7326 431.3837 357.3972 431.051 355.6627 429.0378 355.1876 427.9005 355.7571 426.1572 356.6302 426.5042 359.6148 428.4045 359.2752 426.7877 356.3731 430.6303 356.4006 429.9866 358.9829 429.4726 360.7098 428.3376 360.5315 427.3719 360.4153L425.4449 358.6966 423.8722 360.1434C423.5868 360.4062 422.5076 360.3538 421.5969 360.3095 421.5526 359.3988 421.5002 358.3196 421.763 358.0342L423.2098 356.4615 421.4911 354.5342C421.3749 353.5688 421.1966 352.4338 422.9235 351.9198 425.5058 351.2761 425.5333 355.1187 422.6312 353.5019 422.2916 355.4022 425.2759 355.7492 426.1493 354.0059 426.7188 352.8686 426.2437 350.8554 424.5092 350.5226 423.1738 350.2664 422.494 350.7565 421.723 350.9881 422.3704 349.8364 422.0595 347.7679 420.5316 347.1015 419.0034 347.7679 418.6925 349.8364 419.3402 350.9881 418.5689 350.7565 417.8894 350.2664 416.554 350.5226 414.8195 350.8554 414.3444 352.8686 414.9139 354.0059 415.787 355.7492 418.7716 355.4022 418.432 353.5019 415.5299 355.1187 415.5574 351.2761 418.1397 351.9198 419.8666 352.4338 419.688 353.5688 419.5721 354.5342L417.8534 356.4615 419.3002 358.0342C419.563 358.3196 419.5106 359.3988 419.4663 360.3095 418.5556 360.3538 417.4764 360.4062 417.191 360.1434L415.6183 358.6966 413.691 360.4153C412.7255 360.5315 411.5906 360.7098 411.0763 358.9829 410.4329 356.4006 414.2755 356.3731 412.6586 359.2752 414.559 359.6148 414.906 356.6302 413.1624 355.7571 412.0254 355.1876 410.0122 355.6627 409.6794 357.3972 409.4232 358.7326 409.9133 359.4124 410.1446 360.1834 408.9932 359.536 406.9247 359.8466 406.258 361.3748 406.9247 362.903 408.9932 363.2139 410.1446 362.5662 409.9133 363.3375 409.4232 364.017 409.6794 365.3524 410.0122 367.0869 412.0254 367.562 413.1624 366.9925 414.906 366.1194 414.559 363.1348 412.6586 363.4744 414.2755 366.3765 410.4329 366.349 411.0763 363.7667 411.5906 362.0398 412.7255 362.2184 413.691 362.3343L415.6183 364.053 417.191 362.6062C417.4764 362.3434 418.5556 362.3958 419.4663 362.4401ZM416.8018 361.3748 415.6764 360.3223 414.5922 361.3748 415.6764 362.4273ZM420.5316 357.645 421.5841 356.5196 420.5316 355.4354 419.4791 356.5196ZM424.2614 361.3748 425.3868 360.3223 426.471 361.3748 425.3868 362.4273ZM420.5316 365.1046 421.5841 366.23 420.5316 367.3142 419.4791 366.23Z" transform="matrix(1,0,0,-1,0,595.2756)" data-index="42"></path>
<path fill="#d2ac67" d="M422.8875 339.6739 442.2314 359.0175 506.0458 295.2031 466.5498 295.0577 422.4104 339.1968ZM442.2314 357.1095 424.3187 339.1968 466.9004 296.6151 502.7448 296.5958Z" transform="matrix(1,0,0,-1,0,595.2756)" data-index="43"></path>
<path fill="#d2ac67" d="M420.5316 425.1078C438.1316 425.1078 454.0657 417.9736 465.5982 406.4414 473.7056 398.334 479.6393 388.0517 482.4482 376.5436H478.7351C476.0028 387.0556 470.4987 396.4487 463.0521 403.8953 452.1705 414.777 437.1367 421.5081 420.5316 421.5081 417.2661 421.5081 414.0632 421.2479 410.938 420.7467V424.3895C414.0672 424.8615 417.2712 425.1078 420.5316 425.1078ZM404.6128 419.3779C394.4058 416.5832 385.2805 411.1648 378.0111 403.8953 367.1294 393.0148 360.3983 377.9799 360.3983 361.3748 360.3983 359.0546 360.5295 356.7662 360.7846 354.515H357.1648C356.9236 356.7688 356.7986 359.0572 356.7986 361.3748 356.7986 378.9737 363.9328 394.9104 375.465 406.4414 383.3952 414.3713 393.4083 420.2223 404.6128 423.104ZM483.6728 370.0919C484.0617 367.2422 484.2646 364.3316 484.2646 361.3748 484.2646 348.2314 480.2862 336.018 473.4683 325.8723L470.8701 328.4708C477.0615 337.9252 480.6649 349.2303 480.6649 361.3748 480.6649 364.3353 480.4506 367.2462 480.0373 370.0919ZM362.6663 344.9597C365.4992 334.9517 370.859 326.0064 378.0111 318.8543 388.8916 307.9738 403.9265 301.2415 420.5316 301.2415 432.4286 301.2415 443.5183 304.6995 452.8539 310.6613L455.4587 308.0568C445.4291 301.4722 433.4275 297.6418 420.5316 297.6418 402.9316 297.6418 386.9972 304.776 375.465 316.3082 367.6521 324.121 361.8587 333.9556 358.9339 344.9597Z" transform="matrix(1,0,0,-1,0,595.2756)" data-index="44"></path>
<path fill="#d2ac67" d="M420.5316 418.4419C436.2911 418.4419 450.5581 412.0537 460.885 401.7283 467.7678 394.8454 472.9005 386.2071 475.5589 376.5436H474.624C471.9898 385.9571 466.9654 394.3721 460.2472 401.0905 450.0836 411.2527 436.0397 417.5413 420.5316 417.5413 417.261 417.5413 414.0556 417.2607 410.938 416.7235V417.6369C414.0581 418.1649 417.2624 418.4419 420.5316 418.4419ZM404.6128 415.2529C395.5028 412.5665 387.3557 407.6303 380.8159 401.0905 370.6537 390.928 364.3651 376.8843 364.3651 361.3748 364.3651 359.0521 364.5079 356.7637 364.7809 354.515H363.8741C363.6048 356.7637 363.4645 359.0532 363.4645 361.3748 363.4645 377.1317 369.8538 391.4039 380.1781 401.7283 386.8838 408.4339 395.2528 413.4773 404.6128 416.1903ZM366.804 344.9597C369.5221 336.0501 374.396 328.0805 380.8159 321.6591 390.9784 311.4969 405.0221 305.2083 420.5316 305.2083 431.3279 305.2083 441.415 308.2569 449.9776 313.5379L450.6321 312.8834C441.8932 307.4482 431.5805 304.308 420.5316 304.308 404.7746 304.308 390.5025 310.697 380.1781 321.0214 373.5913 327.6085 368.6063 335.8001 365.8615 344.9597Z" transform="matrix(1,0,0,-1,0,595.2756)" data-index="45"></path>
</g>
</svg>