<svg xmlns="http://www.w3.org/2000/svg" version="1.1" xmlns:xlink="http://www.w3.org/1999/xlink" width="540.793893129771" height="347.648"><svg xmlns="http://www.w3.org/2000/svg" version="1.1" viewBox="0 0 540.793893129771 347.648" style="max-height: 500px" width="540.793893129771" height="347.648">
<path transform="translate(0,0)" fill="#D6B46C" d="M0 0 C16.83 0 33.66 0 51 0 C51 4.62 51 9.24 51 14 C38.79 14 26.58 14 14 14 C14 116.3 14 218.6 14 324 C180.98 324 347.96 324 520 324 C520 221.7 520 119.4 520 14 C410.77 14 301.54 14 189 14 C189 9.38 189 4.76 189 0 C302.85 0 416.7 0 534 0 C534 111.87 534 223.74 534 339 C357.78 339 181.56 339 0 339 C0 227.13 0 115.26 0 0 Z"></path>
<path transform="translate(251,39)" fill="#D6B46C" d="M0 0 C6.96253897 5.30479159 9.29081865 12.68644545 10.59643555 21.01538086 C11.54519136 29.06265436 11.3325975 37.2371446 11.31567383 45.32666016 C11.31250714 48.49286136 11.33606027 51.65813201 11.36132812 54.82421875 C11.4414106 79.71786886 11.4414106 79.71786886 5 89 C-1.65693212 92.12468243 -7.88557344 90.41573766 -14.57202148 88.11499023 C-17.12881084 87.11587866 -19.66051447 86.07217219 -22.1875 85 C-23.88794519 84.28836562 -25.58974689 83.57996287 -27.29296875 82.875 C-28.0305542 82.56304687 -28.76813965 82.25109375 -29.52807617 81.9296875 C-32.63653868 80.76059859 -35.79956281 79.88133279 -39 79 C-38.99777939 79.71091797 -38.99555878 80.42183594 -38.99327087 81.15429688 C-38.97292718 87.97510687 -38.95785692 94.79591213 -38.94818783 101.616745 C-38.94304924 105.12032401 -38.93612415 108.62387723 -38.92456055 112.12744141 C-38.88054981 125.88025102 -38.87065598 139.62925449 -39.37890625 153.375 C-39.40951645 154.31255127 -39.44012665 155.25010254 -39.47166443 156.21606445 C-40.01909376 168.82364956 -40.01909376 168.82364956 -42 174 C-45.99622302 177.59873578 -49.75971211 177.98125121 -55 178 C-58.62740205 177.2902909 -59.59619093 176.56244835 -61.75 173.5625 C-64.12289612 166.79974604 -64.02886674 159.53108066 -64.17578125 152.4140625 C-64.21155273 150.74150391 -64.21155273 150.74150391 -64.24804688 149.03515625 C-64.29145487 146.73847885 -64.32246181 144.44153745 -64.34179688 142.14453125 C-64.44932988 135.74253671 -64.44932988 135.74253671 -66.71875 129.875 C-69.14173615 127.88350454 -71.30110554 126.59953098 -74.1875 125.375 C-75.06792969 124.99085938 -75.94835937 124.60671875 -76.85546875 124.2109375 C-79.45573514 123.20959268 -82.05256315 122.29938995 -84.6965332 121.42431641 C-85.90694023 121.02305038 -85.90694023 121.02305038 -87.14179993 120.61367798 C-87.75500595 120.41116425 -88.36821198 120.20865051 -89 120 C-88.99555878 120.57105469 -88.99111755 121.14210938 -88.98654175 121.73046875 C-88.94212423 127.70065801 -88.91205739 133.67079994 -88.89013672 139.64111328 C-88.88011003 141.86606759 -88.86648528 144.09100883 -88.84912109 146.31591797 C-88.82472608 149.52314491 -88.81348329 152.73019685 -88.8046875 155.9375 C-88.79436493 156.92427734 -88.78404236 157.91105469 -88.77340698 158.92773438 C-88.77129702 172.06237651 -88.77129702 172.06237651 -92.20895386 176.59350586 C-94.86004458 179.11540454 -96.98098305 179.99666369 -100.5625 180.625 C-105.15185876 179.79057113 -106.33307678 178.85222243 -109 175 C-111.75915443 166.97020755 -112.43719031 159.19062431 -112.36328125 150.76171875 C-112.36377975 149.63788284 -112.36427826 148.51404694 -112.36479187 147.3561554 C-112.36246793 144.99563821 -112.3528399 142.63511775 -112.33618164 140.2746582 C-112.31262849 136.70696258 -112.31563 133.14001923 -112.32226562 129.57226562 C-112.28430575 97.46535414 -112.28430575 97.46535414 -107.8125 91.0625 C-104.97186943 88.97937092 -103.68276799 88.52114728 -100.23217773 88.62817383 C-95.11646666 89.48032607 -90.37272022 91.79975776 -85.625 93.8125 C-83.45152299 94.71725498 -81.27705897 95.61964292 -79.1015625 96.51953125 C-78.14588379 96.92276611 -77.19020508 97.32600098 -76.20556641 97.74145508 C-72.18626203 99.31948357 -68.10628117 100.66799277 -64 102 C-64.00666183 101.01187317 -64.01332367 100.02374634 -64.02018738 99.00567627 C-64.08125504 89.64998225 -64.12609505 80.29432919 -64.15543652 70.93848038 C-64.17102884 66.12963746 -64.19214825 61.32095667 -64.22631836 56.51220703 C-64.25914295 51.86321185 -64.27690127 47.21437168 -64.28463173 42.56526947 C-64.29013408 40.80003167 -64.30087768 39.03480143 -64.31719017 37.26963043 C-64.51866506 14.54456312 -64.51866506 14.54456312 -58.9375 5.75 C-54.64939958 3.19538699 -50.867745 3.12076855 -46 4 C-42.44319828 6.10504591 -41.30531064 7.08406808 -40 11 C-39.84565842 13.94717173 -39.7424397 16.87498865 -39.68359375 19.82421875 C-39.66281265 20.68561966 -39.64203156 21.54702057 -39.62062073 22.43452454 C-39.55525091 25.18543544 -39.49629868 27.93644156 -39.4375 30.6875 C-39.39430283 32.55274421 -39.35068815 34.4179788 -39.30664062 36.28320312 C-39.19958237 40.85537124 -39.09827946 45.4276351 -39 50 C-33.75223557 52.74101981 -28.63947705 54.96734225 -23 56.75 C-21.98099609 57.08064453 -21.98099609 57.08064453 -20.94140625 57.41796875 C-19.29608922 57.95095878 -17.64830394 58.4763201 -16 59 C-15.98018066 57.88141602 -15.96036133 56.76283203 -15.93994141 55.61035156 C-15.86307663 51.40555715 -15.77449394 47.20107297 -15.68261719 42.99658203 C-15.64465774 41.18707465 -15.60975151 39.37750024 -15.578125 37.56787109 C-15.0726502 8.99274871 -15.0726502 8.99274871 -9 2 C-5.48175489 -0.34549674 -4.14224306 -0.57991403 0 0 Z"></path>
<path transform="translate(66,130)" fill="#D6B46C" d="M0 0 C4.05671566 1.90904267 6.16795033 3.70112582 7.8125 7.8125 C10.54375052 15.84072124 10.13207159 24.22537131 10.09765625 32.58984375 C10.0962413 33.88950577 10.09482635 35.18916779 10.09336853 36.5282135 C10.08957334 39.96243253 10.07976908 43.39660842 10.06866455 46.83081055 C10.05838555 50.34358131 10.05385708 53.85635912 10.04882812 57.36914062 C10.03814376 64.24611133 10.02110388 71.12305359 10 78 C12.07066079 77.20913186 14.14078889 76.41686895 16.21069336 75.62402344 C17.36355331 75.18298279 18.51641327 74.74194214 19.70420837 74.28753662 C23.71181837 72.72192046 27.64260099 71.02130188 31.5625 69.25 C37.00765325 66.79157346 41.53890484 64.85461558 47.5625 64.875 C48.70912109 64.87113281 48.70912109 64.87113281 49.87890625 64.8671875 C52 65 52 65 55 66 C58.7695201 71.08317649 59.58239324 76.27377706 59.50170898 82.43212891 C59.50981346 83.63374413 59.50981346 83.63374413 59.51808167 84.8596344 C59.53049192 87.4823307 59.51413314 90.10391277 59.49609375 92.7265625 C59.49624889 94.56163592 59.49774031 96.39670966 59.50050354 98.23178101 C59.50188397 102.06645294 59.48938682 105.90074923 59.46655273 109.73535156 C59.43812898 114.64247302 59.44092109 119.54897275 59.45364285 124.45614052 C59.46060679 128.24119347 59.45280322 132.02610346 59.44038582 135.81113815 C59.43588111 137.62037991 59.43552592 139.42963705 59.43945122 141.23888016 C59.44237152 143.76845898 59.42581929 146.29718882 59.40405273 148.82666016 C59.40855438 149.56863144 59.41305603 150.31060272 59.41769409 151.07505798 C59.35072839 155.77440278 58.52548511 159.02824421 56 163 C51.37818281 166.08121146 46.50892774 166.37367009 41.0625 165.5625 C37.826878 163.11127121 37.55615549 159.80845606 37 156 C36.83411377 154.88447754 36.66822754 153.76895508 36.49731445 152.61962891 C35.79834286 146.96950877 35.7685986 141.31159159 35.68359375 135.625 C35.66281265 134.4599292 35.64203156 133.2948584 35.62062073 132.09448242 C35.55557378 128.39637789 35.49644994 124.69820624 35.4375 121 C35.39427207 118.48306616 35.35065646 115.96613894 35.30664062 113.44921875 C35.19921392 107.29954675 35.09980715 101.14981921 35 95 C27.08 98.96 19.16 102.92 11 107 C10.96261719 111.021875 10.92523438 115.04375 10.88671875 119.1875 C10.84856171 122.41210659 10.80748936 125.63664699 10.7644577 128.8611908 C10.71995799 132.25525623 10.68049074 135.64920282 10.65356445 139.04345703 C10.61991008 142.94593252 10.56758599 146.84778692 10.51171875 150.75 C10.50213387 152.55827271 10.50213387 152.55827271 10.49235535 154.40307617 C10.3608683 161.97961993 10.22204547 168.85850567 4.5 174.4375 C0.28884495 177.06947191 -3.08771079 177.50816785 -8 177 C-13.43283842 173.29579199 -14.74072954 168.16327757 -16 162 C-16.41308518 157.16575274 -16.41144695 152.34556091 -16.38818359 147.49755859 C-16.39225682 146.06080224 -16.39760289 144.62404902 -16.40411377 143.18730164 C-16.41770156 139.31343398 -16.41252503 135.43980804 -16.40297651 131.56593657 C-16.39533828 127.49777838 -16.40243675 123.42963978 -16.40713501 119.36148071 C-16.41257926 112.53424391 -16.40543471 105.70710476 -16.39111328 98.87988281 C-16.3747762 91.00107746 -16.38008826 83.12250491 -16.3965925 75.24370515 C-16.41022978 68.46039959 -16.41211648 61.67716387 -16.40427649 54.89384902 C-16.39961395 50.85052337 -16.39893613 46.807307 -16.40888596 42.76398849 C-16.41758658 38.96352863 -16.41147769 35.1633676 -16.39420319 31.36293983 C-16.39025536 29.9730472 -16.39134304 28.58312918 -16.39799118 27.19324684 C-16.44428911 16.52630127 -15.53774071 8.92429151 -8 1 C-5.13391871 -0.43304064 -3.18699217 -0.30644155 0 0 Z"></path>
<path transform="translate(445,37)" fill="#D6B46C" d="M0 0 C3.125 1.9375 3.125 1.9375 5 5 C6.01324506 11.88870632 6.29204283 18.7979206 6.5625 25.75 C6.60568359 26.74515625 6.64886719 27.7403125 6.69335938 28.765625 C7.1804585 40.7652733 7.04768752 52.74828009 6.6875 64.75 C6.66494141 65.90371094 6.64238281 67.05742188 6.61914062 68.24609375 C6.14813477 83.26689873 6.14813477 83.26689873 1.5612793 88.70605469 C0 90 0 90 -2.625 90.5625 C-11.62050481 89.0632492 -18.83762804 80.83844235 -25.51171875 75.0234375 C-29.32408282 71.70389885 -33.22410166 68.499498 -37.14990234 65.31518555 C-40.04922794 62.96001126 -42.94160531 60.59655439 -45.83203125 58.23046875 C-46.80503174 57.43406982 -47.77803223 56.6376709 -48.78051758 55.81713867 C-49.87916138 54.91765503 -49.87916138 54.91765503 -51 54 C-51.00238835 54.56468994 -51.00477671 55.12937988 -51.00723743 55.71118164 C-51.06647091 69.47534626 -51.14226117 83.23933489 -51.23571491 97.00331116 C-51.28041207 103.65959232 -51.31966985 110.31578311 -51.34643555 116.97216797 C-51.37247465 123.39783208 -51.41288212 129.82326093 -51.46318626 136.2487793 C-51.47985072 138.69829376 -51.4913676 141.14784892 -51.49761391 143.59741211 C-51.5072592 147.03263928 -51.53532519 150.4672651 -51.56762695 153.90234375 C-51.56619186 154.91151352 -51.56475677 155.92068329 -51.5632782 156.96043396 C-51.65717052 164.036861 -52.42949464 169.98883657 -57.1875 175.5625 C-60.31687588 177.16195878 -62.53585774 177.4519608 -66.0078125 176.796875 C-71.04344884 174.78262046 -73.35090967 170.38155869 -75.5585022 165.68280029 C-77.69542938 159.84256586 -77.41868271 153.94562315 -77.38818359 147.79785156 C-77.39344055 146.48947327 -77.39869751 145.18109497 -77.40411377 143.83306885 C-77.41772611 140.26251699 -77.41251269 136.69222683 -77.40297651 133.12167072 C-77.39534181 129.36900986 -77.40243664 125.61637031 -77.40713501 121.8637085 C-77.41258422 115.55916354 -77.40542577 109.2547242 -77.39111328 102.95019531 C-77.37481668 95.68839274 -77.38005677 88.42684329 -77.3965925 81.16504693 C-77.41026523 74.90740317 -77.41209807 68.64983505 -77.40427649 62.39218116 C-77.39962794 58.66504005 -77.39889602 54.93801733 -77.40888596 51.21088409 C-77.41926758 47.04701598 -77.40482445 42.88357442 -77.38818359 38.71972656 C-77.39425629 37.50373779 -77.40032898 36.28774902 -77.40658569 35.03491211 C-77.34173743 26.22496701 -76.73312328 17.26045688 -71.875 9.6875 C-68.378291 7.63508385 -66.46862981 7.34051732 -62.51171875 8.046875 C-57.14253196 10.08432691 -53.16516786 14.1604113 -49 18 C-47.9719362 18.93293345 -46.94328112 19.86521571 -45.9140625 20.796875 C-43.85775126 22.66707133 -41.81185056 24.54781805 -39.7734375 26.4375 C-34.41646528 31.38704053 -28.90366367 36.09871918 -23.25390625 40.7109375 C-21.77579468 41.9182251 -21.77579468 41.9182251 -20.26782227 43.14990234 C-19.51944092 43.76043457 -18.77105957 44.3709668 -18 45 C-18.01571045 43.6087793 -18.01571045 43.6087793 -18.03173828 42.18945312 C-18.06602673 38.715469 -18.09099877 35.24166735 -18.10986328 31.76757812 C-18.11985901 30.27015324 -18.13346014 28.77274756 -18.15087891 27.27539062 C-18.17541288 25.11062857 -18.18654744 22.94612677 -18.1953125 20.78125 C-18.21102295 18.8331543 -18.21102295 18.8331543 -18.22705078 16.84570312 C-17.90408775 11.37547344 -17.08319072 6.67719854 -14.0625 2 C-9.48412242 -0.98996087 -5.31115093 -0.96493883 0 0 Z"></path>
<path transform="translate(418,128)" fill="#D6B46C" d="M0 0 C2.93769724 1.30032841 5.71082611 2.84675269 8.5 4.4375 C9.29245117 4.88416016 10.08490234 5.33082031 10.90136719 5.79101562 C17.69964711 9.69216137 24.036775 14.06380041 30.31005859 18.75 C32.61270977 20.45320341 34.95305904 22.10057746 37.29370117 23.75097656 C65.13756845 43.41270534 65.13756845 43.41270534 67 49 C67.09989601 50.62533526 67.14353797 52.2544127 67.15390015 53.88278198 C67.16250061 54.88937866 67.17110107 55.89597534 67.17996216 56.93307495 C67.18422211 58.03652252 67.18848206 59.13997009 67.19287109 60.27685547 C67.20513733 62.02110809 67.20513733 62.02110809 67.21765137 63.80059814 C67.24250442 67.65612266 67.25901909 71.51161042 67.2734375 75.3671875 C67.27876118 76.682103 67.28408485 77.99701851 67.28956985 79.35177994 C67.31119003 84.87634529 67.32992718 90.40090776 67.34119225 95.92550468 C67.35743685 103.83946135 67.39063593 111.75292752 67.44759309 119.66669929 C67.48629302 125.2336709 67.50582478 130.80051131 67.51111281 136.36761391 C67.51476559 139.69184123 67.52927603 143.01542474 67.55921555 146.33953476 C67.59071925 150.04819095 67.59092551 153.75560144 67.58349609 157.46435547 C67.59990143 158.56375458 67.61630676 159.66315369 67.63320923 160.79586792 C67.57199692 168.24450171 67.57199692 168.24450171 64.64712524 172.10769653 C60.7803547 174.8718662 57.61050554 176.74231911 52.875 177.5 C50 177 50 177 47.75 175.125 C43.5766262 167.67254678 43.82124558 159.4725288 44.21875 151.1640625 C44.26664199 149.10948386 44.30945457 147.05478166 44.34765625 145 C44.4109926 141.80666951 44.49995557 138.62580813 44.67529297 135.43652344 C45.65167615 123.53328594 45.65167615 123.53328594 41.31625366 112.91680908 C37.04846357 109.18228194 32.23452407 106.58330031 27.16473389 104.09576416 C24.42699475 102.70995113 22.00838871 101.02661837 19.55078125 99.1953125 C18.82826172 98.67453125 18.10574219 98.15375 17.36132812 97.6171875 C16.68521484 97.12476563 16.00910156 96.63234375 15.3125 96.125 C14.59384766 95.609375 13.87519531 95.09375 13.13476562 94.5625 C6.86573092 90.02187068 0.79602196 85.49237958 -3.875 79.25 C-4.44992187 78.49203125 -5.02484375 77.7340625 -5.6171875 76.953125 C-8.32004345 73.13553185 -8.65910322 69.58735842 -8 65 C-6.20636089 62.1899654 -4.98119065 60.49059532 -2 59 C9.76781644 57.73916252 17.86794661 65.13885066 26.58374023 72.10229492 C31.91041869 76.32711835 37.04041826 79.42425095 43 83 C43 74.42 43 65.84 43 57 C41.68 56.34 40.36 55.68 39 55 C36.7271151 53.31573401 34.48516022 51.60782933 32.25 49.875 C23.34133658 43.07138629 14.02217783 36.92426628 4.6640625 30.76171875 C2.77561607 29.50845357 0.88758721 28.25455892 -1 27 C-1.93875977 26.38592285 -2.87751953 25.7718457 -3.84472656 25.13916016 C-4.73385742 24.54280762 -5.62298828 23.94645508 -6.5390625 23.33203125 C-7.32748535 22.80971924 -8.1159082 22.28740723 -8.92822266 21.74926758 C-12.0974214 19.07341217 -13.73406167 16.30014293 -14.5625 12.25 C-13.72179483 7.39259232 -11.08098743 3.79137054 -8 0 C-4.98802087 -1.50598957 -3.26158077 -0.80417416 0 0 Z"></path>
<path transform="translate(285.8828125,66.402587890625)" fill="#D6B46C" d="M0 0 C5.41737989 1.83037128 10.230807 4.07464456 15.1171875 7.03491211 C15.84647461 7.47174316 16.57576172 7.90857422 17.32714844 8.35864258 C33.04345633 17.91731588 47.65486421 29.2657858 62.1171875 40.59741211 C63.15697754 41.37133301 63.15697754 41.37133301 64.21777344 42.16088867 C64.84200195 42.64783203 65.46623047 43.13477539 66.109375 43.63647461 C66.64675293 44.04333496 67.18413086 44.45019531 67.73779297 44.86938477 C72.12736457 50.36839146 71.40775428 58.14448663 71.3918457 64.77758789 C71.39695663 65.88248566 71.40206757 66.98738342 71.40733337 68.12576294 C71.42119321 71.76480579 71.4202758 75.40365857 71.41796875 79.04272461 C71.4218566 81.5766507 71.42619145 84.11057614 71.43095398 86.64450073 C71.43840765 91.948653 71.43826906 97.2527358 71.43286133 102.55688477 C71.42681248 108.68216623 71.43916162 114.80721852 71.4604314 120.9324609 C71.48017884 126.83726819 71.48322071 132.74200449 71.47969627 138.64684677 C71.48021001 141.15469782 71.48545762 143.66255249 71.49550819 146.17038345 C71.50782514 149.67244491 71.50110982 153.17397267 71.48950195 156.67602539 C71.49714569 157.71303589 71.50478943 158.75004639 71.51266479 159.81848145 C71.44813657 168.61294185 71.44813657 168.61294185 68.1171875 172.59741211 C63.6767519 176.49633118 61.0923221 177.69088868 55.1875 178.21850586 C51.7508237 177.18750297 50.84721993 174.61841654 49.1171875 171.59741211 C47.00203689 163.10357775 47.01617359 154.33563251 47.23046875 145.63647461 C47.26002438 143.91121861 47.28931922 142.18595812 47.31835938 140.46069336 C47.36348401 137.823738 47.43100499 135.19673636 47.56616211 132.56274414 C48.33895191 122.68789427 48.33895191 122.68789427 44.73153687 113.88174438 C41.18741177 110.7743684 37.1789943 108.6228817 32.97109985 106.54516602 C30.49861375 105.2811859 28.30245637 103.73427642 26.06640625 102.09350586 C25.35323242 101.58513184 24.64005859 101.07675781 23.90527344 100.55297852 C-2.69277518 81.3309113 -2.69277518 81.3309113 -4.8828125 71.59741211 C-4.8828125 66.9510251 -4.38134108 65.15528933 -1.2578125 61.65991211 C2.82391925 59.16552049 4.40721458 58.81241662 9.1171875 59.59741211 C15.91649747 61.99999514 21.40823747 66.19455077 26.98950195 70.6394043 C33.05732816 75.44067584 39.54946855 79.5208969 46.1171875 83.59741211 C47.95423275 69.79717319 47.95423275 69.79717319 45.09912109 56.60913086 C42.35429984 53.45120942 38.78163528 51.53757531 35.10693359 49.66625977 C31.5063979 47.73213151 28.25833611 45.27132526 24.9296875 42.90991211 C23.56872477 41.97942851 22.20549889 41.05224498 20.83984375 40.12866211 C17.82740349 38.08550766 14.84046563 36.00981962 11.8671875 33.90991211 C7.28548069 30.67713421 2.59398475 27.62386908 -2.12109375 24.58959961 C-9.29997034 19.41106063 -9.29997034 19.41106063 -10.58203125 15.42163086 C-10.54688967 9.01414979 -8.36045547 5.14465575 -3.8828125 0.59741211 C-1.8828125 -0.40258789 -1.8828125 -0.40258789 0 0 Z"></path>
<path transform="translate(247,138)" fill="#D6B46C" d="M0 0 C2.90953625 1.71257513 5.39908522 3.85726613 8 6 C8.80050781 6.63413818 9.60101563 7.26827637 10.42578125 7.92163086 C17.48384719 13.55828074 23.90876501 19.63736287 30.25 26.0625 C31.20011452 27.01407774 32.15063462 27.96525069 33.1015625 28.91601562 C37.6913478 33.53472815 42.12596076 38.21502745 46.36425781 43.15698242 C49.72473152 46.94328333 53.43593633 50.39896052 57.1015625 53.88671875 C61.60475302 58.28175404 64.64554518 62.11372501 65.4375 68.5625 C64.91914204 72.63531251 63.91833928 74.1627257 61 77 C57.25229173 79.26732455 54.65165359 79.2801952 50.40234375 78.6328125 C37.72413243 75.2931861 26.78383071 60.47112461 18.68701172 50.79345703 C16.86515181 48.8566433 14.95338369 47.35360264 12.80859375 45.78515625 C11.73629517 44.99637085 11.73629517 44.99637085 10.64233398 44.19165039 C10.10036377 43.79840576 9.55839355 43.40516113 9 43 C8.96574669 44.77953316 8.96574669 44.77953316 8.93080139 46.59501648 C8.71425959 57.81946606 8.49377477 69.04383231 8.26950932 80.2681303 C8.15435941 86.03752273 8.04055984 91.80693497 7.92993164 97.57641602 C7.8229576 103.152659 7.71232498 108.72881887 7.59924126 114.30494118 C7.55689808 116.42377005 7.51583466 118.54262494 7.4761219 120.66150475 C6.76131057 158.64635706 6.76131057 158.64635706 1.51171875 164.72265625 C-0.40554376 166.34266876 -1.48845799 166.78472497 -4 167 C-8.58265464 166.12247039 -11.13937932 164.44450751 -13.96875 160.69921875 C-19.4124399 151.72950243 -18.14843303 139.19968369 -18.1328125 129.1484375 C-18.1339147 127.66944858 -18.13534678 126.19045987 -18.13708496 124.71147156 C-18.13998631 120.7519132 -18.13569123 116.79239645 -18.12897491 112.83284378 C-18.12499586 110.37243908 -18.1224856 107.91203654 -18.12030029 105.45162964 C-18.09921914 84.80432989 -18.01353377 64.15766039 -17.68060303 43.51275635 C-17.64383406 41.23118343 -17.60981187 38.94956443 -17.57867432 36.66790771 C-17.53374734 33.51922201 -17.47613169 30.37104514 -17.4140625 27.22265625 C-17.40250122 26.32479904 -17.39093994 25.42694183 -17.37902832 24.50187683 C-17.17208912 15.67133409 -16.69290334 7.9237098 -10.4375 1.27734375 C-6.97453171 -1.79980471 -4.35461949 -1.05353697 0 0 Z"></path>
<path transform="translate(110.25,2.6875)" fill="#D6B46C" d="M0 0 C4.35085725 0.36257144 5.74689899 1.2235961 8.75 4.3125 C13.4538375 11.37645108 10.90464772 24.03472033 9.6875 32 C8.11405448 42.8316902 8.06860961 53.14849821 14.75 62.3125 C22.72295299 70.52048335 34.61936513 73.7605996 45.26953125 77.00390625 C50.40887901 78.93620872 53.88885785 80.84022471 56.6875 85.625 C57.89242398 89.806795 58.00663093 92.14991005 56.75 96.3125 C48.99591072 103.44409695 37.95123392 106.05310855 28.06958008 109.08154297 C20.82401534 111.38002592 15.67832002 114.3555959 11.8515625 121.05859375 C7.19725571 130.58176758 6.30838052 140.73392263 8.75 151.0625 C9.82610362 155.76174386 10.00954048 160.32401602 10.0625 165.125 C10.07990234 165.85493164 10.09730469 166.58486328 10.11523438 167.33691406 C10.11068057 172.28007467 9.30561493 175.75688507 5.75 179.3125 C1.70567915 179.88012398 -0.83447813 180.12610627 -4.41796875 178.06640625 C-9.55435877 173.89369165 -12.25878339 169.56511253 -14.25 163.3125 C-14.54777344 162.41273438 -14.84554687 161.51296875 -15.15234375 160.5859375 C-19.44906341 145.26031069 -19.18551681 127.64533908 -11.7421875 113.43359375 C-6.74247236 105.07360495 -0.13689236 98.13720823 6.75 91.3125 C5.4722103 88.1761071 3.71196598 86.1830231 1.3046875 83.83984375 C-11.33814617 71.41937147 -16.95280715 56.57549925 -17.5 38.875 C-17.36102337 26.56784704 -15.44368331 12.40047368 -6.5 3.25 C-5.7575 2.610625 -5.015 1.97125 -4.25 1.3125 C-3.25 0.3125 -3.25 0.3125 0 0 Z"></path>
<path transform="translate(427.2373046875,407.759765625)" fill="#FCFCFC" d="M0 0 C2.12442194 -0.00970499 4.24787489 -0.0407669 6.37207031 -0.07226562 C7.73925213 -0.07879729 9.10644079 -0.08404712 10.47363281 -0.08789062 C12.31900635 -0.10190918 12.31900635 -0.10190918 14.20166016 -0.11621094 C20.14822926 0.47901674 24.89784824 2.5165324 28.76269531 7.24023438 C30.3930859 10.0465209 31.01451382 12.08169836 31.03012085 15.31867981 C31.03865082 16.12182114 31.04718079 16.92496246 31.05596924 17.75244141 C31.05506287 18.62473389 31.05415649 19.49702637 31.05322266 20.39575195 C31.05993988 21.32143478 31.0666571 22.24711761 31.07357788 23.20085144 C31.09258132 26.26221073 31.09648341 29.32335101 31.09863281 32.38476562 C31.10505961 34.51462392 31.11178788 36.64448133 31.11880493 38.77433777 C31.13078393 43.24061123 31.13448516 47.70680731 31.13330078 52.1730957 C31.13309768 57.88961104 31.16038871 63.60562878 31.1948452 69.32202625 C31.21710995 73.72216561 31.22113843 78.12218519 31.22008133 82.52237511 C31.22243835 84.62945964 31.23126753 86.73654743 31.24674606 88.84357643 C31.26639495 91.79491368 31.2605718 94.74517778 31.24853516 97.6965332 C31.25977417 98.56275299 31.27101318 99.42897278 31.28259277 100.32144165 C31.22271288 106.11458772 30.07567951 109.46252763 26.76269531 114.24023438 C22.14565746 118.56870736 17.21676858 118.40672118 11.14550781 118.44335938 C10.41073212 118.44905945 9.67595642 118.45475952 8.91891479 118.46063232 C7.36734446 118.47005811 5.81575432 118.47660666 4.26416016 118.48046875 C1.90263628 118.49017298 -0.45801611 118.52121728 -2.81933594 118.55273438 C-4.33104955 118.55926549 -5.84276935 118.56451554 -7.35449219 118.56835938 C-8.05468475 118.58070618 -8.75487732 118.59305298 -9.47628784 118.60577393 C-15.20860956 118.57999513 -19.06064118 116.99365775 -23.48730469 113.42773438 C-27.59774581 108.28968297 -27.52710034 102.58426228 -27.49609375 96.31665039 C-27.49959839 95.43944336 -27.50310303 94.56223633 -27.50671387 93.65844727 C-27.51548741 90.77026359 -27.50969697 87.88232662 -27.50292969 84.99414062 C-27.50427772 82.97924248 -27.5062194 80.96434466 -27.50872803 78.94944763 C-27.51167347 74.7305084 -27.50740072 70.51165397 -27.49804688 66.29272461 C-27.48666007 60.89476795 -27.49321066 55.49701035 -27.5051918 50.09906101 C-27.51243229 45.93912772 -27.51011228 41.7792413 -27.50493622 37.61930656 C-27.5036054 35.62946486 -27.50522749 33.63961885 -27.50989532 31.64978218 C-27.51499572 28.86414506 -27.50720071 26.0788264 -27.49609375 23.29321289 C-27.50014221 22.47688889 -27.50419067 21.66056488 -27.50836182 20.81950378 C-27.46790111 15.31937684 -27.2282867 9.75779853 -23.68652344 5.27929688 C-23.10515625 4.81265625 -22.52378906 4.34601563 -21.92480469 3.86523438 C-21.35117187 3.383125 -20.77753906 2.90101563 -20.18652344 2.40429688 C-14.35064474 -1.08085713 -6.58056409 0.01818673 0 0 Z M-8.23730469 20.24023438 C-9.51115595 24.06178817 -9.36083657 27.64707908 -9.33496094 31.62695312 C-9.33283852 32.85246635 -9.33283852 32.85246635 -9.33067322 34.10273743 C-9.32507763 36.71110705 -9.31252597 39.31939071 -9.29980469 41.92773438 C-9.29478912 43.69661334 -9.29022631 45.46549366 -9.28613281 47.234375 C-9.27510965 51.56969456 -9.25784806 55.90494989 -9.23730469 60.24023438 C-5.80373343 59.72521387 -2.62609661 59.172719 0.59472656 57.86523438 C1.5740918 57.47078125 1.5740918 57.47078125 2.57324219 57.06835938 C3.23388672 56.79507813 3.89453125 56.52179688 4.57519531 56.24023438 C5.25517578 55.96695313 5.93515625 55.69367188 6.63574219 55.41210938 C9.9438176 54.22845683 9.9438176 54.22845683 12.76269531 52.24023438 C13.05305949 48.18101662 13.07673521 44.11799621 13.11279297 40.04931641 C13.12931002 38.68358265 13.15654486 37.31793383 13.19482422 35.95263672 C13.24980863 33.98132606 13.26836707 32.00910668 13.28613281 30.03710938 C13.30595215 28.8547168 13.32577148 27.67232422 13.34619141 26.45410156 C12.59056389 22.29214314 11.03795123 20.82969988 7.76269531 18.24023438 C4.5230879 17.56552406 4.5230879 17.56552406 1.13769531 17.80273438 C0.01105469 17.82464844 -1.11558594 17.8465625 -2.27636719 17.86914062 C-5.41974483 18.03908332 -5.41974483 18.03908332 -8.23730469 20.24023438 Z M6.19238281 71.99023438 C5.29648437 72.35117187 4.40058594 72.71210938 3.47753906 73.08398438 C2.54039062 73.46554687 1.60324219 73.84710938 0.63769531 74.24023438 C-0.3071875 74.62179687 -1.25207031 75.00335938 -2.22558594 75.39648438 C-4.5640872 76.34133337 -6.90124348 77.28937211 -9.23730469 78.24023438 C-9.29138035 80.82384956 -9.33101169 83.40632692 -9.36230469 85.99023438 C-9.3790625 86.71984375 -9.39582031 87.44945312 -9.41308594 88.20117188 C-9.50566196 93.55896759 -9.50566196 93.55896759 -7.23730469 98.24023438 C-2.68004346 100.88344589 0.56798478 101.57082796 5.77050781 101.05273438 C9.23688932 99.63899447 10.57628305 98.34921511 12.76269531 95.24023438 C13.38156729 90.95450789 13.23245395 86.74629854 13.07519531 82.42773438 C13.05263672 81.25791016 13.03007812 80.08808594 13.00683594 78.8828125 C12.94801623 76.00064668 12.86586672 73.12109756 12.76269531 70.24023438 C10.22591334 70.24023438 8.5465127 71.03666278 6.19238281 71.99023438 Z"></path>
<path transform="translate(99.2373046875,407.759765625)" fill="#FDFDFD" d="M0 0 C2.12442194 -0.00970499 4.24787489 -0.0407669 6.37207031 -0.07226562 C7.73925213 -0.07879729 9.10644079 -0.08404712 10.47363281 -0.08789062 C12.31900635 -0.10190918 12.31900635 -0.10190918 14.20166016 -0.11621094 C18.8731879 0.35139022 22.87323773 1.61343681 26.50488281 4.74023438 C30.66683197 10.25122912 30.91860163 14.37008421 30.93969727 21.08276367 C30.94955406 22.43939873 30.94955406 22.43939873 30.95960999 23.82344055 C30.97934069 26.82044559 30.99100606 29.81740047 31.00097656 32.81445312 C31.00505209 33.83877756 31.00912762 34.863102 31.01332664 35.91846657 C31.03418795 41.3417198 31.04848855 46.76494774 31.05786133 52.18823242 C31.06891652 57.78246332 31.1033062 63.37629545 31.14303303 68.97038555 C31.16921505 73.27790553 31.17755467 77.58533081 31.18114281 81.89292336 C31.18600585 83.9545339 31.19761175 86.0161403 31.2161808 88.07767296 C31.24060215 90.96901124 31.23960146 93.85932197 31.23266602 96.75073242 C31.24547607 97.5962265 31.25828613 98.44172058 31.27148438 99.31283569 C31.221866 105.01218389 30.0850185 109.52855026 26.76269531 114.24023438 C20.50212779 119.75367002 11.8142671 118.81410757 3.96240234 118.70678711 C1.63599769 118.67771316 -0.6881381 118.68622559 -3.01464844 118.69921875 C-4.50814898 118.69298307 -6.00164242 118.68459345 -7.49511719 118.67382812 C-8.52658371 118.67823158 -8.52658371 118.67823158 -9.57888794 118.682724 C-14.84289944 118.58069697 -18.91664811 117.30732752 -22.88183594 113.77539062 C-27.42323291 108.04928139 -27.38889587 103.57821502 -27.3984375 96.4519043 C-27.4034024 95.56523575 -27.40836731 94.6785672 -27.41348267 93.76502991 C-27.42807991 90.83357973 -27.43490223 87.90218367 -27.44042969 84.97070312 C-27.44618313 82.93052672 -27.45194084 80.89035033 -27.45770264 78.85017395 C-27.46820568 74.57223255 -27.47405291 70.2943099 -27.47753906 66.01635742 C-27.48302238 60.5420749 -27.50705 55.06804128 -27.53551102 49.59383678 C-27.55415964 45.37900575 -27.55934419 41.16423442 -27.56087494 36.94936562 C-27.56389695 34.93159944 -27.57191019 32.91383421 -27.58506012 30.89610863 C-27.60216703 28.0694639 -27.60022899 25.24342393 -27.59375 22.41674805 C-27.60296478 21.58793121 -27.61217957 20.75911438 -27.62167358 19.90518188 C-27.57965016 14.03501145 -26.64890692 9.17896278 -22.80761719 4.49804688 C-15.94131615 -0.88364853 -8.33992765 0.02304909 0 0 Z M-7.07324219 19.58398438 C-9.6191302 23.20632168 -9.38578303 26.74020017 -9.43017578 31.01904297 C-9.43835327 31.70395309 -9.44653076 32.38886322 -9.45495605 33.0945282 C-9.47975228 35.35923395 -9.49630949 37.62387735 -9.51074219 39.88867188 C-9.51606586 40.66299183 -9.52138954 41.43731178 -9.52687454 42.23509598 C-9.55357869 46.3321763 -9.57296387 50.42922642 -9.58740234 54.52636719 C-9.60075202 57.91563849 -9.62862625 61.30430921 -9.66943359 64.69335938 C-9.71873687 68.78824044 -9.74351991 72.88257602 -9.75062943 76.97774124 C-9.75734249 78.53667788 -9.77256623 80.09560231 -9.79652023 81.65436935 C-9.82816394 83.83777025 -9.82821165 86.01906646 -9.82080078 88.20263672 C-9.82888763 89.44379242 -9.83697449 90.68494812 -9.8453064 91.9637146 C-9.07133928 96.13462159 -7.47682356 97.59792838 -4.23730469 100.24023438 C-0.22186229 101.877905 3.64814304 101.55280901 7.63769531 99.99023438 C10.9558837 98.44330401 10.9558837 98.44330401 12.76269531 95.24023438 C13.08917486 92.05932319 13.08917486 92.05932319 13.0690918 88.36962891 C13.07741531 87.67496521 13.08573883 86.98030151 13.09431458 86.2645874 C13.11841667 83.96735026 13.12718683 81.67039706 13.13378906 79.37304688 C13.14275538 77.77505406 13.15187723 76.17706212 13.16114807 74.57907104 C13.17764126 71.22831177 13.18533874 67.87765244 13.18823242 64.52685547 C13.19361613 60.23695365 13.23129306 55.94799353 13.27697659 51.65835762 C13.30674653 48.35717352 13.31395595 45.05621618 13.31495857 41.75490952 C13.3191612 40.17366091 13.33159739 38.59241166 13.35247612 37.01129532 C13.37939137 34.79670611 13.3745673 32.58429918 13.36206055 30.36962891 C13.3671312 29.11070831 13.37220184 27.85178772 13.37742615 26.55471802 C12.59489808 22.3355113 11.09722053 20.85799356 7.76269531 18.24023438 C4.5254497 17.52885872 4.5254497 17.52885872 1.13769531 17.74023438 C-0.55226563 17.75570313 -0.55226563 17.75570313 -2.27636719 17.77148438 C-5.20865194 18.00443227 -5.20865194 18.00443227 -7.07324219 19.58398438 Z"></path>
<path transform="translate(147,408)" fill="#FDFDFD" d="M0 0 C2.64590014 -0.02684679 5.29153096 -0.04676357 7.9375 -0.0625 C8.69224609 -0.07087891 9.44699219 -0.07925781 10.22460938 -0.08789062 C12.14994313 -0.09652441 14.07535581 -0.05224333 16 0 C17.70167842 1.70167842 17.15113546 3.89402863 17.17358398 6.22241211 C17.18707382 7.3370433 17.20056366 8.4516745 17.21446228 9.6000824 C17.22490067 10.81357864 17.23533905 12.02707489 17.24609375 13.27734375 C17.27902606 15.81706082 17.31223781 18.35677427 17.34570312 20.89648438 C17.39320401 24.92372295 17.43804832 28.95094073 17.47680664 32.97827148 C17.5163735 36.84895262 17.56795221 40.71932861 17.62109375 44.58984375 C17.6295079 45.80131577 17.63792206 47.01278778 17.64659119 48.26097107 C17.66323318 49.37875443 17.67987518 50.49653778 17.69702148 51.64819336 C17.70732895 52.63556992 17.71763641 53.62294647 17.72825623 54.64024353 C17.77399151 57.18837169 17.77399151 57.18837169 20 59 C24.80772842 58.71112361 28.20606088 57.04897527 32.3125 54.625 C33.36050781 54.01914062 34.40851563 53.41328125 35.48828125 52.7890625 C38.26675324 51.18181193 38.26675324 51.18181193 39 48 C39.10937012 46.45619363 39.16596127 44.9083372 39.18945312 43.36083984 C39.21452942 41.95455826 39.21452942 41.95455826 39.2401123 40.51986694 C39.25368774 39.51042023 39.26726318 38.50097351 39.28125 37.4609375 C39.29965942 36.4243399 39.31806885 35.38774231 39.33703613 34.31973267 C39.41583516 29.87699848 39.48364718 25.43411252 39.55224609 20.99121094 C39.60382188 17.75187324 39.66111652 14.51267214 39.71875 11.2734375 C39.73232544 10.25994232 39.74590088 9.24644714 39.7598877 8.20223999 C39.78496399 6.80541489 39.78496399 6.80541489 39.81054688 5.38037109 C39.82933899 4.14485001 39.82933899 4.14485001 39.84851074 2.8843689 C40 1 40 1 41 0 C43.51136104 -0.09975032 45.98903415 -0.13882183 48.5 -0.125 C49.20253906 -0.12886719 49.90507812 -0.13273437 50.62890625 -0.13671875 C55.87338622 -0.12661378 55.87338622 -0.12661378 57 1 C57.09791695 2.50318704 57.12631799 4.01096133 57.12698364 5.51733398 C57.12980347 6.49330536 57.13262329 7.46927673 57.13552856 8.474823 C57.13350433 9.55434235 57.1314801 10.63386169 57.12939453 11.74609375 C57.13114685 12.87604767 57.13289917 14.00600159 57.13470459 15.17019653 C57.13912582 18.92597973 57.13618416 22.68171628 57.1328125 26.4375 C57.13348546 29.03442392 57.13445542 31.63134778 57.13571167 34.22827148 C57.13718901 39.67920589 57.13512751 45.13012258 57.13037109 50.58105469 C57.1249285 56.89139229 57.12669117 63.20169759 57.1321975 69.51203442 C57.13727431 75.571677 57.13674709 81.63130372 57.13381577 87.69094849 C57.13314623 90.27466842 57.13397585 92.85838917 57.13629532 95.44210815 C57.13882025 99.04606343 57.1349835 102.6499557 57.12939453 106.25390625 C57.13141876 107.3334256 57.13344299 108.41294495 57.13552856 109.525177 C57.13270874 110.50114838 57.12988892 111.47711975 57.12698364 112.48266602 C57.12660662 113.33586929 57.12622959 114.18907257 57.12584114 115.06813049 C57 117 57 117 56 118 C53.30345146 118.07319621 50.63308542 118.09242537 47.9375 118.0625 C47.17888672 118.05798828 46.42027344 118.05347656 45.63867188 118.04882812 C43.75908129 118.0370068 41.87953101 118.01907078 40 118 C39.98541748 116.78417236 39.97083496 115.56834473 39.95581055 114.31567383 C39.89774902 109.79600922 39.8205164 105.27683873 39.73754883 100.75756836 C39.70433646 98.80322298 39.67629305 96.84878253 39.65356445 94.89428711 C39.61995067 92.08145718 39.56763146 89.26949553 39.51171875 86.45703125 C39.50532883 85.58601273 39.4989389 84.7149942 39.49235535 83.81758118 C39.3773297 79.04973735 39.0167061 75.9227715 36 72 C31.93153697 72.6529632 28.74332963 74.79085688 25.3125 76.9375 C24.71888672 77.29779297 24.12527344 77.65808594 23.51367188 78.02929688 C20.20315247 79.9698446 20.20315247 79.9698446 18 83 C17.8556203 85.53948271 17.7659986 88.05606381 17.71875 90.59765625 C17.70034058 91.34712021 17.68193115 92.09658417 17.66296387 92.86875916 C17.58415897 96.081711 17.51639931 99.2948742 17.44775391 102.50805664 C17.39614605 104.85053256 17.33885937 107.19282152 17.28125 109.53515625 C17.26767456 110.26742935 17.25409912 110.99970245 17.2401123 111.75416565 C17.11282902 116.88717098 17.11282902 116.88717098 16 118 C13.3226862 118.09981214 10.67695825 118.13879875 8 118.125 C6.87464844 118.13080078 6.87464844 118.13080078 5.7265625 118.13671875 C0.12661053 118.12661053 0.12661053 118.12661053 -1 117 C-1.09787778 115.51173398 -1.1263178 114.01883994 -1.12698364 112.52735901 C-1.13121338 111.07819092 -1.13121338 111.07819092 -1.13552856 109.5997467 C-1.13350433 108.53114914 -1.1314801 107.46255157 -1.12939453 106.36157227 C-1.13114685 105.24297821 -1.13289917 104.12438416 -1.13470459 102.97189331 C-1.13912614 99.2533821 -1.13618385 95.53491799 -1.1328125 91.81640625 C-1.1334855 89.24429821 -1.13445549 86.67219022 -1.13571167 84.1000824 C-1.13718909 78.70042255 -1.13512747 73.30078058 -1.13037109 67.90112305 C-1.12493123 61.65328932 -1.12668914 55.40548823 -1.1321975 49.1576553 C-1.1372779 43.15568118 -1.13674561 37.15372307 -1.13381577 31.15174675 C-1.13314669 28.59397311 -1.13397424 26.03619865 -1.13629532 23.47842598 C-1.13882354 19.90820202 -1.13497867 16.33804148 -1.12939453 12.76782227 C-1.13141876 11.70124893 -1.13344299 10.6346756 -1.13552856 9.53578186 C-1.13270874 8.56684998 -1.12988892 7.59791809 -1.12698364 6.59962463 C-1.12660662 5.75471749 -1.12622959 4.90981035 -1.12584114 4.03929996 C-1 2 -1 2 0 0 Z"></path>
<path transform="translate(326,408)" fill="#FCFCFC" d="M0 0 C5.28 0 10.56 0 16 0 C18.58925669 2.58925669 18.26946157 3.67069432 18.31884766 7.27587891 C18.33871735 8.3768692 18.35858704 9.4778595 18.37905884 10.61221313 C18.39061005 11.80494843 18.40216125 12.99768372 18.4140625 14.2265625 C18.43342865 15.44451508 18.4527948 16.66246765 18.4727478 17.91732788 C18.53268215 21.8198133 18.57898471 25.72232799 18.625 29.625 C18.66316699 32.2656381 18.70221795 34.90626357 18.7421875 37.546875 C18.83839504 44.03113826 18.92340176 50.51547708 19 57 C24.3095851 56.35488816 27.79787791 55.31314305 32.375 52.5 C33.41398437 51.8709375 34.45296875 51.241875 35.5234375 50.59375 C37.8511276 49.21952652 37.8511276 49.21952652 39 48 C39.11713077 46.53260908 39.16722863 45.05978118 39.18945312 43.58789062 C39.21452942 42.18138245 39.21452942 42.18138245 39.2401123 40.74645996 C39.25368774 39.72669067 39.26726318 38.70692139 39.28125 37.65625 C39.29965942 36.61682251 39.31806885 35.57739502 39.33703613 34.50646973 C39.39599608 31.17103928 39.44872797 27.83555698 39.5 24.5 C39.56741156 20.11446852 39.64108036 15.72911044 39.71875 11.34375 C39.73232544 10.32398071 39.74590088 9.30421143 39.7598877 8.25354004 C39.78496399 6.84703186 39.78496399 6.84703186 39.81054688 5.41210938 C39.82933899 4.16753967 39.82933899 4.16753967 39.84851074 2.89782715 C40 1 40 1 41 0 C43.09916026 -0.17858965 45.20622688 -0.26798477 47.3125 -0.3125 C48.46363281 -0.34988281 49.61476563 -0.38726562 50.80078125 -0.42578125 C54 0 54 0 56.16894531 1.42749023 C58.94115204 5.32225587 58.55431393 8.91595341 58.49609375 13.5859375 C58.49754898 14.5204776 58.49900421 15.4550177 58.50050354 16.4178772 C58.49884499 18.39319985 58.48728863 20.36853549 58.46655273 22.34375 C58.43766932 25.35733398 58.44593076 28.36915043 58.45898438 31.3828125 C58.45274443 33.30469601 58.44435149 35.22657397 58.43359375 37.1484375 C58.43652939 38.04549408 58.43946503 38.94255066 58.44248962 39.86679077 C58.34123554 46.63236459 57.11136177 50.88863823 52.1875 55.8125 C48.92594903 58.05081929 46.89929748 58.72147875 43 59 C43 59.66 43 60.32 43 61 C44.794375 61.2784375 44.794375 61.2784375 46.625 61.5625 C51.65817373 62.79620866 54.25265382 65.73163172 57 70 C57.89344608 72.68033824 58.1387943 74.28651787 58.17700195 77.04077148 C58.19625481 78.25234169 58.19625481 78.25234169 58.21589661 79.48838806 C58.22328354 80.35718094 58.23067047 81.22597382 58.23828125 82.12109375 C58.246353 83.01740005 58.25442474 83.91370636 58.26274109 84.83717346 C58.27656635 86.73265658 58.28729547 88.62816444 58.29516602 90.52368164 C58.31241473 93.42316575 58.35631812 96.3215199 58.40039062 99.22070312 C58.4105148 101.06249162 58.41903176 102.9042898 58.42578125 104.74609375 C58.44328934 105.6128624 58.46079742 106.47963104 58.47883606 107.37266541 C58.45722943 113.36127212 58.45722943 113.36127212 56.17333984 116.55175781 C53.13715191 118.57497359 50.92495051 118.42981362 47.3125 118.3125 C46.15363281 118.28800781 44.99476563 118.26351562 43.80078125 118.23828125 C41 118 41 118 40 117 C39.87767356 115.52749355 39.8222544 114.04934289 39.79467773 112.57202148 C39.7647599 111.16067177 39.7647599 111.16067177 39.73423767 109.72080994 C39.70916893 108.18645042 39.70916893 108.18645042 39.68359375 106.62109375 C39.66281265 105.57929459 39.64203156 104.53749542 39.62062073 103.46412659 C39.55500943 100.12198753 39.49618669 96.77976715 39.4375 93.4375 C39.39432578 91.17772582 39.35071186 88.91795999 39.30664062 86.65820312 C39.19931633 81.10555579 39.09757188 75.55282679 39 70 C33.5612681 70.63878935 30.54801975 71.56495815 26.1875 74.9375 C25.25292969 75.64777344 24.31835938 76.35804688 23.35546875 77.08984375 C20.99125844 78.93952067 20.99125844 78.93952067 19 81 C18.76665034 83.62494865 18.65062507 86.15252105 18.62109375 88.78125 C18.60409927 89.55053833 18.5871048 90.31982666 18.56959534 91.11242676 C18.51638232 93.57486734 18.47613732 96.0372909 18.4375 98.5 C18.3935846 100.96262189 18.34687621 103.42511235 18.29469299 105.88757324 C18.26272312 107.42108322 18.23583691 108.95470907 18.21446228 110.48840332 C18.11168865 115.77662271 18.11168865 115.77662271 17 118 C11.39 118 5.78 118 0 118 C0 79.06 0 40.12 0 0 Z"></path>
<path transform="translate(474,408)" fill="#FDFDFD" d="M0 0 C5.61 0 11.22 0 17 0 C18.67589689 1.67589689 18.15057278 3.73802701 18.17358398 6.03881836 C18.18707382 7.11340805 18.20056366 8.18799774 18.21446228 9.29515076 C18.22490067 10.46489944 18.23533905 11.63464813 18.24609375 12.83984375 C18.2790262 15.28841511 18.31223794 17.73698273 18.34570312 20.18554688 C18.39320229 24.06792667 18.43762907 27.95029063 18.47680664 31.83276367 C18.51637691 35.56445316 18.56795483 39.29582637 18.62109375 43.02734375 C18.6295079 44.19506821 18.63792206 45.36279266 18.64659119 46.56590271 C18.66323318 47.64364456 18.67987518 48.72138641 18.69702148 49.83178711 C18.70732895 50.78363388 18.71763641 51.73548065 18.72825623 52.71617126 C18.78464729 55.19705216 18.78464729 55.19705216 21 57 C26.48566871 57 30.37235835 54.14658743 34.828125 51.27734375 C37 50 37 50 39 50 C39.82976586 47.08583387 40.14131292 44.45702681 40.18945312 41.4309082 C40.21452942 40.08480217 40.21452942 40.08480217 40.2401123 38.71150208 C40.25368774 37.7509642 40.26726318 36.79042633 40.28125 35.80078125 C40.29965942 34.80999069 40.31806885 33.81920013 40.33703613 32.79838562 C40.41572228 28.55962909 40.48369541 24.32071786 40.55224609 20.08178711 C40.60381258 16.98803459 40.66110142 13.89442543 40.71875 10.80078125 C40.73232544 9.83417068 40.74590088 8.86756012 40.7598877 7.87165833 C40.78496399 6.53973701 40.78496399 6.53973701 40.81054688 5.1809082 C40.82933899 4.0032061 40.82933899 4.0032061 40.84851074 2.80171204 C41 1 41 1 42 0 C43.93331809 -0.15209159 45.87341284 -0.22186331 47.8125 -0.25 C48.87082031 -0.27578125 49.92914062 -0.3015625 51.01953125 -0.328125 C54.57739998 0.06356697 55.63415372 0.30695555 58 3 C58.61338226 6.30121673 58.53569456 9.57689489 58.49609375 12.92578125 C58.49754898 13.90612839 58.49900421 14.88647552 58.50050354 15.89653015 C58.49884287 17.97198454 58.4872629 20.04745102 58.46655273 22.12280273 C58.43770414 25.29008775 58.44591954 28.45568818 58.45898438 31.62304688 C58.45274362 33.6406331 58.44435006 35.65821405 58.43359375 37.67578125 C58.43652939 38.61972244 58.43946503 39.56366364 58.44248962 40.53620911 C58.35012631 47.02279768 57.43459646 51.49777586 52.75 56.3125 C49.46962919 58.32545481 46.80617265 58.70147665 43 59 C43 59.66 43 60.32 43 61 C44.8253125 61.3403125 44.8253125 61.3403125 46.6875 61.6875 C50.98524908 62.76003561 53.18010228 64.51659694 56 68 C57.70784384 70.89622192 58.25396166 73.00288805 58.2746582 76.35375977 C58.28895622 77.63012047 58.28895622 77.63012047 58.30354309 78.93226624 C58.30263168 79.84278244 58.30172028 80.75329865 58.30078125 81.69140625 C58.30506638 82.63306137 58.3093515 83.57471649 58.31376648 84.54490662 C58.31950275 86.53277788 58.32001522 88.52067013 58.31567383 90.50854492 C58.31250791 93.55488651 58.33600236 96.60026241 58.36132812 99.64648438 C58.36360054 101.57812377 58.36430488 103.50976579 58.36328125 105.44140625 C58.372491 106.35394669 58.38170074 107.26648712 58.39118958 108.2066803 C58.38496078 109.05443527 58.37873199 109.90219025 58.37231445 110.77563477 C58.37294388 111.52079849 58.3735733 112.26596222 58.3742218 113.03370667 C57.88955938 115.58029399 57.0634724 116.46530139 55 118 C51.64453125 118.29296875 51.64453125 118.29296875 47.8125 118.1875 C46.54019531 118.16042969 45.26789062 118.13335938 43.95703125 118.10546875 C42.49330078 118.05326172 42.49330078 118.05326172 41 118 C40.970271 116.03208496 40.970271 116.03208496 40.93994141 114.02441406 C40.8638625 109.15638045 40.77514836 104.28864484 40.68261719 99.42089844 C40.64433694 97.31418746 40.6094824 95.20741133 40.578125 93.10058594 C40.53245402 90.07202879 40.47446255 87.04391978 40.4140625 84.015625 C40.40251129 83.07382385 40.39096008 82.13202271 40.37905884 81.16168213 C40.35918915 80.28107117 40.33931946 79.40046021 40.31884766 78.49316406 C40.30552399 77.72039124 40.29220032 76.94761841 40.2784729 76.15142822 C39.9674872 73.74881231 39.19312386 72.09289862 38 70 C33.4944156 70.55799289 30.5596686 72.30352624 26.8125 74.8125 C25.24435547 75.84310547 25.24435547 75.84310547 23.64453125 76.89453125 C20.9283695 79.05702931 20.15562965 79.82892069 19 83 C18.77621762 85.62894708 18.65184084 88.1622065 18.62109375 90.79296875 C18.60409927 91.53960281 18.5871048 92.28623688 18.56959534 93.05549622 C18.51659552 95.43274567 18.47620776 97.80997824 18.4375 100.1875 C18.39359934 102.57564772 18.34696899 104.96365936 18.29469299 107.35163879 C18.26268268 108.83614354 18.23580919 110.32076933 18.21446228 111.8054657 C18.11177604 116.88822396 18.11177604 116.88822396 17 118 C11.39 118 5.78 118 0 118 C0 79.06 0 40.12 0 0 Z"></path>
<path transform="translate(228.37109375,407.86328125)" fill="#FDFDFD" d="M0 0 C0.70253906 0.00386719 1.40507812 0.00773437 2.12890625 0.01171875 C2.83144531 0.00785156 3.53398437 0.00398438 4.2578125 0 C9.50229247 0.01010497 9.50229247 0.01010497 10.62890625 1.13671875 C10.78907791 3.94648393 10.88841159 6.73445471 10.9453125 9.546875 C10.9660936 10.38890976 10.98687469 11.23094452 11.00828552 12.09849548 C11.07387437 14.79865054 11.13270901 17.49890592 11.19140625 20.19921875 C11.23458262 22.02540116 11.27819661 23.85157329 11.32226562 25.67773438 C11.42956519 30.16395867 11.53080591 34.65028425 11.62890625 39.13671875 C12.85407959 39.15859253 12.85407959 39.15859253 14.10400391 39.1809082 C17.82110385 39.25558798 21.53732544 39.35218487 25.25390625 39.44921875 C26.53910156 39.47177734 27.82429688 39.49433594 29.1484375 39.51757812 C30.39238281 39.55302734 31.63632812 39.58847656 32.91796875 39.625 C34.05959473 39.65118408 35.2012207 39.67736816 36.37744141 39.7043457 C41.21227408 40.34727172 45.33831423 42.1717721 48.44140625 46.01171875 C51.46635554 50.33307487 51.75110936 54.00431812 51.77416992 59.18310547 C51.78054977 60.16117157 51.78692963 61.13923767 51.79350281 62.14694214 C51.79461563 63.1928653 51.79572845 64.23878845 51.796875 65.31640625 C51.8018676 66.94559494 51.8018676 66.94559494 51.80696106 68.60769653 C51.81201729 70.9023598 51.81436979 73.19703039 51.81420898 75.49169922 C51.81639393 78.99198592 51.83455953 82.49195658 51.85351562 85.9921875 C51.85645016 88.22525934 51.85843455 90.45833268 51.859375 92.69140625 C51.86656052 93.73328094 51.87374603 94.77515564 51.88114929 95.84860229 C51.84155611 108.51647549 51.84155611 108.51647549 47.25390625 113.94921875 C43.43335404 117.13301226 40.84884466 118.39058939 35.86035156 118.36376953 C34.44934174 118.36354294 34.44934174 118.36354294 33.00982666 118.36331177 C31.49869293 118.34782791 31.49869293 118.34782791 29.95703125 118.33203125 C28.91947693 118.32920135 27.88192261 118.32637146 26.81292725 118.32345581 C23.50146924 118.3122674 20.19028241 118.28716502 16.87890625 118.26171875 C14.63281641 118.25168723 12.38672232 118.24256168 10.140625 118.234375 C4.63662634 118.21233245 -0.86721433 118.17886807 -6.37109375 118.13671875 C-6.39442336 102.89908811 -6.41207323 87.66145829 -6.42290592 72.42381382 C-6.42806875 65.34918688 -6.43511119 58.27457101 -6.4465332 51.19995117 C-6.45754056 44.37892997 -6.46336993 37.55792031 -6.46597099 30.73689079 C-6.4678258 28.12804927 -6.47144745 25.51920842 -6.47682381 22.91037178 C-6.48403018 19.27039323 -6.48508486 15.630463 -6.48461914 11.99047852 C-6.48821442 10.90003738 -6.49180969 9.80959625 -6.49551392 8.68611145 C-6.49413925 7.70028076 -6.49276459 6.71445007 -6.49134827 5.69874573 C-6.49227006 4.83686929 -6.49319185 3.97499285 -6.49414158 3.08699894 C-6.23620178 -1.0012884 -3.45471496 0.00665648 0 0 Z M10.62890625 59.13671875 C10.51537609 62.07037621 10.46471917 64.97960337 10.4609375 67.9140625 C10.4576091 68.795746 10.4542807 69.6774295 10.45085144 70.58583069 C10.44577842 72.45459469 10.44344323 74.32336779 10.44360352 76.19213867 C10.44141817 79.05858219 10.4232697 81.92464035 10.40429688 84.79101562 C10.40136286 86.60286326 10.39937812 88.41471273 10.3984375 90.2265625 C10.39125198 91.08805405 10.38406647 91.94954559 10.37666321 92.83714294 C10.17530179 97.46661956 10.17530179 97.46661956 12.62890625 101.13671875 C19.18063012 101.83351811 26.16679903 102.27020529 31.62890625 98.13671875 C34.92623557 93.18929177 34.00085683 87.00291986 33.99951172 81.29223633 C34.00388578 79.20896685 34.04023181 77.12781699 34.078125 75.04492188 C34.08199219 73.72556641 34.08585937 72.40621094 34.08984375 71.046875 C34.10217041 69.23908569 34.10217041 69.23908569 34.11474609 67.39477539 C33.53804193 63.5273799 32.34323006 61.89561741 29.62890625 59.13671875 C26.45496936 57.54975031 23.0471642 57.99357405 19.56640625 58.01171875 C18.44782227 58.00591797 18.44782227 58.00591797 17.30664062 58 C13.66973301 57.66460723 13.66973301 57.66460723 10.62890625 59.13671875 Z"></path>
<path transform="translate(1,557)" fill="#FCFCFC" d="M0 0 C4.95 0 9.9 0 15 0 C16.59310764 1.59310764 16.14862232 3.26399264 16.17358398 5.47216797 C16.18707382 6.42340546 16.20056366 7.37464294 16.21446228 8.35470581 C16.22490067 9.39007477 16.23533905 10.42544373 16.24609375 11.4921875 C16.27903142 13.66276446 16.31224308 15.83333728 16.34570312 18.00390625 C16.39315877 21.44284205 16.43757712 24.88176093 16.47680664 28.32080078 C16.51644499 31.62811101 16.56801189 34.93506961 16.62109375 38.2421875 C16.6295079 39.273508 16.63792206 40.30482849 16.64659119 41.36740112 C16.66323318 42.32494293 16.67987518 43.28248474 16.69702148 44.26904297 C16.70732895 45.11207977 16.71763641 45.95511658 16.72825623 46.82369995 C16.87169494 49.29215257 16.87169494 49.29215257 19 52 C25.91056456 51.05509129 31.47368448 49.59149952 36 44 C37.98640618 37.17579804 37.30871646 29.71232918 37.125 22.6875 C37.10194456 19.75921887 37.09392345 16.8311422 37.08639526 13.90278625 C37.07582769 12.08527418 37.05286835 10.26778396 37.01638794 8.4506073 C36.89760312 2.20479376 36.89760312 2.20479376 38 0 C39.93681161 -0.08107583 41.8745934 -0.13922475 43.8125 -0.1875 C44.89144531 -0.22230469 45.97039063 -0.25710938 47.08203125 -0.29296875 C50 0 50 0 51.65711975 1.26774597 C53.2797203 3.36082638 53.38390941 4.38587693 53.40405273 7.0090332 C53.41673691 7.81029129 53.42942108 8.61154938 53.44248962 9.43708801 C53.43955399 10.29960678 53.43661835 11.16212555 53.43359375 12.05078125 C53.4388356 12.94234421 53.44407745 13.83390717 53.44947815 14.75248718 C53.45590236 16.63958699 53.45455618 18.52672681 53.44604492 20.41381836 C53.43756165 23.29158629 53.46624643 26.16735148 53.49804688 29.04492188 C53.49965974 30.88020774 53.49907973 32.71549711 53.49609375 34.55078125 C53.51294472 35.83545036 53.51294472 35.83545036 53.53013611 37.14607239 C53.46729622 42.57678157 52.61968327 45.69671428 49 50 C45.56397188 52.57702109 44.39927132 53 40 53 C40 53.99 40 54.98 40 56 C40.886875 56.0825 41.77375 56.165 42.6875 56.25 C46.98641763 57.22333984 49.72991683 58.99979252 52.11694336 62.7590332 C53.23717742 65.60189427 53.30686464 67.98965546 53.37890625 71.04296875 C53.41306641 72.19861328 53.44722656 73.35425781 53.48242188 74.54492188 C53.50884766 75.74697266 53.53527344 76.94902344 53.5625 78.1875 C53.62214059 80.57693041 53.68571974 82.96626694 53.75390625 85.35546875 C53.77783447 86.41403076 53.8017627 87.47259277 53.82641602 88.56323242 C53.72884437 90.94720297 53.72884437 90.94720297 55 92 C56.155 92.165 57.31 92.33 58.5 92.5 C62 93 62 93 63 94 C63.09974389 95.90284987 63.1308063 97.80938253 63.1328125 99.71484375 C63.13474609 101.45604492 63.13474609 101.45604492 63.13671875 103.23242188 C63.13285156 104.45509766 63.12898438 105.67777344 63.125 106.9375 C63.13080078 108.76571289 63.13080078 108.76571289 63.13671875 110.63085938 C63.13542969 111.79294922 63.13414063 112.95503906 63.1328125 114.15234375 C63.13168457 115.22476318 63.13055664 116.29718262 63.12939453 117.40209961 C63 120 63 120 62 122 C57.05 122 52.1 122 47 122 C46.67 118.04 46.34 114.08 46 110 C44.88625 109.87625 43.7725 109.7525 42.625 109.625 C39 109 39 109 37 107 C36.7215271 105.16500854 36.7215271 105.16500854 36.68115234 102.91748047 C36.66128265 102.07675995 36.64141296 101.23603943 36.62094116 100.36984253 C36.60938995 99.46146637 36.59783875 98.55309021 36.5859375 97.6171875 C36.56657135 96.68778351 36.5472052 95.75837952 36.5272522 94.80081177 C36.46736315 91.8256352 36.4210339 88.85042012 36.375 85.875 C36.33682879 83.86066 36.29777757 81.84633646 36.2578125 79.83203125 C36.161654 74.88815425 36.0776576 69.94420083 36 65 C34.68 64.34 33.36 63.68 32 63 C27.05 65.64 22.1 68.28 17 71 C16.67 83.21 16.34 95.42 16 108 C11.22041378 110.38979311 5.34373985 109 0 109 C0 73.03 0 37.06 0 0 Z"></path>
<path transform="translate(367,557)" fill="#FDFDFD" d="M0 0 C0 35.64 0 71.28 0 108 C-2.73077876 109.36538938 -4.95560367 109.13231826 -8 109.125 C-9.60875 109.12886719 -9.60875 109.12886719 -11.25 109.1328125 C-14 109 -14 109 -16 108 C-16.00808685 106.88944244 -16.01617371 105.77888489 -16.02450562 104.63467407 C-16.10187167 94.18673054 -16.18958648 83.73891876 -16.28752708 73.29114723 C-16.33754847 67.91938502 -16.38387784 62.54764304 -16.421875 57.17578125 C-16.45865418 51.99506884 -16.50499371 46.81452335 -16.55806351 41.63395309 C-16.57664675 39.65396416 -16.59174005 37.67393939 -16.60334396 35.69389725 C-16.62013941 32.92808051 -16.6491576 30.16264934 -16.68115234 27.39697266 C-16.68331253 26.57194748 -16.68547272 25.7469223 -16.68769836 24.89689636 C-16.57704877 20.47868672 -16.57704877 20.47868672 -19 17 C-24.61 17 -30.22 17 -36 17 C-36.33 47.03 -36.66 77.06 -37 108 C-39.42891182 109.21445591 -41.00719443 109.12924198 -43.71875 109.1328125 C-44.65074219 109.13410156 -45.58273437 109.13539063 -46.54296875 109.13671875 C-48.00669922 109.13091797 -48.00669922 109.13091797 -49.5 109.125 C-50.96373047 109.13080078 -50.96373047 109.13080078 -52.45703125 109.13671875 C-53.85501953 109.13478516 -53.85501953 109.13478516 -55.28125 109.1328125 C-56.13783203 109.13168457 -56.99441406 109.13055664 -57.87695312 109.12939453 C-60 109 -60 109 -62 108 C-62 103.05 -62 98.1 -62 93 C-58.535 92.01 -58.535 92.01 -55 91 C-53.51068786 88.02137572 -53.84706257 84.97479079 -53.84228516 81.70800781 C-53.83720444 80.95657501 -53.83212372 80.20514221 -53.82688904 79.43093872 C-53.81617615 77.79618756 -53.80755958 76.16142164 -53.80076981 74.52664948 C-53.78898998 71.93718283 -53.76953826 69.34788367 -53.74765015 66.75848389 C-53.68601246 59.39503575 -53.63203493 52.03160331 -53.59863281 44.66796875 C-53.57765884 40.16568141 -53.54233021 35.66369696 -53.49787521 31.16158295 C-53.48373266 29.4472689 -53.47499672 27.73290124 -53.47182083 26.0185318 C-53.46689868 23.61522368 -53.44370685 21.21271526 -53.41650391 18.80957031 C-53.41951004 18.10492645 -53.42251617 17.40028259 -53.4256134 16.67428589 C-53.32935813 10.93296253 -51.73676772 7.00813768 -48 2.6875 C-35.75218385 -7.64659488 -16.02505904 0 0 0 Z"></path>
<path transform="translate(487.537353515625,556.530029296875)" fill="#FDFDFD" d="M0 0 C0.89094864 -0.00292557 1.78189728 -0.00585114 2.69984436 -0.00886536 C3.65410812 0.00864273 4.60837189 0.02615082 5.59155273 0.04418945 C6.57759995 0.04747757 7.56364716 0.05076569 8.57957458 0.05415344 C10.66167816 0.06456762 12.74375282 0.0845062 14.82568359 0.11328125 C18.01668197 0.1573538 21.20692829 0.17471764 24.39819336 0.18676758 C26.4209907 0.20019196 28.44377876 0.21511502 30.46655273 0.23168945 C31.90098473 0.24276985 31.90098473 0.24276985 33.36439514 0.2540741 C34.69608986 0.27332695 34.69608986 0.27332695 36.0546875 0.29296875 C36.83538101 0.30281296 37.61607452 0.31265717 38.42042542 0.32279968 C40.46264648 0.4699707 40.46264648 0.4699707 43.46264648 1.4699707 C45.81269979 4.80100957 45.72038023 7.92963559 45.72827148 11.9152832 C45.73213867 13.77733398 45.73213867 13.77733398 45.73608398 15.67700195 C45.72834961 16.96993164 45.72061523 18.26286133 45.71264648 19.5949707 C45.72424805 21.5459668 45.72424805 21.5459668 45.73608398 23.53637695 C45.73350586 24.77516602 45.73092773 26.01395508 45.72827148 27.2902832 C45.72601562 28.42739746 45.72375977 29.56451172 45.72143555 30.73608398 C45.46264648 33.4699707 45.46264648 33.4699707 43.46264648 35.4699707 C40.49389648 35.7355957 40.49389648 35.7355957 36.96264648 35.7199707 C35.79733398 35.72512695 34.63202148 35.7302832 33.43139648 35.7355957 C30.46264648 35.4699707 30.46264648 35.4699707 28.46264648 33.4699707 C28.07392355 29.86544899 27.95483123 26.27927859 27.80639648 22.6574707 C27.78993041 19.37911235 27.78993041 19.37911235 25.46264648 17.4699707 C22.55329069 17.32479327 19.74270048 17.28366275 16.83764648 17.3449707 C16.03584961 17.35399414 15.23405273 17.36301758 14.40795898 17.37231445 C12.42606126 17.39590847 10.44431668 17.43178006 8.46264648 17.4699707 C8.36996901 26.65807009 8.29889324 35.84600861 8.2553978 45.03447342 C8.23452215 49.30106362 8.20620539 53.56733407 8.16088867 57.83374023 C8.11742938 61.95103854 8.09350921 66.06802928 8.08313751 70.18553925 C8.07574622 71.75645541 8.0613126 73.32735472 8.03972626 74.89813995 C8.01068966 77.0985604 8.00669036 79.29770983 8.00854492 81.49829102 C7.99966248 82.75071594 7.99078003 84.00314087 7.98162842 85.29351807 C8.55114716 89.0543941 9.43807141 90.23250694 12.46264648 92.4699707 C15.40102739 93.02651276 15.40102739 93.02651276 18.52514648 92.8449707 C19.56799805 92.83208008 20.61084961 92.81918945 21.68530273 92.8059082 C24.67126795 92.6564479 24.67126795 92.6564479 27.46264648 90.4699707 C28.0123389 87.19031088 28.0123389 87.19031088 28.08764648 83.4699707 C28.381929 76.63140568 28.381929 76.63140568 29.46264648 74.4699707 C34.41264648 74.4699707 39.36264648 74.4699707 44.46264648 74.4699707 C46.74413388 79.03294549 45.78284565 85.27317629 45.83764648 90.2824707 C45.8750293 91.56702148 45.91241211 92.85157227 45.95092773 94.17504883 C45.9625293 95.41319336 45.97413086 96.65133789 45.98608398 97.92700195 C46.01581299 99.6282019 46.01581299 99.6282019 46.04614258 101.36376953 C45.240645 105.65178028 44.05774116 107.001252 40.46264648 109.4699707 C37.11384064 110.1425261 33.85959792 110.07664965 30.45483398 109.9934082 C29.49239777 109.98870514 28.52996155 109.98400208 27.5383606 109.97915649 C24.47072144 109.95784675 21.40482219 109.90124474 18.33764648 109.8449707 C16.26604818 109.82846007 14.19443143 109.81411291 12.12280273 109.80200195 C8.33595588 109.7680697 4.54929886 109.73319071 0.76293945 109.6628418 C0.00302704 109.64998138 -0.75688538 109.63712097 -1.53982544 109.62387085 C-3.53735352 109.4699707 -3.53735352 109.4699707 -6.53735352 108.4699707 C-8.34349534 105.69802413 -8.78972606 103.49153199 -8.80477905 100.21948242 C-8.81330902 99.378349 -8.82183899 98.53721558 -8.83062744 97.67059326 C-8.82972107 96.75618469 -8.8288147 95.84177612 -8.82788086 94.8996582 C-8.83459808 93.93014221 -8.84131531 92.96062622 -8.84823608 91.96173096 C-8.86723847 88.75609214 -8.87114111 85.55066234 -8.87329102 82.3449707 C-8.87971623 80.11824456 -8.88644438 77.89151927 -8.89346313 75.66479492 C-8.90544069 70.99762005 -8.90914335 66.33051924 -8.90795898 61.66333008 C-8.90775551 55.67748833 -8.93508542 49.69211984 -8.9695034 43.70639038 C-8.99171657 39.10821339 -8.99579828 34.51015143 -8.99473953 29.91192627 C-8.99710285 27.70467494 -9.00596723 25.49742078 -9.02140427 23.29022217 C-9.04095557 20.20656932 -9.03526922 17.123952 -9.02319336 14.0402832 C-9.03443237 13.12587463 -9.04567139 12.21146606 -9.05725098 11.26934814 C-8.99616719 5.14469057 -8.99616719 5.14469057 -6.79057312 1.90119934 C-4.25943733 0.29344037 -2.97431913 -0.0223267 0 0 Z"></path>
<path transform="translate(388.125,556.8671875)" fill="#FDFDFD" d="M0 0 C1.27875 0.00257813 2.5575 0.00515625 3.875 0.0078125 C5.15375 0.00523437 6.4325 0.00265625 7.75 0 C10.875 0.1328125 10.875 0.1328125 11.875 1.1328125 C12.03496166 3.72434357 12.13438697 6.2923327 12.19140625 8.88671875 C12.21218735 9.66216537 12.23296844 10.437612 12.25437927 11.23655701 C12.31995802 13.72271558 12.37879799 16.20898295 12.4375 18.6953125 C12.48067733 20.37696454 12.52429136 22.05860544 12.56835938 23.74023438 C12.67564779 27.87098121 12.77689132 32.00183786 12.875 36.1328125 C13.62595947 36.1421582 14.37691895 36.15150391 15.15063477 36.16113281 C18.58023644 36.21508814 22.00851108 36.29868797 25.4375 36.3828125 C26.61892578 36.39699219 27.80035156 36.41117188 29.01757812 36.42578125 C35.7642145 36.61476266 40.5099369 36.86431237 45.875 41.1328125 C48.41285657 44.67687989 49.25335474 47.13113785 49.27905273 51.47045898 C49.29173691 52.51181503 49.30442108 53.55317108 49.31748962 54.62608337 C49.31455399 55.74076492 49.31161835 56.85544647 49.30859375 58.00390625 C49.3138356 59.15899185 49.31907745 60.31407745 49.32447815 61.50416565 C49.33089481 63.94425656 49.329566 66.38437842 49.32104492 68.82446289 C49.31253845 72.5534588 49.34129841 76.28092112 49.37304688 80.00976562 C49.3746591 82.38281204 49.37408095 84.75586117 49.37109375 87.12890625 C49.38794472 88.79789223 49.38794472 88.79789223 49.40513611 90.50059509 C49.34951868 96.69323547 49.04120307 100.43132253 44.875 105.1328125 C41.10582007 108.54863181 37.6483526 109.2617426 32.65722656 109.24633789 C31.83667786 109.24626236 31.01612915 109.24618683 30.17071533 109.24610901 C29.29453552 109.24094772 28.41835571 109.23578644 27.515625 109.23046875 C26.15905792 109.22834633 26.15905792 109.22834633 24.77508545 109.22618103 C21.89168973 109.22059161 19.00837218 109.20804103 16.125 109.1953125 C14.16796987 109.19029613 12.21093853 109.18573346 10.25390625 109.18164062 C5.46090747 109.17062563 0.66796698 109.15336824 -4.125 109.1328125 C-4.14833039 95.06863593 -4.16591345 81.00446235 -4.17681217 66.94027042 C-4.1820417 60.41045017 -4.18914061 53.88064287 -4.20043945 47.35083008 C-4.21126585 41.05500091 -4.21727631 34.75918424 -4.21987724 28.46334648 C-4.22173194 26.05546306 -4.2253534 23.64758036 -4.23073006 21.23970222 C-4.2379372 17.87991964 -4.23899108 14.5201894 -4.23852539 11.16040039 C-4.24212067 10.15411591 -4.24571594 9.14783142 -4.24942017 8.11105347 C-4.2480455 7.20095016 -4.24667084 6.29084686 -4.24525452 5.35316467 C-4.24663721 4.15990366 -4.24663721 4.15990366 -4.24804783 2.94253635 C-4.03135989 -0.2443979 -3.25178057 0.13820067 0 0 Z M11.875 54.1328125 C11.78638008 56.9444463 11.75977645 59.73139505 11.77734375 62.54296875 C11.7787587 63.38500351 11.78017365 64.22703827 11.78163147 65.09458923 C11.78724737 67.79486585 11.79980252 70.49506078 11.8125 73.1953125 C11.81751295 75.02148318 11.82207621 76.84765516 11.82617188 78.67382812 C11.83722196 83.16018792 11.85449721 87.64648634 11.875 92.1328125 C14.43419182 93.41240841 16.32984028 93.30097786 19.1875 93.3203125 C20.13238281 93.33449219 21.07726562 93.34867188 22.05078125 93.36328125 C25.95650651 93.04455678 28.71929501 92.32181155 31.49365234 89.4675293 C34.13011185 85.01145608 33.35360136 79.71119182 33.32104492 74.66064453 C33.31252446 72.63861617 33.3413264 70.61940643 33.37304688 68.59765625 C33.37240234 67.32019531 33.37175781 66.04273438 33.37109375 64.7265625 C33.37294678 63.55802734 33.3747998 62.38949219 33.37670898 61.18554688 C32.77554642 57.52767013 31.7450572 56.39486061 28.875 54.1328125 C25.88816593 52.63939547 23.13100226 53.00106072 19.8125 53.0078125 C18.54277344 53.00523437 17.27304687 53.00265625 15.96484375 53 C13.00399299 52.77845666 13.00399299 52.77845666 11.875 54.1328125 Z"></path>
<path transform="translate(217.125,556.8671875)" fill="#FDFDFD" d="M0 0 C1.27875 0.00257813 2.5575 0.00515625 3.875 0.0078125 C5.15375 0.00523437 6.4325 0.00265625 7.75 0 C10.875 0.1328125 10.875 0.1328125 11.875 1.1328125 C12.03496166 3.72434357 12.13438697 6.2923327 12.19140625 8.88671875 C12.21218735 9.66216537 12.23296844 10.437612 12.25437927 11.23655701 C12.31995802 13.72271558 12.37879799 16.20898295 12.4375 18.6953125 C12.48067733 20.37696454 12.52429136 22.05860544 12.56835938 23.74023438 C12.67564779 27.87098121 12.77689132 32.00183786 12.875 36.1328125 C13.62595947 36.1421582 14.37691895 36.15150391 15.15063477 36.16113281 C18.58023644 36.21508814 22.00851108 36.29868797 25.4375 36.3828125 C26.61892578 36.39699219 27.80035156 36.41117188 29.01757812 36.42578125 C35.7642145 36.61476266 40.5099369 36.86431237 45.875 41.1328125 C48.41285657 44.67687989 49.25335474 47.13113785 49.27905273 51.47045898 C49.29173691 52.51181503 49.30442108 53.55317108 49.31748962 54.62608337 C49.31455399 55.74076492 49.31161835 56.85544647 49.30859375 58.00390625 C49.3138356 59.15899185 49.31907745 60.31407745 49.32447815 61.50416565 C49.33089481 63.94425656 49.329566 66.38437842 49.32104492 68.82446289 C49.31253845 72.5534588 49.34129841 76.28092112 49.37304688 80.00976562 C49.3746591 82.38281204 49.37408095 84.75586117 49.37109375 87.12890625 C49.38794472 88.79789223 49.38794472 88.79789223 49.40513611 90.50059509 C49.34951868 96.69323547 49.04120307 100.43132253 44.875 105.1328125 C41.10582007 108.54863181 37.6483526 109.2617426 32.65722656 109.24633789 C31.83667786 109.24626236 31.01612915 109.24618683 30.17071533 109.24610901 C29.29453552 109.24094772 28.41835571 109.23578644 27.515625 109.23046875 C26.15905792 109.22834633 26.15905792 109.22834633 24.77508545 109.22618103 C21.89168973 109.22059161 19.00837218 109.20804103 16.125 109.1953125 C14.16796987 109.19029613 12.21093853 109.18573346 10.25390625 109.18164062 C5.46090747 109.17062563 0.66796698 109.15336824 -4.125 109.1328125 C-4.14833039 95.06863593 -4.16591345 81.00446235 -4.17681217 66.94027042 C-4.1820417 60.41045017 -4.18914061 53.88064287 -4.20043945 47.35083008 C-4.21126585 41.05500091 -4.21727631 34.75918424 -4.21987724 28.46334648 C-4.22173194 26.05546306 -4.2253534 23.64758036 -4.23073006 21.23970222 C-4.2379372 17.87991964 -4.23899108 14.5201894 -4.23852539 11.16040039 C-4.24212067 10.15411591 -4.24571594 9.14783142 -4.24942017 8.11105347 C-4.2480455 7.20095016 -4.24667084 6.29084686 -4.24525452 5.35316467 C-4.24663721 4.15990366 -4.24663721 4.15990366 -4.24804783 2.94253635 C-4.03135989 -0.2443979 -3.25178057 0.13820067 0 0 Z M11.875 54.1328125 C11.78638008 56.9444463 11.75977645 59.73139505 11.77734375 62.54296875 C11.7787587 63.38500351 11.78017365 64.22703827 11.78163147 65.09458923 C11.78724737 67.79486585 11.79980252 70.49506078 11.8125 73.1953125 C11.81751295 75.02148318 11.82207621 76.84765516 11.82617188 78.67382812 C11.83722196 83.16018792 11.85449721 87.64648634 11.875 92.1328125 C14.43419182 93.41240841 16.32984028 93.30097786 19.1875 93.3203125 C20.13238281 93.33449219 21.07726562 93.34867188 22.05078125 93.36328125 C25.95650651 93.04455678 28.71929501 92.32181155 31.49365234 89.4675293 C34.13011185 85.01145608 33.35360136 79.71119182 33.32104492 74.66064453 C33.31252446 72.63861617 33.3413264 70.61940643 33.37304688 68.59765625 C33.37240234 67.32019531 33.37175781 66.04273438 33.37109375 64.7265625 C33.37294678 63.55802734 33.3747998 62.38949219 33.37670898 61.18554688 C32.77554642 57.52767013 31.7450572 56.39486061 28.875 54.1328125 C25.88816593 52.63939547 23.13100226 53.00106072 19.8125 53.0078125 C18.54277344 53.00523437 17.27304688 53.00265625 15.96484375 53 C13.00399299 52.77845666 13.00399299 52.77845666 11.875 54.1328125 Z"></path>
<path transform="translate(144,557)" fill="#FDFDFD" d="M0 0 C43 0 43 0 49 4 C52.57103077 7.94044774 53.11797752 11.54940447 53.16113281 16.74926758 C53.17074036 17.68736771 53.1803479 18.62546783 53.19024658 19.59199524 C53.19449646 20.59933212 53.19874634 21.60666901 53.203125 22.64453125 C53.20882507 23.6876799 53.21452515 24.73082855 53.22039795 25.80558777 C53.22983874 28.0120645 53.23637827 30.21855527 53.24023438 32.42504883 C53.24993363 35.7894773 53.28096368 39.15329312 53.3125 42.51757812 C53.31903111 44.66405888 53.32428116 46.810544 53.328125 48.95703125 C53.3404718 49.95829544 53.3528186 50.95955963 53.36553955 51.99116516 C53.34719946 57.78180318 52.81363084 61.89934696 50 67 C45.26294195 71.61559502 41.57010399 72.13045971 35.140625 72.09765625 C34.02558594 72.09443359 32.91054687 72.09121094 31.76171875 72.08789062 C30.60285156 72.07951172 29.44398438 72.07113281 28.25 72.0625 C27.07566406 72.05798828 25.90132812 72.05347656 24.69140625 72.04882812 C21.79421928 72.03705094 18.89713546 72.02060326 16 72 C16.01047363 73.04978027 16.02094727 74.09956055 16.03173828 75.18115234 C16.06788453 79.06865033 16.09088078 82.95613341 16.10986328 86.84375 C16.11993317 88.52769466 16.13358988 90.21162179 16.15087891 91.89550781 C16.17508426 94.31319501 16.18647296 96.73065143 16.1953125 99.1484375 C16.20563507 99.9036972 16.21595764 100.65895691 16.22659302 101.43710327 C16.22699318 103.2929398 16.12222716 105.1481928 16 107 C14 109 14 109 11.25 109.23046875 C9.64125 109.20919922 9.64125 109.20919922 8 109.1875 C6.9275 109.18105469 5.855 109.17460938 4.75 109.16796875 C2 109 2 109 0 108 C0 72.36 0 36.72 0 0 Z M16 17 C15.89896745 19.79993597 15.86029912 22.57468644 15.8671875 25.375 C15.86623077 26.21466309 15.86527405 27.05432617 15.86428833 27.91943359 C15.86360652 29.69824295 15.86546083 31.47705477 15.86962891 33.25585938 C15.87497717 35.98833776 15.86968395 38.72065176 15.86328125 41.453125 C15.86394203 43.1770837 15.86522319 44.90104229 15.8671875 46.625 C15.86516327 47.44790527 15.86313904 48.27081055 15.86105347 49.11865234 C15.5142454 52.86379866 15.5142454 52.86379866 17 56 C23.40771027 56.51819741 29.61680308 56.96656615 35 53 C38.27189046 47.95887031 37.32823818 41.84470795 37.3125 36.0625 C37.32861328 34.88236328 37.34472656 33.70222656 37.36132812 32.48632812 C37.36197266 31.34744141 37.36261719 30.20855469 37.36328125 29.03515625 C37.36626221 27.9975415 37.36924316 26.95992676 37.37231445 25.89086914 C36.94482334 22.57157587 35.94390851 20.69827891 34 18 C30.6468974 15.5351365 27.37406737 15.76246949 23.3125 15.8125 C22.15363281 15.81894531 20.99476563 15.82539062 19.80078125 15.83203125 C17.09538876 15.68344192 17.09538876 15.68344192 16 17 Z"></path>
<path transform="translate(80.16015625,556.90234375)" fill="#FCFCFC" d="M0 0 C1.93166016 0.01740234 1.93166016 0.01740234 3.90234375 0.03515625 C5.19269531 0.04417969 6.48304687 0.05320312 7.8125 0.0625 C8.81152344 0.07410156 9.81054688 0.08570313 10.83984375 0.09765625 C12.073059 2.56408675 11.97755069 4.21618683 11.99755859 6.97460938 C12.00782074 7.98906128 12.01808289 9.00351318 12.02865601 10.04870605 C12.03595734 11.14767212 12.04325867 12.24663818 12.05078125 13.37890625 C12.07883961 15.68750721 12.10750399 17.99610088 12.13671875 20.3046875 C12.17808072 23.95882035 12.21495268 27.6128154 12.24121094 31.26708984 C12.26869648 34.78381754 12.31455836 38.29991751 12.36328125 41.81640625 C12.36653412 42.91537231 12.36978699 44.01433838 12.37313843 45.14660645 C12.39798813 46.6682843 12.39798813 46.6682843 12.42333984 48.22070312 C12.43547012 49.56400696 12.43547012 49.56400696 12.44784546 50.93444824 C12.64188461 52.00523621 12.64188461 52.00523621 12.83984375 53.09765625 C16.25905922 55.37713323 17.74294552 55.4227873 21.77734375 55.47265625 C23.33775391 55.51519531 23.33775391 55.51519531 24.9296875 55.55859375 C27.83682478 55.28963144 27.83682478 55.28963144 29.98583984 53.7746582 C32.98071914 49.45034276 32.42322546 44.94167396 32.4140625 39.8046875 C32.43530937 38.15203133 32.43530937 38.15203133 32.45698547 36.46598816 C32.49893148 32.94727813 32.51413908 29.42908133 32.52734375 25.91015625 C32.55634988 22.38075771 32.59082617 18.85149101 32.62983704 15.32218933 C32.65241543 13.12540131 32.66817908 10.92853127 32.67668152 8.73164368 C32.68371597 7.74359238 32.69075043 6.75554108 32.69799805 5.73754883 C32.70147751 4.86358963 32.70495697 3.98963043 32.70854187 3.08918762 C32.83984375 1.09765625 32.83984375 1.09765625 33.83984375 0.09765625 C36.1929793 0.02493884 38.54818043 0.01394757 40.90234375 0.03515625 C42.19269531 0.04417969 43.48304687 0.05320312 44.8125 0.0625 C45.81152344 0.07410156 46.81054688 0.08570313 47.83984375 0.09765625 C49.02991203 2.47779282 48.97904857 3.9634648 49.00097656 6.61987305 C49.01058411 7.55812424 49.02019165 8.49637543 49.03009033 9.46305847 C49.03434021 10.48071793 49.03859009 11.49837738 49.04296875 12.546875 C49.04866882 13.59285355 49.0543689 14.63883209 49.0602417 15.71650696 C49.06970191 17.93493638 49.07622972 20.15337992 49.08007812 22.37182617 C49.0897546 25.75399635 49.12075678 29.13555142 49.15234375 32.51757812 C49.15887668 34.67317348 49.16412601 36.82877317 49.16796875 38.984375 C49.18031555 39.9919133 49.19266235 40.9994516 49.2053833 42.03752136 C49.18362207 48.95514779 48.20353213 53.59939745 44.27734375 59.41015625 C40.15164551 62.26640888 34.83462817 63.09765625 29.83984375 63.09765625 C30.33484375 68.04765625 30.33484375 68.04765625 30.83984375 73.09765625 C31.64808594 73.1234375 32.45632812 73.14921875 33.2890625 73.17578125 C42.0031402 73.6382896 42.0031402 73.6382896 46.02734375 75.84765625 C48.10830508 78.4309186 48.75905651 79.78537956 48.83984375 83.09765625 C47.77585302 86.91028972 47.21467865 87.84776632 43.83984375 90.09765625 C39.5141434 90.66867024 35.19936607 90.83867473 30.83984375 91.09765625 C30.50984375 96.70765625 30.17984375 102.31765625 29.83984375 108.09765625 C27.11442108 109.46036758 24.87897101 109.26689226 21.83984375 109.28515625 C20.76734375 109.29933594 19.69484375 109.31351563 18.58984375 109.328125 C15.83984375 109.09765625 15.83984375 109.09765625 13.83984375 107.09765625 C13.69466631 104.18830045 13.65353579 101.37771025 13.71484375 98.47265625 C13.72386719 97.67085937 13.73289062 96.8690625 13.7421875 96.04296875 C13.76578152 94.06107102 13.8016531 92.07932644 13.83984375 90.09765625 C12.95941406 90.1440625 12.07898438 90.19046875 11.171875 90.23828125 C10.01042969 90.274375 8.84898438 90.31046875 7.65234375 90.34765625 C5.92951172 90.41726563 5.92951172 90.41726563 4.171875 90.48828125 C0.17751296 90.02000903 -1.40395877 88.98169221 -4.16015625 86.09765625 C-4.7006732 82.3140376 -4.70778193 80.08859795 -2.84765625 76.72265625 C0.38443848 73.61026873 3.77779214 73.98946215 8.02734375 74.03515625 C9.11402344 74.04417969 10.20070313 74.05320312 11.3203125 74.0625 C12.15175781 74.07410156 12.98320313 74.08570313 13.83984375 74.09765625 C13.50984375 70.46765625 13.17984375 66.83765625 12.83984375 63.09765625 C11.49921875 63.05640625 10.15859375 63.01515625 8.77734375 62.97265625 C3.42170239 62.40578742 0.36460207 60.05251901 -3.16015625 56.09765625 C-4.42044577 53.57707722 -4.28714817 51.84207044 -4.28955078 49.02124023 C-4.29270294 47.96351913 -4.2958551 46.90579803 -4.29910278 45.81602478 C-4.29707855 44.6701741 -4.29505432 43.52432343 -4.29296875 42.34375 C-4.29392548 41.17256119 -4.2948822 40.00137238 -4.29586792 38.79469299 C-4.29654933 36.31568346 -4.29469778 33.83667214 -4.29052734 31.35766602 C-4.2851738 27.54764837 -4.29047617 23.73774836 -4.296875 19.92773438 C-4.29621431 17.52473932 -4.29493332 15.12174434 -4.29296875 12.71875 C-4.29499298 11.57087509 -4.29701721 10.42300018 -4.29910278 9.24034119 C-4.29595062 8.18577225 -4.29279846 7.13120331 -4.28955078 6.04467773 C-4.28875519 5.11139145 -4.28795959 4.17810516 -4.28713989 3.21653748 C-4.08057124 -0.2303194 -3.54193977 0.10945426 0 0 Z"></path>
<path transform="translate(5.3217926025390625,407.7527618408203)" fill="#FDFDFD" d="M0 0 C0.96961166 0.00142502 1.93922333 0.00285004 2.93821716 0.00431824 C4.03597977 0.00124161 5.13374237 -0.00183502 6.26477051 -0.00500488 C7.45436874 0.00218063 8.64396698 0.00936615 9.86961365 0.01676941 C11.692985 0.01745674 11.692985 0.01745674 13.55319214 0.01815796 C16.12636794 0.0211832 18.69954187 0.02907753 21.27268982 0.04142761 C25.22758924 0.05967762 29.18225466 0.06193741 33.13719177 0.06169128 C35.63133444 0.06660647 38.1254755 0.07243479 40.61961365 0.07926941 C41.81123611 0.08038223 43.00285858 0.08149506 44.23059082 0.0826416 C45.87250648 0.09221138 45.87250648 0.09221138 47.54759216 0.10197449 C48.51640823 0.10578629 49.4852243 0.10959808 50.48339844 0.11352539 C52.6782074 0.24723816 52.6782074 0.24723816 53.6782074 1.24723816 C53.75140361 3.94378669 53.77063277 6.61415274 53.7407074 9.30973816 C53.73619568 10.06835144 53.73168396 10.82696472 53.72703552 11.60856628 C53.7152142 13.48815687 53.69727817 15.36770715 53.6782074 17.24723816 C51.3816704 18.39550666 50.09507573 18.36284991 47.5453949 18.34489441 C46.73973083 18.34167175 45.93406677 18.3384491 45.10398865 18.33512878 C44.26223083 18.32674988 43.42047302 18.31837097 42.5532074 18.30973816 C41.70371521 18.30522644 40.85422302 18.30071472 39.97898865 18.29606628 C37.87869831 18.2842669 35.77844409 18.26633122 33.6782074 18.24723816 C33.68042801 19.48529709 33.68264862 20.72335602 33.68493652 21.99893188 C33.70516594 33.63909038 33.72017857 45.27924533 33.73001957 56.91941738 C33.73524891 62.90443082 33.74234747 68.88943012 33.75364685 74.87443542 C33.76447393 80.64507245 33.77048385 86.41569584 33.77308464 92.18634224 C33.77493922 94.39326759 33.77856044 96.60019216 33.78393745 98.80711174 C33.7911455 101.88669857 33.79219844 104.9662283 33.79173279 108.04582214 C33.79532806 108.96794998 33.79892334 109.89007782 33.80262756 110.84014893 C33.79225956 117.133186 33.79225956 117.133186 32.6782074 118.24723816 C30.16684635 118.34698848 27.68917325 118.38605999 25.1782074 118.37223816 C24.47566833 118.37610535 23.77312927 118.37997253 23.04930115 118.38395691 C17.80482118 118.37385194 17.80482118 118.37385194 16.6782074 117.24723816 C16.55283884 114.20394629 16.49208297 111.18226443 16.47288513 108.13761902 C16.46298553 107.18162308 16.45308594 106.22562714 16.44288635 105.24066162 C16.41116887 102.06449402 16.38647359 98.88831143 16.36180115 95.71208191 C16.34124046 93.51632283 16.32024423 91.32056779 16.29882812 89.12481689 C16.24351601 83.33307658 16.19414718 77.54130002 16.14598083 71.74949646 C16.09583237 65.84441382 16.04011165 59.93938412 15.98484802 54.03434753 C15.87715473 42.43868958 15.77573473 30.84298576 15.6782074 19.24723816 C14.40203552 19.19825378 13.12586365 19.14926941 11.8110199 19.09880066 C10.14172668 19.02377624 8.47245693 18.94822827 6.8032074 18.87223816 C5.96144958 18.84130066 5.11969177 18.81036316 4.25242615 18.77848816 C3.44676208 18.73981628 2.64109802 18.70114441 1.8110199 18.66130066 C1.06739197 18.62987976 0.32376404 18.59845886 -0.44239807 18.56608582 C-2.3217926 18.24723816 -2.3217926 18.24723816 -4.3217926 16.24723816 C-4.5874176 13.05973816 -4.5874176 13.05973816 -4.5717926 9.24723816 C-4.57694885 7.98911316 -4.5821051 6.73098816 -4.5874176 5.43473816 C-4.27699065 1.70961473 -3.8502264 0.4099948 0 0 Z"></path>
<path transform="translate(297.37109375,407.86328125)" fill="#FDFDFD" d="M0 0 C0.70253906 0.00386719 1.40507812 0.00773437 2.12890625 0.01171875 C2.83144531 0.00785156 3.53398437 0.00398438 4.2578125 0 C9.50229247 0.01010497 9.50229247 0.01010497 10.62890625 1.13671875 C10.7268232 2.63990579 10.75522424 4.14768008 10.75588989 5.65405273 C10.75870972 6.63002411 10.76152954 7.60599548 10.76443481 8.61154175 C10.76241058 9.6910611 10.76038635 10.77058044 10.75830078 11.8828125 C10.7600531 13.01276642 10.76180542 14.14272034 10.76361084 15.30691528 C10.76803207 19.06269848 10.76509041 22.81843503 10.76171875 26.57421875 C10.76239171 29.17114267 10.76336167 31.76806653 10.76461792 34.36499023 C10.76609526 39.81592464 10.76403376 45.26684133 10.75927734 50.71777344 C10.75383475 57.02811104 10.75559742 63.33841634 10.76110375 69.64875317 C10.76618056 75.70839575 10.76565334 81.76802247 10.76272202 87.82766724 C10.76205248 90.41138717 10.7628821 92.99510792 10.76520157 95.5788269 C10.7677265 99.18278218 10.76388975 102.78667445 10.75830078 106.390625 C10.76032501 107.47014435 10.76234924 108.5496637 10.76443481 109.66189575 C10.76020508 111.12585281 10.76020508 111.12585281 10.75588989 112.61938477 C10.75551287 113.47258804 10.75513584 114.32579132 10.75474739 115.20484924 C10.62890625 117.13671875 10.62890625 117.13671875 9.62890625 118.13671875 C6.93235771 118.20991496 4.26199167 118.22914412 1.56640625 118.19921875 C0.80779297 118.19470703 0.04917969 118.19019531 -0.73242188 118.18554688 C-2.61201246 118.17372555 -4.49156274 118.15578953 -6.37109375 118.13671875 C-6.39442336 102.89908811 -6.41207323 87.66145829 -6.42290592 72.42381382 C-6.42806875 65.34918688 -6.43511119 58.27457101 -6.4465332 51.19995117 C-6.45754056 44.37892997 -6.46336993 37.55792031 -6.46597099 30.73689079 C-6.4678258 28.12804927 -6.47144745 25.51920842 -6.47682381 22.91037178 C-6.48403018 19.27039323 -6.48508486 15.630463 -6.48461914 11.99047852 C-6.48821442 10.90003738 -6.49180969 9.80959625 -6.49551392 8.68611145 C-6.49413925 7.70028076 -6.49276459 6.71445007 -6.49134827 5.69874573 C-6.49227006 4.83686929 -6.49319185 3.97499285 -6.49414158 3.08699894 C-6.23620178 -1.0012884 -3.45471496 0.00665648 0 0 Z"></path>
<path transform="translate(448,557)" fill="#FDFDFD" d="M0 0 C2.31243792 -0.02685412 4.6249627 -0.04632841 6.9375 -0.0625 C8.22527344 -0.07410156 9.51304687 -0.08570313 10.83984375 -0.09765625 C14 0 14 0 15 1 C15.09543095 2.39143689 15.12188575 3.78768367 15.12025452 5.18238831 C15.12162918 6.08407745 15.12300385 6.9857666 15.12442017 7.91477966 C15.12082489 8.91171341 15.11722961 9.90864716 15.11352539 10.93579102 C15.11367142 11.97956909 15.11381744 13.02334717 15.1139679 14.09875488 C15.11326826 17.56715943 15.10547353 21.03551103 15.09765625 24.50390625 C15.09579225 26.90144318 15.09436826 29.2989805 15.09336853 31.69651794 C15.08954194 38.02095584 15.07971046 44.34537094 15.06866455 50.6697998 C15.05845345 57.11775402 15.05387156 63.56571191 15.04882812 70.01367188 C15.03808832 82.675791 15.02120119 95.33789429 15 108 C12.25494537 109.37252731 9.99672588 109.13229255 6.9375 109.125 C5.31134766 109.12886719 5.31134766 109.12886719 3.65234375 109.1328125 C1 109 1 109 0 108 C-0.0954693 106.59588683 -0.12188529 105.18700191 -0.12025452 103.77964783 C-0.12162918 102.86954453 -0.12300385 101.95944122 -0.12442017 101.02175903 C-0.12082489 100.01547455 -0.11722961 99.00919006 -0.11352539 97.97241211 C-0.11367142 96.91888046 -0.11381744 95.86534882 -0.1139679 94.77989197 C-0.11326826 91.279022 -0.10547348 87.77820448 -0.09765625 84.27734375 C-0.09579225 81.85738657 -0.09436826 79.43742901 -0.09336853 77.01747131 C-0.08954192 70.63384976 -0.07971041 64.25025079 -0.06866455 57.86663818 C-0.05845351 51.35836086 -0.05387157 44.8500799 -0.04882812 38.34179688 C-0.03808827 25.56118825 -0.02120112 12.78059533 0 0 Z"></path>
<path transform="translate(277,557)" fill="#FDFDFD" d="M0 0 C2.31243792 -0.02685412 4.6249627 -0.04632841 6.9375 -0.0625 C8.22527344 -0.07410156 9.51304687 -0.08570313 10.83984375 -0.09765625 C14 0 14 0 15 1 C15.09543095 2.39143689 15.12188575 3.78768367 15.12025452 5.18238831 C15.12162918 6.08407745 15.12300385 6.9857666 15.12442017 7.91477966 C15.12082489 8.91171341 15.11722961 9.90864716 15.11352539 10.93579102 C15.11367142 11.97956909 15.11381744 13.02334717 15.1139679 14.09875488 C15.11326826 17.56715943 15.10547353 21.03551103 15.09765625 24.50390625 C15.09579225 26.90144318 15.09436826 29.2989805 15.09336853 31.69651794 C15.08954194 38.02095584 15.07971046 44.34537094 15.06866455 50.6697998 C15.05845345 57.11775402 15.05387156 63.56571191 15.04882812 70.01367188 C15.03808832 82.675791 15.02120119 95.33789429 15 108 C12.25494537 109.37252731 9.99672588 109.13229255 6.9375 109.125 C5.31134766 109.12886719 5.31134766 109.12886719 3.65234375 109.1328125 C1 109 1 109 0 108 C-0.0954693 106.59588683 -0.12188529 105.18700191 -0.12025452 103.77964783 C-0.12162918 102.86954453 -0.12300385 101.95944122 -0.12442017 101.02175903 C-0.12082489 100.01547455 -0.11722961 99.00919006 -0.11352539 97.97241211 C-0.11367142 96.91888046 -0.11381744 95.86534882 -0.1139679 94.77989197 C-0.11326826 91.279022 -0.10547348 87.77820448 -0.09765625 84.27734375 C-0.09579225 81.85738657 -0.09436826 79.43742901 -0.09336853 77.01747131 C-0.08954192 70.63384976 -0.07971041 64.25025079 -0.06866455 57.86663818 C-0.05845351 51.35836086 -0.05387157 44.8500799 -0.04882812 38.34179688 C-0.03808827 25.56118825 -0.02120112 12.78059533 0 0 Z"></path>
<path transform="translate(345.563720703125,262.80712890625)" fill="#D6B46C" d="M0 0 C1.16493484 -0.01606293 2.32986969 -0.03212585 3.53010559 -0.04867554 C8.86008243 -0.09303347 14.18991106 -0.13462982 19.52001953 -0.15722656 C22.33415258 -0.17056214 25.14755981 -0.1984061 27.96142578 -0.23925781 C32.01176198 -0.29805908 36.06131978 -0.31588645 40.11206055 -0.33056641 C41.37053299 -0.35323578 42.62900543 -0.37590515 43.9256134 -0.39926147 C53.63740146 -0.37569271 53.63740146 -0.37569271 56.72753906 2.58300781 C58.98777502 6.03520418 59.1533049 8.01967826 58.93237305 12.03662109 C58.1308581 15.52037108 56.2323782 17.1120533 53.4362793 19.19287109 C50.45563891 20.18641789 48.45481915 20.33074036 45.34155273 20.35400391 C44.30327332 20.36361145 43.2649939 20.37321899 42.19525146 20.38311768 C41.0733844 20.38736755 39.95151733 20.39161743 38.7956543 20.39599609 C37.64011047 20.40169617 36.48456665 20.40739624 35.29400635 20.41326904 C32.84616004 20.42272178 30.39830099 20.42925411 27.95043945 20.43310547 C24.21502296 20.44279652 20.48016003 20.47381223 16.74487305 20.50537109 C14.36597006 20.51190269 11.98706314 20.51715254 9.6081543 20.52099609 C8.49438416 20.5333429 7.38061401 20.5456897 6.23309326 20.55841064 C0.18955031 20.54115165 -4.25370156 20.17505996 -9.5637207 17.19287109 C-11.60283789 14.71046756 -11.58624939 12.98635811 -11.9387207 9.75537109 C-11.50250432 5.61131545 -10.47241798 4.10156837 -7.5637207 1.19287109 C-4.93635389 -0.12081231 -2.94240101 0.03678811 0 0 Z"></path>
<path transform="translate(295.84375,262.51171875)" fill="#D4B26A" d="M0 0 C3.5580016 0.80570688 5.08956324 2.582003 7.15625 5.48828125 C8.62080551 8.96660059 8.16930219 10.44375026 7.09375 14.11328125 C4.82557371 18.06429802 3.47089964 19.13466568 -0.84375 20.48828125 C-4.76813428 20.48828125 -6.49225802 19.73279741 -9.71875 17.48828125 C-12.22701863 13.94719612 -12.59356158 11.90525908 -12.31640625 7.6484375 C-11.84375 5.48828125 -11.84375 5.48828125 -9.90625 2.42578125 C-6.33871916 0.16877194 -4.15667619 -0.24247278 0 0 Z"></path>
<path transform="translate(184,263)" fill="#D5B36B" d="M0 0 C3.64184981 2.55704348 4.77792202 4.22272709 6 8.5 C6 12.41354478 5.35967923 13.94115656 3 17 C0.36673543 19.63326457 -1.32553101 19.71180635 -5 20 C-8.23946633 19.22869849 -9.85790737 18.12339623 -12.375 15.9375 C-14.38803538 12.29855142 -14.34992994 10.12826435 -13.6640625 6.09375 C-13 4 -13 4 -10.9375 1.4375 C-7.13254445 -0.42449952 -4.15381706 -0.95663666 0 0 Z"></path>
<path transform="translate(329,40)" fill="#D5B36B" d="M0 0 C2.5549383 1.68088046 3.67561527 2.93064895 4.56640625 5.8671875 C5.20244402 9.41560876 5.20732667 11.49805122 3.8125 14.875 C0.88896057 18.30259795 -0.96839308 18.86870457 -5.4375 19.4375 C-9.91903826 18.88713565 -11.20852117 17.44829737 -14 14 C-15.66426454 10.67147092 -15.38357035 7.34249624 -14.375 3.8125 C-10.5686432 -1.20497033 -5.7391613 -1.59421147 0 0 Z"></path>
<path transform="translate(475.84375,120.48046875)" fill="#D4B36B" d="M0 0 C3.581146 0.86284858 5.09200189 2.5521746 7.15625 5.51953125 C8.41050943 9.20391833 8.32221858 10.99050639 7.15625 14.70703125 C4.5415113 18.38400755 2.48615343 19.34532015 -1.84375 20.51953125 C-5.76295483 19.76583801 -8.34939678 18.67029321 -10.84375 15.51953125 C-12.41830739 12.37041646 -12.19174118 9.99944309 -11.84375 6.51953125 C-8.76729547 1.06130547 -6.04974149 -0.43356481 0 0 Z"></path>
<path transform="translate(69,71)" fill="#D5B36B" d="M0 0 C3.0576086 2.81621845 3.90935897 4.36551276 4.5 8.5 C3.9231981 12.53761333 2.85349783 14.14650217 0 17 C-3.22878519 18.6143926 -6.50903682 18.5818272 -10 18 C-13.64184981 15.44295652 -14.77792202 13.77727291 -16 9.5 C-16 5.46974731 -15.66868979 4.00227601 -13 1 C-8.05985056 -1.88952137 -5.14690979 -2.74501855 0 0 Z"></path>
</svg><style>@media (prefers-color-scheme: light) { :root { filter: none; } }
@media (prefers-color-scheme: dark) { :root { filter: none; } }
</style></svg>